<svg width="274" height="220" viewBox="0 0 274 220" fill="none" xmlns="http://www.w3.org/2000/svg">
<path d="M266.934 97.1609H157.187C153.299 97.1609 150.121 93.9767 150.121 90.0802V13.9945C150.121 10.0981 153.299 6.91388 157.187 6.91388H266.934C270.822 6.91388 274 10.0981 274 13.9945V90.0802C274 93.9348 270.822 97.1609 266.934 97.1609Z" fill="#F6F6F8"/>
<path d="M170.604 13.786C170.604 14.4983 170.019 15.0431 169.351 15.0431C168.682 15.0431 168.097 14.4564 168.097 13.786C168.097 13.0737 168.682 12.5289 169.351 12.5289C170.019 12.5289 170.604 13.1156 170.604 13.786Z" fill="#BDBDBD"/>
<path d="M169.311 15.0814H169.353C168.852 14.9138 168.434 14.4529 168.434 13.8662C168.434 13.1958 168.977 12.6511 169.646 12.6092C169.52 12.5673 169.395 12.5673 169.269 12.5673C168.559 12.5673 168.016 13.1539 168.016 13.8243C168.016 14.4948 168.643 15.0814 169.311 15.0814Z" fill="#A5A5A5"/>
<path d="M197.818 13.786C197.818 14.4983 197.233 15.0431 196.564 15.0431C195.896 15.0431 195.311 14.4564 195.311 13.786C195.311 13.0737 195.896 12.5289 196.564 12.5289C197.233 12.5289 197.818 13.1156 197.818 13.786Z" fill="#BDBDBD"/>
<path d="M196.57 15.0811H196.611C196.11 14.9135 195.692 14.4526 195.692 13.8659C195.692 13.1955 196.235 12.6508 196.904 12.6089C196.779 12.567 196.653 12.567 196.528 12.567C195.817 12.567 195.274 13.1536 195.274 13.824C195.274 14.4945 195.859 15.0811 196.57 15.0811Z" fill="#A5A5A5"/>
<path d="M224.913 13.786C224.913 14.4983 224.328 15.0431 223.659 15.0431C222.99 15.0431 222.405 14.4564 222.405 13.786C222.405 13.0737 222.99 12.5289 223.659 12.5289C224.328 12.5289 224.913 13.1156 224.913 13.786Z" fill="#BDBDBD"/>
<path d="M223.62 15.0811H223.662C223.161 14.9135 222.743 14.4526 222.743 13.8659C222.743 13.1955 223.286 12.6508 223.955 12.6089C223.829 12.567 223.704 12.567 223.579 12.567C222.868 12.567 222.325 13.1536 222.325 13.824C222.325 14.4945 222.91 15.0811 223.62 15.0811Z" fill="#A5A5A5"/>
<path d="M252.922 13.7861C252.922 14.4984 252.337 15.0431 251.668 15.0431C250.958 15.0431 250.415 14.4565 250.415 13.7861C250.415 13.0737 251 12.529 251.668 12.529C252.379 12.529 252.922 13.1156 252.922 13.7861Z" fill="#BDBDBD"/>
<path d="M251.674 15.0812H251.715C251.214 14.9136 250.796 14.4526 250.796 13.866C250.796 13.1956 251.339 12.6508 252.008 12.6089C251.883 12.567 251.757 12.567 251.632 12.567C250.921 12.567 250.378 13.1537 250.378 13.8241C250.378 14.4945 250.963 15.0812 251.674 15.0812Z" fill="#A5A5A5"/>
<path d="M169.187 1.25707C172.364 1.25707 174.915 3.77122 175.082 6.87201H176.336C176.169 3.05888 173.033 0 169.187 0C165.215 0 161.996 3.22649 161.996 7.20723C161.996 11.188 165.215 14.4145 169.187 14.4145C169.521 14.4145 169.814 14.1211 169.814 13.7859C169.814 13.4507 169.521 13.1574 169.187 13.1574C165.926 13.1574 163.25 10.4756 163.25 7.20723C163.25 3.93883 165.884 1.25707 169.187 1.25707Z" fill="#E3E8EB"/>
<path d="M196.571 1.25707C199.748 1.25707 202.298 3.77122 202.466 6.87201H203.72C203.553 3.05888 200.417 0 196.571 0C192.599 0 189.379 3.22649 189.379 7.20723C189.379 11.188 192.599 14.4145 196.571 14.4145C196.905 14.4145 197.198 14.1211 197.198 13.7859C197.198 13.4507 196.905 13.1574 196.571 13.1574C193.309 13.1574 190.634 10.4756 190.634 7.20723C190.634 3.93883 193.268 1.25707 196.571 1.25707Z" fill="#E3E8EB"/>
<path d="M223.83 1.25707C227.007 1.25707 229.558 3.77122 229.725 6.87201H230.979C230.812 3.05888 227.676 0 223.83 0C219.858 0 216.639 3.22649 216.639 7.20723C216.639 11.188 219.858 14.4145 223.83 14.4145C224.164 14.4145 224.457 14.1211 224.457 13.7859C224.457 13.4507 224.164 13.1574 223.83 13.1574C220.569 13.1574 217.893 10.4756 217.893 7.20723C217.893 3.93883 220.569 1.25707 223.83 1.25707Z" fill="#E3E8EB"/>
<path d="M251.758 1.25707C254.935 1.25707 257.485 3.77122 257.653 6.87201H258.907C258.74 3.05888 255.604 0 251.758 0C247.786 0 244.566 3.22649 244.566 7.20723C244.566 11.188 247.786 14.4145 251.758 14.4145C252.092 14.4145 252.385 14.1211 252.385 13.7859C252.385 13.4507 252.092 13.1574 251.758 13.1574C248.496 13.1574 245.821 10.4756 245.821 7.20723C245.821 3.93883 248.455 1.25707 251.758 1.25707Z" fill="#E3E8EB"/>
<path d="M269.025 30.7115H158.232C158.065 30.7115 157.898 30.5858 157.898 30.3763C157.898 30.2087 158.023 30.0411 158.232 30.0411H269.025C269.192 30.0411 269.36 30.1668 269.36 30.3763C269.318 30.5439 269.192 30.7115 269.025 30.7115Z" fill="#C4D2DD" fill-opacity="0.3"/>
<path d="M170.65 83.8376V27.4437C170.65 27.2761 170.776 27.1085 170.985 27.1085C171.152 27.1085 171.319 27.2342 171.319 27.4437V83.8376C171.319 84.0052 171.194 84.1728 170.985 84.1728C170.776 84.1728 170.65 84.0471 170.65 83.8376Z" fill="#C4D2DD" fill-opacity="0.3"/>
<path d="M187.959 83.8371V27.4432C187.959 27.2756 188.085 27.108 188.294 27.108C188.461 27.108 188.628 27.2337 188.628 27.4432V83.8371C188.628 84.0047 188.503 84.1723 188.294 84.1723C188.127 84.1723 187.959 84.0466 187.959 83.8371Z" fill="#C4D2DD" fill-opacity="0.3"/>
<path d="M205.31 83.8371V27.4432C205.31 27.2756 205.435 27.108 205.644 27.108C205.811 27.108 205.978 27.2337 205.978 27.4432V83.8371C205.978 84.0047 205.853 84.1723 205.644 84.1723C205.435 84.1723 205.31 84.0466 205.31 83.8371Z" fill="#C4D2DD" fill-opacity="0.3"/>
<path d="M222.66 83.8367V27.4428C222.66 27.2753 222.786 27.1077 222.995 27.1077C223.162 27.1077 223.329 27.2334 223.329 27.4428V83.8367C223.329 84.0043 223.203 84.1719 222.995 84.1719C222.786 84.1719 222.66 84.0462 222.66 83.8367Z" fill="#C4D2DD" fill-opacity="0.3"/>
<path d="M239.968 83.8367V27.4428C239.968 27.2753 240.093 27.1077 240.302 27.1077C240.469 27.1077 240.636 27.2334 240.636 27.4428V83.8367C240.636 84.0043 240.511 84.1719 240.302 84.1719C240.093 84.1719 239.968 84.0462 239.968 83.8367Z" fill="#C4D2DD" fill-opacity="0.3"/>
<path d="M257.318 83.8367V27.4428C257.318 27.2753 257.444 27.1077 257.653 27.1077C257.82 27.1077 257.987 27.2334 257.987 27.4428V83.8367C257.987 84.0043 257.862 84.1719 257.653 84.1719C257.444 84.1719 257.318 84.0462 257.318 83.8367Z" fill="#C4D2DD" fill-opacity="0.3"/>
<path d="M269.025 43.9086H158.232C158.065 43.9086 157.898 43.7829 157.898 43.5734C157.898 43.4058 158.023 43.2382 158.232 43.2382H269.025C269.192 43.2382 269.36 43.3639 269.36 43.5734C269.318 43.741 269.192 43.9086 269.025 43.9086Z" fill="#C4D2DD" fill-opacity="0.3"/>
<path d="M269.025 55.8492H158.232C158.065 55.8492 157.898 55.7235 157.898 55.514C157.898 55.3464 158.023 55.1788 158.232 55.1788H269.025C269.192 55.1788 269.36 55.3045 269.36 55.514C269.318 55.6816 269.192 55.8492 269.025 55.8492Z" fill="#C4D2DD" fill-opacity="0.3"/>
<path d="M269.025 69.2563H158.232C158.065 69.2563 157.898 69.1306 157.898 68.9211C157.898 68.7535 158.023 68.5859 158.232 68.5859H269.025C269.192 68.5859 269.36 68.7116 269.36 68.9211C269.318 69.0887 269.192 69.2563 269.025 69.2563Z" fill="#C4D2DD" fill-opacity="0.3"/>
<path d="M269.025 81.4065H158.232C158.065 81.4065 157.898 81.2808 157.898 81.0713C157.898 80.9037 158.023 80.7361 158.232 80.7361H269.025C269.192 80.7361 269.36 80.8618 269.36 81.0713C269.318 81.2389 269.192 81.4065 269.025 81.4065Z" fill="#C4D2DD" fill-opacity="0.3"/>
<path d="M168.099 28.7004H160.741C160.156 28.7004 159.696 28.2395 159.696 27.6528C159.696 27.0662 160.156 26.6053 160.741 26.6053H168.099C168.685 26.6053 169.145 27.0662 169.145 27.6528C169.145 28.2395 168.685 28.7004 168.099 28.7004Z" fill="#E3E8EB"/>
<path d="M183.527 28.7004H176.169C175.583 28.7004 175.124 28.2395 175.124 27.6528C175.124 27.0662 175.583 26.6053 176.169 26.6053H183.527C184.113 26.6053 184.572 27.0662 184.572 27.6528C184.572 28.2395 184.113 28.7004 183.527 28.7004Z" fill="#E3E8EB"/>
<path d="M200.794 28.7H193.435C192.85 28.7 192.39 28.2391 192.39 27.6525C192.39 27.0658 192.85 26.6049 193.435 26.6049H200.794C201.379 26.6049 201.839 27.0658 201.839 27.6525C201.839 28.2391 201.337 28.7 200.794 28.7Z" fill="#E3E8EB"/>
<path d="M217.935 28.7H210.577C209.992 28.7 209.532 28.2391 209.532 27.6525C209.532 27.0658 209.992 26.6049 210.577 26.6049H217.935C218.521 26.6049 218.981 27.0658 218.981 27.6525C218.981 28.2391 218.479 28.7 217.935 28.7Z" fill="#E3E8EB"/>
<path d="M235.495 28.7H228.137C227.551 28.7 227.091 28.2391 227.091 27.6525C227.091 27.0658 227.551 26.6049 228.137 26.6049H235.495C236.08 26.6049 236.54 27.0658 236.54 27.6525C236.54 28.2391 236.038 28.7 235.495 28.7Z" fill="#E3E8EB"/>
<path d="M252.092 28.7H244.734C244.148 28.7 243.688 28.2391 243.688 27.6525C243.688 27.0658 244.148 26.6049 244.734 26.6049H252.092C252.677 26.6049 253.137 27.0658 253.137 27.6525C253.137 28.2391 252.677 28.7 252.092 28.7Z" fill="#E3E8EB"/>
<path d="M267.687 28.7H260.329C259.744 28.7 259.284 28.2391 259.284 27.6525C259.284 27.0658 259.744 26.6049 260.329 26.6049H267.687C268.273 26.6049 268.733 27.0658 268.733 27.6525C268.733 28.2391 268.231 28.7 267.687 28.7Z" fill="#EC374A"/>
<path d="M186.036 35.4879H173.995C173.66 35.4879 173.409 35.2365 173.409 34.9013C173.409 34.5661 173.66 34.3146 173.995 34.3146H186.036C186.37 34.3146 186.621 34.5661 186.621 34.9013C186.663 35.1946 186.37 35.4879 186.036 35.4879Z" fill="#C4D2DD" fill-opacity="0.3"/>
<path d="M186.035 37.7924H173.994C173.66 37.7924 173.409 37.541 173.409 37.2058C173.409 36.8706 173.66 36.6191 173.994 36.6191H186.035C186.37 36.6191 186.62 36.8706 186.62 37.2058C186.662 37.4991 186.37 37.7924 186.035 37.7924Z" fill="#C4D2DD" fill-opacity="0.3"/>
<path d="M181.143 40.0552H173.994C173.66 40.0552 173.409 39.8037 173.409 39.4685C173.409 39.1333 173.66 38.8819 173.994 38.8819H181.143C181.478 38.8819 181.729 39.1333 181.729 39.4685C181.729 39.7618 181.478 40.0552 181.143 40.0552Z" fill="#C4D2DD" fill-opacity="0.3"/>
<path d="M220.443 48.0564H208.402C208.068 48.0564 207.817 47.805 207.817 47.4698C207.817 47.1345 208.068 46.8831 208.402 46.8831H220.443C220.778 46.8831 221.029 47.1345 221.029 47.4698C221.029 47.7631 220.778 48.0564 220.443 48.0564Z" fill="#C4D2DD" fill-opacity="0.3"/>
<path d="M220.443 50.3612H208.402C208.068 50.3612 207.817 50.1098 207.817 49.7746C207.817 49.4393 208.068 49.1879 208.402 49.1879H220.443C220.778 49.1879 221.029 49.4393 221.029 49.7746C221.029 50.0679 220.778 50.3612 220.443 50.3612Z" fill="#C4D2DD" fill-opacity="0.3"/>
<path d="M215.552 52.6239H208.402C208.068 52.6239 207.817 52.3725 207.817 52.0373C207.817 51.702 208.068 51.4506 208.402 51.4506H215.552C215.886 51.4506 216.137 51.702 216.137 52.0373C216.137 52.3306 215.886 52.6239 215.552 52.6239Z" fill="#C4D2DD" fill-opacity="0.3"/>
<path d="M203.093 73.8234H191.052C190.718 73.8234 190.467 73.572 190.467 73.2368C190.467 72.9016 190.718 72.6501 191.052 72.6501H203.093C203.428 72.6501 203.679 72.9016 203.679 73.2368C203.679 73.5301 203.428 73.8234 203.093 73.8234Z" fill="#C4D2DD" fill-opacity="0.3"/>
<path d="M203.093 76.1282H191.052C190.718 76.1282 190.467 75.8768 190.467 75.5415C190.467 75.2063 190.718 74.9549 191.052 74.9549H203.093C203.428 74.9549 203.679 75.2063 203.679 75.5415C203.679 75.8348 203.428 76.1282 203.093 76.1282Z" fill="#C4D2DD" fill-opacity="0.3"/>
<path d="M198.202 78.3907H191.052C190.718 78.3907 190.467 78.1393 190.467 77.804C190.467 77.4688 190.718 77.2174 191.052 77.2174H198.202C198.536 77.2174 198.787 77.4688 198.787 77.804C198.787 78.0974 198.536 78.3907 198.202 78.3907Z" fill="#C4D2DD" fill-opacity="0.3"/>
<path d="M169.187 61.7148H157.146C156.811 61.7148 156.561 61.4634 156.561 61.1282C156.561 60.793 156.811 60.5416 157.146 60.5416H169.187C169.521 60.5416 169.772 60.793 169.772 61.1282C169.772 61.4215 169.521 61.7148 169.187 61.7148Z" fill="#E6E7E8"/>
<path d="M169.186 64.0195H157.145C156.811 64.0195 156.56 63.7681 156.56 63.4329C156.56 63.0977 156.811 62.8463 157.145 62.8463H169.186C169.521 62.8463 169.772 63.0977 169.772 63.4329C169.772 63.7262 169.521 64.0195 169.186 64.0195Z" fill="#E6E7E8"/>
<path d="M237.878 61.9662H225.837C225.502 61.9662 225.251 61.7148 225.251 61.3796C225.251 61.0444 225.502 60.793 225.837 60.793H237.878C238.212 60.793 238.463 61.0444 238.463 61.3796C238.505 61.7148 238.212 61.9662 237.878 61.9662Z" fill="#C4D2DD" fill-opacity="0.3"/>
<path d="M237.877 64.271H225.836C225.502 64.271 225.251 64.0196 225.251 63.6843C225.251 63.3491 225.502 63.0977 225.836 63.0977H237.877C238.212 63.0977 238.463 63.3491 238.463 63.6843C238.505 64.0196 238.212 64.271 237.877 64.271Z" fill="#C4D2DD" fill-opacity="0.3"/>
<path d="M237.459 36.2834H225.418C225.084 36.2834 224.833 36.032 224.833 35.6967C224.833 35.3615 225.084 35.1101 225.418 35.1101H237.459C237.794 35.1101 238.045 35.3615 238.045 35.6967C238.087 35.9901 237.794 36.2834 237.459 36.2834Z" fill="#C4D2DD" fill-opacity="0.3"/>
<path d="M237.459 38.588H225.418C225.083 38.588 224.833 38.3366 224.833 38.0014C224.833 37.6661 225.083 37.4147 225.418 37.4147H237.459C237.793 37.4147 238.044 37.6661 238.044 38.0014C238.086 38.2947 237.793 38.588 237.459 38.588Z" fill="#C4D2DD" fill-opacity="0.3"/>
<path d="M183.276 47.0926C182.942 46.7574 182.398 46.7574 182.064 47.0926L178.886 50.2772L177.297 48.6849C176.963 48.3497 176.419 48.3497 176.085 48.6849C175.75 49.0201 175.75 49.5649 176.085 49.9001L178.301 52.1209C178.468 52.2885 178.677 52.3723 178.928 52.3723C179.137 52.3723 179.388 52.2885 179.555 52.1209L183.318 48.3497C183.61 48.0145 183.61 47.4697 183.276 47.0926Z" fill="#00B48D"/>
<path d="M217.559 60.0809C217.224 59.7457 216.681 59.7457 216.346 60.0809L213.169 63.2655L211.58 61.6732C211.246 61.338 210.702 61.338 210.368 61.6732C210.033 62.0085 210.033 62.5532 210.368 62.8884L212.583 65.1093C212.751 65.2769 212.96 65.3607 213.211 65.3607C213.42 65.3607 213.67 65.2769 213.838 65.1093L217.601 61.338C217.893 61.0028 217.893 60.4581 217.559 60.0809Z" fill="#00B48D"/>
<path d="M183.568 72.6499C183.234 72.3147 182.69 72.3147 182.356 72.6499L179.178 75.8345L177.589 74.2422C177.255 73.907 176.711 73.907 176.377 74.2422C176.042 74.5774 176.042 75.1222 176.377 75.4574L178.593 77.6782C178.76 77.8458 178.969 77.9296 179.22 77.9296C179.429 77.9296 179.68 77.8458 179.847 77.6782L183.61 73.907C183.902 73.5718 183.902 73.027 183.568 72.6499Z" fill="#00B48D"/>
<path d="M235.285 73.2368C234.951 72.9015 234.407 72.9015 234.073 73.2368L230.895 76.4214L229.307 74.8291C228.972 74.4938 228.429 74.4938 228.094 74.8291C227.76 75.1643 227.76 75.709 228.094 76.0442L230.31 78.2651C230.477 78.4327 230.686 78.5165 230.937 78.5165C231.146 78.5165 231.397 78.4327 231.564 78.2651L235.327 74.4938C235.62 74.1167 235.62 73.572 235.285 73.2368Z" fill="#00B48D"/>
<path d="M200.583 34.6908C200.249 34.3556 199.705 34.3556 199.371 34.6908L196.193 37.8754L194.604 36.2831C194.27 35.9479 193.726 35.9479 193.392 36.2831C193.057 36.6183 193.057 37.163 193.392 37.4983L195.608 39.7191C195.775 39.8867 195.984 39.9705 196.235 39.9705C196.444 39.9705 196.695 39.8867 196.862 39.7191L200.625 35.9479C200.918 35.5708 200.918 35.026 200.583 34.6908Z" fill="#00B48D"/>
<path d="M217.726 34.6908C217.391 34.3556 216.848 34.3556 216.513 34.6908L213.336 37.8754L211.747 36.2831C211.413 35.9479 210.869 35.9479 210.535 36.2831C210.2 36.6183 210.2 37.163 210.535 37.4983L212.75 39.7191C212.918 39.8867 213.127 39.9705 213.378 39.9705C213.587 39.9705 213.837 39.8867 214.005 39.7191L217.768 35.9479C218.06 35.5708 218.06 35.026 217.726 34.6908Z" fill="#00B48D"/>
<path d="M250.962 77.1754C250.712 77.4268 250.335 77.4268 250.084 77.1754L247.367 74.4518C247.116 74.2003 247.116 73.8232 247.367 73.5718C247.618 73.3204 247.994 73.3204 248.245 73.5718L250.962 76.2955C251.213 76.5469 251.213 76.924 250.962 77.1754Z" fill="#EC374A"/>
<path d="M247.367 77.1754C247.618 77.4268 247.994 77.4268 248.245 77.1754L250.962 74.4518C251.213 74.2003 251.213 73.8232 250.962 73.5718C250.712 73.3204 250.335 73.3204 250.084 73.5718L247.367 76.2955C247.116 76.5469 247.116 76.924 247.367 77.1754Z" fill="#EC374A"/>
<path d="M265.722 64.3967C265.471 64.6481 265.095 64.6481 264.844 64.3967L262.127 61.673C261.876 61.4216 261.876 61.0445 262.127 60.7931C262.377 60.5416 262.754 60.5416 263.005 60.7931L265.722 63.5167C265.973 63.7681 265.973 64.1872 265.722 64.3967Z" fill="#F93838"/>
<path d="M262.125 64.3967C262.375 64.6481 262.752 64.6481 263.003 64.3967L265.72 61.673C265.971 61.4216 265.971 61.0445 265.72 60.7931C265.469 60.5416 265.093 60.5416 264.842 60.7931L262.125 63.5167C261.916 63.7681 261.916 64.1872 262.125 64.3967Z" fill="#F93838"/>
<path d="M266.013 39.5517C265.762 39.8032 265.386 39.8032 265.135 39.5517L262.418 36.8281C262.167 36.5767 262.167 36.1996 262.418 35.9481C262.668 35.6967 263.045 35.6967 263.296 35.9481L266.013 38.6718C266.264 38.9232 266.264 39.3003 266.013 39.5517Z" fill="#EC374A"/>
<path d="M262.418 39.5517C262.668 39.8032 263.045 39.8032 263.296 39.5517L266.013 36.8281C266.264 36.5767 266.264 36.1996 266.013 35.9481C265.762 35.6967 265.386 35.6967 265.135 35.9481L262.418 38.6718C262.167 38.9232 262.167 39.3003 262.418 39.5517Z" fill="#EC374A"/>
<path d="M205.057 89.6608H171.066C170.481 89.6608 170.021 89.1999 170.021 88.6132C170.021 88.0266 170.481 87.5657 171.066 87.5657H205.057C205.642 87.5657 206.102 88.0266 206.102 88.6132C206.102 89.1999 205.601 89.6608 205.057 89.6608Z" fill="#C4D2DD" fill-opacity="0.3"/>
<path d="M192.849 93.3479H171.066C170.481 93.3479 170.021 92.887 170.021 92.3004C170.021 91.7137 170.481 91.2528 171.066 91.2528H192.849C193.434 91.2528 193.894 91.7137 193.894 92.3004C193.894 92.8451 193.434 93.3479 192.849 93.3479Z" fill="#C4D2DD" fill-opacity="0.3"/>
<path d="M208.145 149.778H30.353V56.2155C30.353 53.7407 32.34 51.7449 34.8038 51.7449H203.774C206.237 51.7449 208.224 53.7407 208.224 56.2155V149.778H208.145Z" fill="white"/>
<path d="M208.145 149.778H30.353V56.2155C30.353 53.7407 32.34 51.7449 34.8038 51.7449H203.774C206.237 51.7449 208.224 53.7407 208.224 56.2155V149.778H208.145Z" fill="#C4D2DD" fill-opacity="0.5"/>
<path d="M213.55 160.076H25.0283C22.485 160.076 20.498 158 20.498 155.525V149.778H218.159V155.525C218.08 158.08 216.013 160.076 213.55 160.076Z" fill="#C4D2DD"/>
<path d="M96.1611 149.778L98.2275 151.773C99.0223 152.572 100.135 153.051 101.327 153.051H137.49C138.761 153.051 139.953 152.492 140.828 151.534L142.338 149.778H96.1611Z" fill="white"/>
<path d="M96.1611 149.778L98.2275 151.773C99.0223 152.572 100.135 153.051 101.327 153.051H137.49C138.761 153.051 139.953 152.492 140.828 151.534L142.338 149.778H96.1611Z" fill="#738C99" fill-opacity="0.8"/>
<path d="M201.549 58.2112H37.0303V144.109H201.549V58.2112Z" fill="white"/>
<path d="M188.435 94.6941H125.647C124.932 94.6941 124.375 94.1353 124.375 93.4168V74.4968C124.375 73.7784 124.932 73.2195 125.647 73.2195H188.435C189.15 73.2195 189.706 73.7784 189.706 74.4968V93.337C189.706 94.0554 189.15 94.6941 188.435 94.6941Z" fill="white"/>
<path d="M188.435 94.6941H125.647C124.932 94.6941 124.375 94.1353 124.375 93.4168V74.4968C124.375 73.7784 124.932 73.2195 125.647 73.2195H188.435C189.15 73.2195 189.706 73.7784 189.706 74.4968V93.337C189.706 94.0554 189.15 94.6941 188.435 94.6941Z" fill="#C4D2DD" fill-opacity="0.3"/>
<g opacity="0.5">
<path d="M186.527 138.362H126.204C125.25 138.362 124.535 137.563 124.535 136.685V102.517C124.535 101.559 125.329 100.841 126.204 100.841H186.527C187.481 100.841 188.196 101.639 188.196 102.517V136.685C188.196 137.563 187.481 138.362 186.527 138.362Z" fill="white"/>
<path d="M186.527 138.362H126.204C125.25 138.362 124.535 137.563 124.535 136.685V102.517C124.535 101.559 125.329 100.841 126.204 100.841H186.527C187.481 100.841 188.196 101.639 188.196 102.517V136.685C188.196 137.563 187.481 138.362 186.527 138.362Z" fill="#C4D2DD" fill-opacity="0.3"/>
</g>
<g opacity="0.5">
<path d="M114.123 138.521H49.5079C47.9978 138.521 46.8057 137.324 46.8057 135.807V70.4254C46.8057 68.9087 47.9978 67.7112 49.5079 67.7112H114.123C115.633 67.7112 116.826 68.9087 116.826 70.4254V135.807C116.905 137.324 115.633 138.521 114.123 138.521Z" fill="white"/>
<path d="M114.123 138.521H49.5079C47.9978 138.521 46.8057 137.324 46.8057 135.807V70.4254C46.8057 68.9087 47.9978 67.7112 49.5079 67.7112H114.123C115.633 67.7112 116.826 68.9087 116.826 70.4254V135.807C116.905 137.324 115.633 138.521 114.123 138.521Z" fill="#C4D2DD" fill-opacity="0.3"/>
</g>
<path d="M109.028 70.4178C111.789 70.4178 114.028 72.6564 114.028 75.4178V117.35C114.028 119.559 112.237 121.35 110.028 121.35H49.7302C48.4586 121.35 47.3459 120.312 47.3459 118.955L47.3457 75.4178C47.3457 72.6564 49.5843 70.4178 52.3457 70.4178L109.028 70.4178Z" fill="#643C93"/>
<path d="M110.027 70.4178C112.236 70.4178 114.027 72.2086 114.027 74.4178V78.9597H47.4243V74.4178C47.4243 72.2087 49.2152 70.4178 51.4243 70.4178L110.027 70.4178Z" fill="#3F008A"/>
<path d="M53.3853 75.0479C53.3853 75.6866 52.9086 76.1656 52.273 76.1656C51.6374 76.1656 51.1606 75.6866 51.1606 75.0479C51.1606 74.4093 51.6374 73.9303 52.273 73.9303C52.9086 73.9303 53.3853 74.4093 53.3853 75.0479Z" fill="white"/>
<path d="M57.9951 75.0479C57.9951 75.6866 57.5184 76.1656 56.8828 76.1656C56.2472 76.1656 55.7705 75.6866 55.7705 75.0479C55.7705 74.4093 56.2472 73.9303 56.8828 73.9303C57.5184 73.9303 57.9951 74.4093 57.9951 75.0479Z" fill="white"/>
<path d="M62.6045 75.0479C62.6045 75.6866 62.1278 76.1656 61.4922 76.1656C60.8566 76.1656 60.3799 75.6866 60.3799 75.0479C60.3799 74.4093 60.8566 73.9303 61.4922 73.9303C62.1278 73.9303 62.6045 74.4093 62.6045 75.0479Z" fill="white"/>
<path d="M104.967 95.804H56.4858C55.5321 95.804 54.7373 95.0057 54.7373 94.0478V84.947C54.7373 83.989 55.5321 83.1907 56.4858 83.1907H104.967C105.921 83.1907 106.716 83.989 106.716 84.947V94.0478C106.716 95.0057 105.921 95.804 104.967 95.804Z" fill="white"/>
<path d="M95.4294 104.426H56.2469C55.611 104.426 55.0547 103.867 55.0547 103.228C55.0547 102.59 55.611 102.031 56.2469 102.031H95.4294C96.0652 102.031 96.6216 102.59 96.6216 103.228C96.6216 103.867 96.0652 104.426 95.4294 104.426Z" fill="white"/>
<path d="M69.5986 111.531H56.2464C55.6105 111.531 55.0542 110.972 55.0542 110.333C55.0542 109.695 55.6105 109.136 56.2464 109.136H69.5986C70.2345 109.136 70.7908 109.695 70.7908 110.333C70.7908 111.052 70.2345 111.531 69.5986 111.531Z" fill="white"/>
<path d="M196.742 95.9731C196.742 98.1822 194.951 99.9731 192.742 99.9731H137.954C135.745 99.9731 133.954 98.1823 133.954 95.9732L133.954 82.4986C133.954 80.2894 135.745 78.4985 137.954 78.4985L192.742 78.4985C194.951 78.4985 196.742 80.2894 196.742 82.4985V95.9731Z" fill="#00B48D"/>
<path d="M156.923 95.5025H142.459C141.266 95.5025 140.392 94.5445 140.392 93.4269V85.7631C140.392 84.5656 141.346 83.6875 142.459 83.6875H156.923C158.116 83.6875 158.99 84.6455 158.99 85.7631V93.4269C158.99 94.5445 158.036 95.5025 156.923 95.5025Z" fill="white"/>
<path d="M188.953 87.2001H167.096C166.461 87.2001 165.904 86.6413 165.904 86.0026C165.904 85.364 166.461 84.8052 167.096 84.8052H188.953C189.589 84.8052 190.145 85.364 190.145 86.0026C190.145 86.6413 189.589 87.2001 188.953 87.2001Z" fill="white"/>
<path d="M173.773 94.305H167.096C166.461 94.305 165.904 93.7462 165.904 93.1075C165.904 92.4689 166.461 91.91 167.096 91.91H173.773C174.408 91.91 174.965 92.4689 174.965 93.1075C174.965 93.7462 174.408 94.305 173.773 94.305Z" fill="white"/>
<path d="M201.736 220C188.537 220 177.837 219.048 177.837 217.874C177.837 216.7 188.537 215.748 201.736 215.748C214.935 215.748 225.635 216.7 225.635 217.874C225.635 219.048 214.935 220 201.736 220Z" fill="#D9EBF6"/>
<path d="M210.029 217.313L210.068 217.315C210.502 217.34 210.876 217.002 210.901 216.564L211.069 213.538C211.093 213.1 210.758 212.722 210.325 212.698L210.285 212.695C209.852 212.671 209.477 213.009 209.453 213.447L209.285 216.473C209.221 216.908 209.595 217.289 210.029 217.313Z" fill="#F9D1BB"/>
<path d="M211.388 215.593L211.214 218.738L202.307 218.195C201.991 218.177 201.937 217.735 202.219 217.631L208.874 215.291L211.388 215.593Z" fill="#485056"/>
<path d="M202.021 218.379L211.206 218.897C211.285 218.902 211.329 218.824 211.331 218.784C211.335 218.705 211.259 218.66 211.219 218.658L202.034 218.14C201.955 218.135 201.911 218.213 201.909 218.253C201.907 218.292 201.942 218.374 202.021 218.379Z" fill="#D1D3D4"/>
<path d="M205.881 208.215L205.913 208.191C206.26 207.929 206.332 207.427 206.072 207.076L204.273 204.649C204.013 204.298 203.515 204.225 203.167 204.487L203.136 204.511C202.788 204.773 202.716 205.275 202.977 205.626L204.775 208.053C205.004 208.428 205.533 208.477 205.881 208.215Z" fill="#F9D1BB"/>
<path d="M205.829 206.015L207.699 208.538L200.528 213.894C200.275 214.085 199.951 213.781 200.101 213.518L203.71 207.413L205.829 206.015Z" fill="#485056"/>
<path d="M200.425 214.22L207.794 208.666C207.857 208.618 207.841 208.53 207.818 208.499C207.77 208.435 207.683 208.45 207.652 208.474L200.283 214.029C200.22 214.076 200.235 214.164 200.259 214.196C200.283 214.228 200.362 214.268 200.425 214.22Z" fill="#D1D3D4"/>
<path d="M223.058 162.35L212.609 214.145L207.594 213.669V212.31L210.523 162.35H223.058Z" fill="#1174FF"/>
<path d="M205.835 161.405C205.835 161.405 192.011 174.397 194.12 190.105C196.463 202.507 201.5 207.231 201.5 207.231L206.001 204.152C206.001 204.152 199.274 194.475 204.312 182.783C209.349 171.09 220.362 166.838 220.362 166.838C220.362 166.838 210.872 158.217 210.287 158.453C209.349 158.689 205.835 161.405 205.835 161.405Z" fill="#1174FF"/>
<path d="M197.753 96.8012L195.761 95.0296C195.761 95.0296 194.121 93.9667 194.121 93.7305C194.121 93.4942 194.473 93.0218 194.473 93.0218L196.23 93.4942L194.707 88.8881L195.879 89.0062L198.339 91.4864L199.159 94.2029L199.745 95.2658L197.753 96.8012Z" fill="#FFBD86"/>
<path d="M186.974 102.47L186.74 99.7537L184.748 97.6277L184.162 98.2183L184.631 99.3993L179.125 98.5726L179.476 99.7537L184.28 101.998L184.865 102.824L186.974 102.47Z" fill="#FFBD86"/>
<path d="M199.978 94.9116C199.978 94.9116 222.589 122.667 225.283 128.218C225.283 128.218 226.337 130.226 226.337 136.013C226.337 141.8 224.346 163.059 224.346 163.059L201.267 164.358C201.267 164.358 208.764 138.375 208.999 137.784C209.233 137.076 212.982 133.178 216.497 132.233L197.166 97.0375L199.978 94.9116Z" fill="#00A3FF"/>
<path d="M214.272 129.399C214.272 129.399 213.335 132.233 212.749 134.005C212.749 134.005 217.435 133.887 219.075 131.643L217.318 127.391L214.272 129.399Z" fill="#FFBD86"/>
<path d="M210.64 120.423C210.64 120.423 209.234 128.572 210.64 130.462C212.046 132.351 216.849 129.163 218.84 126.21C220.832 123.257 221.184 116.525 217.903 115.935C214.506 115.462 211.46 117.47 210.64 120.423Z" fill="#FFBD86"/>
<path d="M212.866 135.658C212.866 135.658 194.707 124.084 193.184 121.722C191.661 119.36 187.561 101.762 187.561 101.762L184.046 102.707C184.046 102.707 186.155 122.312 186.741 124.438C187.326 126.564 205.251 145.698 209.351 145.698C213.451 145.698 214.857 140.383 212.866 135.658Z" fill="#00A3FF"/>
<path d="M215.793 129.044L213.919 125.383C213.919 125.383 215.91 124.32 215.442 123.139C215.09 121.958 213.919 122.903 213.919 122.903L213.45 123.493L212.864 123.021L214.036 120.423C214.036 120.423 212.044 118.769 211.693 117.942C211.341 117.116 212.396 114.517 215.793 113.927C219.19 113.336 218.253 115.58 218.253 115.58C218.253 115.58 222.119 117.588 222.236 120.541C222.354 123.493 222.119 128.926 215.793 129.044Z" fill="#424261"/>
<path d="M27.0216 199.349C13.3735 199.349 2.30942 197.104 2.30942 194.334C2.30942 191.565 13.3735 189.32 27.0216 189.32C40.6698 189.32 51.7339 191.565 51.7339 194.334C51.7339 197.104 40.6698 199.349 27.0216 199.349Z" fill="#D9EBF6"/>
<path d="M35.5356 189.548C35.5356 189.752 35.5356 190.024 35.6015 190.297C35.6674 191.114 36.524 191.591 36.7217 191.727C36.5899 191.727 36.524 191.727 36.4581 191.795C35.0085 192.408 34.2177 192.612 32.834 191.999C32.7022 191.931 32.6363 191.931 32.5045 191.999C32.5704 191.318 32.7022 190.297 32.7681 189.548H35.5356Z" fill="#FFBD86"/>
<path d="M32.1744 194.178C32.1744 193.566 32.1744 192.885 32.1744 192.408C32.1744 192.067 32.5039 191.863 32.7675 191.999C34.1512 192.612 34.9419 192.476 36.3916 191.795C37.5118 191.318 41.0042 193.361 41.8608 193.906C42.322 194.247 42.0585 194.928 41.5313 194.928H32.8993C32.5698 194.996 32.2403 194.587 32.1744 194.178Z" fill="#485056"/>
<path d="M20.1205 189.003C20.1205 189.207 20.1206 189.48 20.1864 189.752C20.2523 190.569 21.109 191.046 21.3066 191.182C21.1749 191.182 21.109 191.182 21.0431 191.25C19.5934 191.863 18.8027 192.067 17.4189 191.454C17.2871 191.386 17.2213 191.386 17.0895 191.454C17.1554 190.773 17.2871 189.752 17.353 189.003H20.1205Z" fill="#FFBD86"/>
<path d="M16.8253 193.634C16.8253 193.021 16.8253 192.34 16.8253 191.863C16.8253 191.523 17.1548 191.318 17.4183 191.454C18.8021 192.067 19.5928 191.931 21.0425 191.25C22.1627 190.773 25.655 192.816 26.5116 193.361C26.9729 193.702 26.7093 194.383 26.1822 194.383H17.616C17.2207 194.383 16.8253 194.042 16.8253 193.634Z" fill="#485056"/>
<path d="M19.4392 131.738C19.4392 132.962 18.5883 136.362 18.5883 140.17C18.5883 147.447 22.1228 157.171 22.1228 157.171L16.1666 189.184L21.2065 189.32L32.3335 157.919L31.548 130.446L19.4392 131.738Z" fill="#0A9CEE"/>
<path d="M23.0958 130.366C23.0958 130.366 23.8829 138.878 25.5882 145.092C26.9656 150.293 37.132 159.409 37.132 159.409L31.6192 189.32H35.7513L49.3974 160.152C49.7909 159.071 49.7253 157.923 49.2662 156.91L35.2299 128.137L23.0958 130.366Z" fill="#00A3FF"/>
<path d="M56.6083 121.032H62.127C62.127 121.032 61.8544 124.301 56.1314 124.301L56.6083 121.032Z" fill="#FFBD86"/>
<path d="M32.899 105.096C32.6265 99.8524 24.4507 99.4438 23.6331 99.4438C22.4749 99.4438 21.3848 100.057 20.6353 100.874C19.3408 102.304 16.8199 105.505 17.6375 109.931C19.6815 121.372 17.2896 129.214 16.7446 132.755C24.3072 135.819 38.4858 131.519 38.4858 131.519L33.5804 112.928L32.899 105.096Z" fill="#FF9409"/>
<path d="M38.9625 117.627C38.9625 117.627 33.9889 99.58 27.6526 100.602C20.6351 101.759 32.2175 124.164 32.2175 124.164L56.1998 124.641L56.6768 120.828L38.9625 117.627Z" fill="#FF9409"/>
<path opacity="0.1" d="M28.5386 123.551C29.6969 127.093 33.6485 126.82 33.6485 126.82L35.8287 132.2C37.4639 131.86 38.4858 131.655 38.4858 131.655L36.5782 124.301L32.2177 124.232C32.2177 124.232 24.1782 108.637 25.5408 102.781C25.2683 103.189 23.3606 107.888 28.5386 123.551Z" fill="#EC374A"/>
<path d="M30.0244 97.8083C30.0244 97.8083 28.2206 100.507 29.1559 101.541L21.9409 101.586L23.2102 94.66L30.0244 97.8083Z" fill="#FCB17A"/>
<path d="M29.9353 88.0538C29.9353 88.0538 31.6486 90.4042 32.3339 97.8928C32.3339 97.8928 31.5344 101.008 25.0808 97.8928C25.0808 97.8928 18.8556 94.8864 19.7123 91.6068C19.7123 91.6068 26.0517 86.414 29.9353 88.0538Z" fill="#FFBD86"/>
<path d="M2.45398 103.527C2.45398 103.527 2.62481 100.422 4.78861 101.067C4.78861 101.067 2.45398 99.9535 1.59985 103.644C1.54291 103.82 1.48596 104.054 1.48596 104.289C0.745717 108.8 -4.43601 92.1617 10.255 92.5718C10.255 92.5718 13.1021 92.5718 14.5826 89.7597C14.5826 89.7597 16.7464 84.8386 22.7823 85.4831C22.7823 85.4831 34.6263 84.78 28.021 89.7597C28.021 89.7597 27.3377 92.7476 26.7682 93.9778C26.7113 94.0364 26.7113 94.1536 26.6544 94.2122C26.0849 95.2081 27.2238 92.689 25.8572 92.1031C25.8572 92.1031 23.6934 92.1031 25.5155 94.095C25.5155 94.095 28.6473 96.2041 25.2878 99.7777C25.2878 99.7777 27.2238 97.2 25.6294 95.9697C25.6294 95.9697 26.7113 97.6687 24.4906 100.246C24.4906 100.246 22.4406 102.355 26.8252 106.281C26.8252 106.281 30.2987 109.972 26.8252 114.541C26.8252 114.541 27.2238 113.018 27.053 112.198C27.053 112.198 26.4266 120.048 17.6006 118.759C17.6006 118.759 18.3408 118.994 19.2519 117.939C19.2519 117.939 14.0132 120.224 7.52182 116.181C7.52182 116.181 9.17315 117.412 10.7106 116.533C10.7106 116.533 5.24414 117.177 0.119356 108.097C0.119356 108.097 0.745717 109.796 2.90952 109.796" fill="#485056"/>
</svg>
