<svg width="25" height="25" viewBox="0 0 25 25" fill="none" xmlns="http://www.w3.org/2000/svg">
<path fill-rule="evenodd" clip-rule="evenodd" d="M4.01442 18.864C1.96593 16.8155 2.11442 13.6929 4.36797 11.4393L10.3784 5.42893C13.2004 2.60687 17.3038 2.45484 19.9243 5.07538C22.5449 7.69592 22.3928 11.7993 19.5708 14.6213L14.621 19.5711L13.2068 18.1569L18.1566 13.2071C20.205 11.1586 20.3535 8.33302 18.5101 6.48959C16.6667 4.64617 13.8411 4.79466 11.7926 6.84315L5.78218 12.8536C4.5497 14.086 3.9635 15.9846 5.42863 17.4497C6.89376 18.9149 8.79234 18.3287 10.0248 17.0962L15.3281 11.7929C15.7538 11.3672 16.6391 10.2754 15.6817 9.31802C14.7243 8.3606 13.6325 9.2459 13.2068 9.67158L8.25706 14.6213L6.84284 13.2071L11.7926 8.25736C13.4847 6.56526 15.6159 6.42383 17.0959 7.90381C18.5759 9.38378 18.4344 11.515 16.7423 13.2071L11.439 18.5104C9.18549 20.764 6.06291 20.9125 4.01442 18.864Z" fill="#757575"/>
<mask id="mask0" mask-type="alpha" maskUnits="userSpaceOnUse" x="0" y="0" width="25" height="25">
<path fill-rule="evenodd" clip-rule="evenodd" d="M4.01442 18.864C1.96593 16.8155 2.11442 13.6929 4.36797 11.4393L10.3784 5.42893C13.2004 2.60687 17.3038 2.45484 19.9243 5.07538C22.5449 7.69592 22.3928 11.7993 19.5708 14.6213L14.621 19.5711L13.2068 18.1569L18.1566 13.2071C20.205 11.1586 20.3535 8.33302 18.5101 6.48959C16.6667 4.64617 13.8411 4.79466 11.7926 6.84315L5.78218 12.8536C4.5497 14.086 3.9635 15.9846 5.42863 17.4497C6.89376 18.9149 8.79234 18.3287 10.0248 17.0962L15.3281 11.7929C15.7538 11.3672 16.6391 10.2754 15.6817 9.31802C14.7243 8.3606 13.6325 9.2459 13.2068 9.67158L8.25706 14.6213L6.84284 13.2071L11.7926 8.25736C13.4847 6.56526 15.6159 6.42383 17.0959 7.90381C18.5759 9.38378 18.4344 11.515 16.7423 13.2071L11.439 18.5104C9.18549 20.764 6.06291 20.9125 4.01442 18.864Z" fill="white"/>
</mask>
<g mask="url(#mask0)">
<path fill-rule="evenodd" clip-rule="evenodd" d="M0 0H24V24H0V0Z" fill="white"/>
</g>
</svg>
