<svg width="20" height="20" viewBox="0 0 20 20" fill="none" xmlns="http://www.w3.org/2000/svg">
<path fill-rule="evenodd" clip-rule="evenodd" d="M15.0002 2.49998V0.833313H13.3335V5.83331H15.0002V4.16665H17.5002V16.6666H2.50016V4.16665H4.16683V2.49998H2.50016C1.58016 2.49998 0.833496 3.24665 0.833496 4.16665V16.6666C0.833496 17.5866 1.58016 18.3333 2.50016 18.3333H17.5002C18.4202 18.3333 19.1668 17.5866 19.1668 16.6666V4.16665C19.1668 3.24665 18.4202 2.49998 17.5002 2.49998H15.0002ZM6.66683 4.16665H12.5002V2.49998H6.66683V0.833313H5.00016V5.83331H6.66683V4.16665ZM4.16683 7.49998H7.50016V10.8333H4.16683V7.49998ZM11.6668 7.49998H8.3335V10.8333H11.6668V7.49998ZM15.8335 10.8333H12.5002V7.49998H15.8335V10.8333ZM4.16683 15H7.50016V11.6666H4.16683V15ZM11.6668 15H8.3335V11.6666H11.6668V15Z" fill="#738C99" fill-opacity="0.4"/>
<mask id="mask0" mask-type="alpha" maskUnits="userSpaceOnUse" x="0" y="0" width="20" height="19">
<path fill-rule="evenodd" clip-rule="evenodd" d="M15.0002 2.49998V0.833313H13.3335V5.83331H15.0002V4.16665H17.5002V16.6666H2.50016V4.16665H4.16683V2.49998H2.50016C1.58016 2.49998 0.833496 3.24665 0.833496 4.16665V16.6666C0.833496 17.5866 1.58016 18.3333 2.50016 18.3333H17.5002C18.4202 18.3333 19.1668 17.5866 19.1668 16.6666V4.16665C19.1668 3.24665 18.4202 2.49998 17.5002 2.49998H15.0002ZM6.66683 4.16665H12.5002V2.49998H6.66683V0.833313H5.00016V5.83331H6.66683V4.16665ZM4.16683 7.49998H7.50016V10.8333H4.16683V7.49998ZM11.6668 7.49998H8.3335V10.8333H11.6668V7.49998ZM15.8335 10.8333H12.5002V7.49998H15.8335V10.8333ZM4.16683 15H7.50016V11.6666H4.16683V15ZM11.6668 15H8.3335V11.6666H11.6668V15Z" fill="white"/>
</mask>
<g mask="url(#mask0)">
<path fill-rule="evenodd" clip-rule="evenodd" d="M0 0H20V20H0V0Z" fill="#738C99" fill-opacity="0.4"/>
</g>
</svg>
