<svg width="20" height="20" viewBox="0 0 20 20" fill="none" xmlns="http://www.w3.org/2000/svg">
<path fill-rule="evenodd" clip-rule="evenodd" d="M15.0002 2.50001V0.833344H13.3335V5.83334H15.0002V4.16668H17.5002V16.6667H2.50016V4.16668H4.16683V2.50001H2.50016C1.58016 2.50001 0.833496 3.24668 0.833496 4.16668V16.6667C0.833496 17.5867 1.58016 18.3333 2.50016 18.3333H17.5002C18.4202 18.3333 19.1668 17.5867 19.1668 16.6667V4.16668C19.1668 3.24668 18.4202 2.50001 17.5002 2.50001H15.0002ZM6.66683 4.16668H12.5002V2.50001H6.66683V0.833344H5.00016V5.83334H6.66683V4.16668ZM4.16683 7.50001H7.50016V10.8333H4.16683V7.50001ZM11.6668 7.50001H8.3335V10.8333H11.6668V7.50001ZM15.8335 10.8333H12.5002V7.50001H15.8335V10.8333ZM4.16683 15H7.50016V11.6667H4.16683V15ZM11.6668 15H8.3335V11.6667H11.6668V15Z" fill="#738C99" fill-opacity="0.4"/>
<mask id="mask0" mask-type="alpha" maskUnits="userSpaceOnUse" x="0" y="0" width="20" height="19">
<path fill-rule="evenodd" clip-rule="evenodd" d="M15.0002 2.50001V0.833344H13.3335V5.83334H15.0002V4.16668H17.5002V16.6667H2.50016V4.16668H4.16683V2.50001H2.50016C1.58016 2.50001 0.833496 3.24668 0.833496 4.16668V16.6667C0.833496 17.5867 1.58016 18.3333 2.50016 18.3333H17.5002C18.4202 18.3333 19.1668 17.5867 19.1668 16.6667V4.16668C19.1668 3.24668 18.4202 2.50001 17.5002 2.50001H15.0002ZM6.66683 4.16668H12.5002V2.50001H6.66683V0.833344H5.00016V5.83334H6.66683V4.16668ZM4.16683 7.50001H7.50016V10.8333H4.16683V7.50001ZM11.6668 7.50001H8.3335V10.8333H11.6668V7.50001ZM15.8335 10.8333H12.5002V7.50001H15.8335V10.8333ZM4.16683 15H7.50016V11.6667H4.16683V15ZM11.6668 15H8.3335V11.6667H11.6668V15Z" fill="white"/>
</mask>
<g mask="url(#mask0)">
<path fill-rule="evenodd" clip-rule="evenodd" d="M0 0H20V20H0V0Z" fill="#00A3FF"/>
</g>
</svg>
