<svg width="25" height="25" viewBox="0 0 25 25" fill="none" xmlns="http://www.w3.org/2000/svg">
<path fill-rule="evenodd" clip-rule="evenodd" d="M12.4998 21.3233C17.3729 21.3233 21.3233 17.3729 21.3233 12.4998C21.3233 7.6267 17.3729 3.67627 12.4998 3.67627C7.6267 3.67627 3.67627 7.6267 3.67627 12.4998C3.67627 17.3729 7.6267 21.3233 12.4998 21.3233Z" fill="white"/>
<path fill-rule="evenodd" clip-rule="evenodd" d="M12.5 25C19.4036 25 25 19.4036 25 12.5C25 5.59644 19.4036 0 12.5 0C5.59644 0 0 5.59644 0 12.5C0 19.4036 5.59644 25 12.5 25ZM10.5167 16.8565L7.35293 13.692L8.48782 12.5565L10.4621 14.5308L16.3183 8.08825L17.5059 9.16854L10.5167 16.8565Z" fill="#09A5E5"/>
</svg>
