<svg width="26" height="26" viewBox="0 0 26 26" fill="none" xmlns="http://www.w3.org/2000/svg">
<path d="M20.5488 2.2157H9.76453C8.57502 2.2157 7.60767 3.18305 7.60767 4.37256V10.8432H5.45081C4.2613 10.8432 3.29395 11.8105 3.29395 13V22.7059C3.29395 22.9919 3.40757 23.2662 3.60981 23.4685C3.81206 23.6707 4.08636 23.7843 4.37238 23.7843H21.6273C21.9133 23.7843 22.1876 23.6707 22.3898 23.4685C22.5921 23.2662 22.7057 22.9919 22.7057 22.7059V4.37256C22.7057 3.18305 21.7384 2.2157 20.5488 2.2157ZM5.45081 13H11.9214V21.6275H5.45081V13ZM20.5488 21.6275H14.0783V13C14.0783 11.8105 13.1109 10.8432 11.9214 10.8432H9.76453V4.37256H20.5488V21.6275Z" fill="white"/>
<path d="M11.9211 6.52942H14.078V8.68628H11.9211V6.52942ZM16.2349 6.52942H18.3917V8.68628H16.2349V6.52942ZM16.2349 10.8766H18.3917V13H16.2349V10.8766ZM16.2349 15.1569H18.3917V17.3137H16.2349V15.1569ZM7.60742 15.1579H9.76428V17.3148H7.60742V15.1579Z" fill="white"/>
</svg>
