<svg width="65" height="56" viewBox="0 0 65 56" fill="none" xmlns="http://www.w3.org/2000/svg">
<path opacity="0.5" fill-rule="evenodd" clip-rule="evenodd" d="M54.4956 47.1909V32.0232C54.4956 31.5578 54.8729 31.1805 55.3383 31.1805C55.8037 31.1805 56.181 31.5578 56.181 32.0232V47.1909C56.181 49.0528 54.6702 50.5629 52.8094 50.5629H34.9238L30.4743 55.0124C29.1577 56.329 27.0237 56.3294 25.7067 55.0124L21.2572 50.5629H3.3716C1.50953 50.5629 0 49.0527 0 47.1909V3.37197C0 1.5101 1.51086 0 3.3716 0H52.8094C54.6715 0 56.181 1.51017 56.181 3.37197V7.86534C56.181 8.33076 55.8037 8.70806 55.3383 8.70806C54.8729 8.70806 54.4956 8.33076 54.4956 7.86534V3.37197C54.4956 2.44102 53.7407 1.68543 52.8094 1.68543H3.3716C2.44212 1.68543 1.68543 2.44052 1.68543 3.37197V47.1909C1.68543 48.1219 2.44035 48.8775 3.3716 48.8775H21.9554L26.8985 53.8206C27.5574 54.4795 28.6242 54.4789 29.2825 53.8206L34.2256 48.8775H52.8094C53.7389 48.8775 54.4956 48.1224 54.4956 47.1909ZM13.1485 24.4249C12.8194 24.754 12.8194 25.2876 13.1485 25.6167C13.4776 25.9458 14.0111 25.9458 14.3402 25.6167L15.7305 24.2265L17.121 25.617C17.4501 25.9461 17.9837 25.9461 18.3128 25.617C18.6419 25.2879 18.6419 24.7544 18.3128 24.4253L16.9222 23.0347L18.3128 21.6441C18.6419 21.315 18.6419 20.7814 18.3128 20.4523C17.9837 20.1232 17.4502 20.1232 17.1211 20.4523L15.7305 21.8429L14.3402 20.4527C14.0111 20.1236 13.4775 20.1236 13.1484 20.4527C12.8193 20.7818 12.8193 21.3153 13.1484 21.6444L14.5387 23.0347L13.1485 24.4249ZM37.8682 24.4249C37.5391 24.754 37.5391 25.2876 37.8682 25.6167C38.1973 25.9458 38.7309 25.9458 39.06 25.6167L40.4502 24.2265L41.8407 25.617C42.1698 25.9461 42.7034 25.9461 43.0325 25.617C43.3616 25.2879 43.3616 24.7544 43.0325 24.4253L41.642 23.0347L43.0326 21.6441C43.3617 21.315 43.3617 20.7814 43.0326 20.4523C42.7035 20.1232 42.1699 20.1232 41.8408 20.4523L40.4502 21.8429L39.0599 20.4527C38.7308 20.1236 38.1972 20.1236 37.8681 20.4527C37.539 20.7818 37.539 21.3153 37.8681 21.6444L39.2584 23.0347L37.8682 24.4249ZM20.7871 34.5514C20.3216 34.5514 19.9443 34.9287 19.9443 35.3941C19.9443 35.8596 20.3216 36.2369 20.7871 36.2369H35.3941C35.8595 36.2369 36.2368 35.8596 36.2368 35.3941C36.2368 34.9287 35.8595 34.5514 35.3941 34.5514H20.7871Z" fill="#7696A0"/>
<path fill-rule="evenodd" clip-rule="evenodd" d="M57.8664 29.2142C60.6589 29.2142 64.0463 28.0542 64.0463 22.9346C64.0463 17.815 58.4282 10.6744 57.8664 10.6744C57.3046 10.6744 51.6865 17.815 51.6865 22.9346C51.6865 28.0542 55.0739 29.2142 57.8664 29.2142Z" fill="#00A3FF"/>
</svg>
