<svg width="25" height="25" viewBox="0 0 25 25" fill="none" xmlns="http://www.w3.org/2000/svg">
<path fill-rule="evenodd" clip-rule="evenodd" d="M10.3305 11.0362H2.70569C2.32703 11.0362 2 10.7092 2 10.3305V2.70569C2 2.30981 2.30981 2 2.70569 2H10.3305C10.7264 2 11.0362 2.30981 11.0362 2.70569V10.3305C11.0362 10.7264 10.7264 11.0362 10.3305 11.0362ZM9.62485 3.41137H3.41137V9.62485H9.62485V3.41137ZM21.2943 2C21.6902 2 22 2.30981 22 2.70569V10.3305C22 10.7264 21.6902 11.0362 21.2943 11.0362H13.6694C13.2736 11.0362 12.9637 10.7264 12.9637 10.3305V2.70569C12.9637 2.30981 13.2736 2 13.6694 2H21.2943ZM14.3751 9.62485H20.5886V3.41137H14.3751V9.62485ZM2.70569 22H10.3305C10.7264 22 11.0362 21.6902 11.0362 21.2943V13.6695C11.0362 13.2736 10.7264 12.9638 10.3305 12.9638H2.70569C2.30981 12.9638 2 13.2736 2 13.6695V21.2943C2 21.673 2.32703 22 2.70569 22ZM3.41137 14.3751H9.62485V20.5886H3.41137V14.3751ZM13.6694 12.9638H21.2943C21.6729 12.9638 22 13.2908 22 13.6695V21.2943C22 21.6902 21.6902 22 21.2943 22H13.6694C13.2736 22 12.9637 21.6902 12.9637 21.2943V13.6695C12.9637 13.2736 13.2736 12.9638 13.6694 12.9638ZM14.3751 20.5886H20.5886V14.3751H14.3751V20.5886Z" fill="#738C99"/>
</svg>
