<svg width="20" height="20" viewBox="0 0 20 20" fill="none" xmlns="http://www.w3.org/2000/svg">
<path fill-rule="evenodd" clip-rule="evenodd" d="M8.33053 9.03622H0.705686C0.327025 9.03622 0 8.7092 0 8.33053V0.705686C0 0.309813 0.309813 0 0.705686 0H8.33053C8.72641 0 9.03622 0.309813 9.03622 0.705686V8.33053C9.03622 8.72641 8.72641 9.03622 8.33053 9.03622ZM7.62485 1.41137H1.41137V7.62485H7.62485V1.41137ZM19.2943 0C19.6902 0 20 0.309813 20 0.705686V8.33053C20 8.72641 19.6902 9.03622 19.2943 9.03622H11.6694C11.2736 9.03622 10.9637 8.72641 10.9637 8.33053V0.705686C10.9637 0.309813 11.2736 0 11.6694 0H19.2943ZM12.3751 7.62485H18.5886V1.41137H12.3751V7.62485ZM0.705686 20H8.33053C8.72641 20 9.03622 19.6902 9.03622 19.2943V11.6695C9.03622 11.2736 8.72641 10.9638 8.33053 10.9638H0.705686C0.309813 10.9638 0 11.2736 0 11.6695V19.2943C0 19.673 0.327025 20 0.705686 20ZM1.41137 12.3751H7.62485V18.5886H1.41137V12.3751ZM11.6694 10.9638H19.2943C19.6729 10.9638 20 11.2908 20 11.6695V19.2943C20 19.6902 19.6902 20 19.2943 20H11.6694C11.2736 20 10.9637 19.6902 10.9637 19.2943V11.6695C10.9637 11.2736 11.2736 10.9638 11.6694 10.9638ZM12.3751 18.5886H18.5886V12.3751H12.3751V18.5886Z" fill="#00A3FF"/>
</svg>
