<svg width="42" height="42" viewBox="0 0 42 42" fill="none" xmlns="http://www.w3.org/2000/svg">
<path d="M21 41.5C32.3218 41.5 41.5 32.3218 41.5 21C41.5 9.67816 32.3218 0.5 21 0.5C9.67816 0.5 0.5 9.67816 0.5 21C0.5 32.3218 9.67816 41.5 21 41.5Z" stroke="white"/>
<path fill-rule="evenodd" clip-rule="evenodd" d="M21 41C32.0457 41 41 32.0457 41 21C41 9.95431 32.0457 1 21 1C9.95431 1 1 9.95431 1 21C1 32.0457 9.95431 41 21 41Z"/>
<path fill-rule="evenodd" clip-rule="evenodd" d="M21 41C32.0457 41 41 32.0457 41 21C41 9.95431 32.0457 1 21 1C9.95431 1 1 9.95431 1 21C1 32.0457 9.95431 41 21 41Z" fill="#EEEEEE"/>
<g clip-path="url(#clip0)">
<path d="M24.2941 22.7644C23.2389 22.7644 22.7316 23.3526 20.9999 23.3526C19.2683 23.3526 18.7646 22.7644 17.7058 22.7644C14.9779 22.7644 12.7646 24.9776 12.7646 27.7055V28.6467C12.7646 29.621 13.5551 30.4114 14.5294 30.4114H27.4705C28.4448 30.4114 29.2352 29.621 29.2352 28.6467V27.7055C29.2352 24.9776 27.022 22.7644 24.2941 22.7644ZM27.4705 28.6467H14.5294V27.7055C14.5294 25.9555 15.9558 24.5291 17.7058 24.5291C18.2426 24.5291 19.1139 25.1173 20.9999 25.1173C22.9007 25.1173 23.7536 24.5291 24.2941 24.5291C26.0441 24.5291 27.4705 25.9555 27.4705 27.7055V28.6467ZM20.9999 22.1761C23.9227 22.1761 26.2941 19.8048 26.2941 16.882C26.2941 13.9592 23.9227 11.5879 20.9999 11.5879C18.0771 11.5879 15.7058 13.9592 15.7058 16.882C15.7058 19.8048 18.0771 22.1761 20.9999 22.1761ZM20.9999 13.3526C22.9448 13.3526 24.5294 14.9372 24.5294 16.882C24.5294 18.8269 22.9448 20.4114 20.9999 20.4114C19.0551 20.4114 17.4705 18.8269 17.4705 16.882C17.4705 14.9372 19.0551 13.3526 20.9999 13.3526Z" fill="#738C99"/>
</g>
<defs>
<clipPath id="clip0">
<rect width="16.4706" height="18.8235" fill="white" transform="translate(12.7646 11.5879)"/>
</clipPath>
</defs>
</svg>
