<svg width="15" height="15" viewBox="0 0 15 15" fill="none" xmlns="http://www.w3.org/2000/svg">
<path fill-rule="evenodd" clip-rule="evenodd" d="M2.3125 0.5H13.1875C14.188 0.5 15 1.31109 15 2.3125V13.1875C15 14.188 14.188 15 13.1875 15H2.3125C1.312 15 0.5 14.188 0.5 13.1875V2.3125C0.5 1.312 1.312 0.5 2.3125 0.5ZM4.35347 12.2812C4.85372 12.2812 5.25972 11.8752 5.25972 11.375V3.21875C5.25972 2.71759 4.85372 2.3125 4.35347 2.3125H3.21875C2.7185 2.3125 2.3125 2.71759 2.3125 3.21875V11.375C2.3125 11.8752 2.7185 12.2812 3.21875 12.2812H4.35347ZM12.2812 8.65625C12.7815 8.65625 13.1875 8.25025 13.1875 7.75V3.21875C13.1875 2.71759 12.7815 2.3125 12.2812 2.3125H11.1465C10.6463 2.3125 10.2403 2.71759 10.2403 3.21875V7.75C10.2403 8.25025 10.6463 8.65625 11.1465 8.65625H12.2812ZM9.27294 9.81639C9.27294 10.3166 8.86694 10.7226 8.36669 10.7226H7.23197C6.73172 10.7226 6.32572 10.3166 6.32572 9.81639V3.24418C6.32572 2.74302 6.73172 2.33793 7.23197 2.33793H8.36669C8.86694 2.33793 9.27294 2.74302 9.27294 3.24418V9.81639Z" fill="#643C93"/>
</svg>
