<svg width="35" height="35" viewBox="0 0 35 35" fill="none" xmlns="http://www.w3.org/2000/svg">
<path fill-rule="evenodd" clip-rule="evenodd" d="M17.5 35C27.165 35 35 27.165 35 17.5C35 7.83502 27.165 0 17.5 0C7.83502 0 0 7.83502 0 17.5C0 27.165 7.83502 35 17.5 35Z" fill="#007AB0"/>
<rect x="12.4102" y="7.40381" width="2.06938" height="4.16781" rx="1.03469" fill="white"/>
<rect x="20.6172" y="7.40381" width="2.06938" height="4.16781" rx="1.03469" fill="white"/>
<rect x="13.2266" y="15.9551" width="3.47361" height="3.37736" fill="white"/>
<rect x="18.3945" y="15.9551" width="3.47361" height="3.37736" fill="white"/>
<rect x="13.2266" y="20.8413" width="3.47361" height="3.37736" fill="white"/>
<rect x="18.3945" y="20.8413" width="3.47361" height="3.37736" fill="white"/>
<path fill-rule="evenodd" clip-rule="evenodd" d="M19.6543 9.63184H19.6526H15.5196V10.5805C15.5196 11.7234 14.5931 12.6499 13.4502 12.6499C12.3073 12.6499 11.3809 11.7234 11.3809 10.5805V9.63184H9.08398V27.5965H26.0455V9.63184H23.7931V10.5805C23.7931 11.7234 22.8666 12.6499 21.7237 12.6499C20.5808 12.6499 19.6543 11.7234 19.6543 10.5805V9.63184ZM23.8664 14.5181H11.2284V25.5125H23.8664V14.5181Z" fill="white"/>
</svg>
