<svg width="35" height="35" viewBox="0 0 35 35" fill="none" xmlns="http://www.w3.org/2000/svg">
<path fill-rule="evenodd" clip-rule="evenodd" d="M17.5 35C27.165 35 35 27.165 35 17.5C35 7.83502 27.165 0 17.5 0C7.83502 0 0 7.83502 0 17.5C0 27.165 7.83502 35 17.5 35Z" fill="#EC374A"/>
<path d="M8.75 18.1762C8.75 23.0038 12.6724 26.9262 17.5 26.9262C22.3276 26.9262 26.25 23.0038 26.25 18.1762C26.25 15.7792 25.2778 13.5833 23.7021 12.0076L24.3894 11.3204L24.7079 11.6389C24.842 11.773 25.0096 11.84 25.194 11.84C25.3784 11.84 25.546 11.773 25.6801 11.6389C25.9483 11.3707 25.9483 10.9348 25.6801 10.6666L24.0876 9.07421C23.8194 8.80601 23.3836 8.80601 23.1154 9.07421C22.8472 9.3424 22.8472 9.77823 23.1154 10.0464L23.4339 10.3649L22.6796 11.1192C21.4057 10.1805 19.8803 9.59384 18.204 9.45974V8.87306H19.7294C20.1149 8.87306 20.4167 8.57133 20.4167 8.1858C20.4167 7.80026 20.1149 7.49854 19.7294 7.49854H15.2035C14.818 7.49854 14.5163 7.80026 14.5163 8.1858C14.5163 8.57133 14.818 8.87306 15.2035 8.87306H16.8295V9.45974C12.3036 9.81175 8.75 13.5833 8.75 18.1762ZM17.5 10.8007C21.5733 10.8007 24.8922 14.1197 24.8922 18.193C24.8922 22.2663 21.5733 25.5852 17.5 25.5852C13.4267 25.5852 10.1078 22.2663 10.1078 18.193C10.1078 14.1029 13.4267 10.8007 17.5 10.8007Z" fill="white" stroke="white" stroke-width="0.5"/>
<path d="M17.4998 18.7466H20.4332C20.8187 18.7466 21.1205 18.4449 21.1205 18.0593C21.1205 17.6738 20.8187 17.3721 20.4332 17.3721H18.187V13.8352C18.187 13.4497 17.8853 13.1479 17.4998 13.1479C17.1142 13.1479 16.8125 13.4497 16.8125 13.8352V18.0761C16.8125 18.4449 17.1142 18.7466 17.4998 18.7466Z" fill="white" stroke="white" stroke-width="0.5"/>
</svg>
