<svg width="35" height="35" viewBox="0 0 35 35" fill="none" xmlns="http://www.w3.org/2000/svg">
<path fill-rule="evenodd" clip-rule="evenodd" d="M17.5 35C27.165 35 35 27.165 35 17.5C35 7.83502 27.165 0 17.5 0C7.83502 0 0 7.83502 0 17.5C0 27.165 7.83502 35 17.5 35Z" fill="white"/>
<path fill-rule="evenodd" clip-rule="evenodd" d="M17.5 35C27.165 35 35 27.165 35 17.5C35 7.83502 27.165 0 17.5 0C7.83502 0 0 7.83502 0 17.5C0 27.165 7.83502 35 17.5 35Z" fill="#37515E"/>
<path d="M24.8772 10.1056H21.1234V8.77662C21.1234 8.39191 20.8087 8.07715 20.4239 8.07715H14.5795C14.1948 8.07715 13.88 8.39191 13.88 8.77662V12.4566C13.88 12.8413 14.1948 13.1561 14.5795 13.1561H18.9007C19.2854 13.1561 19.6001 12.8413 19.6001 12.4566C19.6001 12.0719 19.2854 11.7571 18.9007 11.7571H15.279V9.47609H19.7284V10.8051C19.7284 11.1898 20.0431 11.5045 20.4278 11.5045H24.1816V25.7038H10.8218V11.5045H11.8904C12.2751 11.5045 12.5899 11.1898 12.5899 10.8051C12.5899 10.4204 12.2751 10.1056 11.8904 10.1056H10.1223C9.73761 10.1056 9.42285 10.4204 9.42285 10.8051V26.4032C9.42285 26.7879 9.73761 27.1027 10.1223 27.1027H24.8772C25.2619 27.1027 25.5767 26.7879 25.5767 26.4032V10.8051C25.5767 10.4204 25.2619 10.1056 24.8772 10.1056Z" fill="white" stroke="white" stroke-width="0.5"/>
<path d="M20.725 16.5101C20.453 16.2342 20.01 16.2342 19.7341 16.5063L16.4738 19.7394L15.2808 18.5386C15.0088 18.2627 14.5658 18.2627 14.2899 18.5347C14.014 18.8067 14.014 19.2497 14.286 19.5256L15.9725 21.2238C16.1086 21.3598 16.2873 21.4297 16.4699 21.4297C16.6487 21.4297 16.8275 21.3637 16.9635 21.2277L20.7212 17.5011C20.9971 17.229 20.9971 16.7861 20.725 16.5101Z" fill="white" stroke="white" stroke-width="0.5"/>
</svg>
