<svg width="12" height="12" viewBox="0 0 12 12" fill="none" xmlns="http://www.w3.org/2000/svg">
<g clip-path="url(#clip0)">
<path fill-rule="evenodd" clip-rule="evenodd" d="M1.36527 7.2565L1.78649 7.67831L0.944039 8.52192L0.522811 8.10011C-0.17427 7.40267 -0.17427 6.26731 0.522811 5.56927L5.57814 0.506975C6.25258 -0.168992 7.43106 -0.168992 8.1061 0.506975L8.52733 0.928783L7.68428 1.7724L7.26365 1.35059C7.15044 1.23783 7.00149 1.17578 6.84182 1.17578C6.68274 1.17578 6.5332 1.23783 6.42119 1.35059L1.36527 6.41288C1.13291 6.64556 1.13291 7.02382 1.36527 7.2565ZM11.0559 3.46063L11.4772 3.88244C11.8144 4.22013 12.0003 4.66997 12.0003 5.14846C12.0003 5.62516 11.8144 6.07501 11.4772 6.41269L6.42185 11.4756C6.08403 11.8139 5.6354 12 5.15757 12C4.68033 12 4.2317 11.8139 3.89388 11.4756L3.47266 11.0538L4.31511 10.2102L4.73634 10.632C4.96155 10.8569 5.35418 10.8569 5.57939 10.632L10.6347 5.56908C10.7467 5.45691 10.8087 5.30656 10.8087 5.14846C10.8087 4.98857 10.7473 4.83941 10.6347 4.72665L10.2129 4.30484L11.0559 3.46063ZM7.26042 5.56949L6.41797 4.72588L10.6308 0.507202L11.4733 1.35082L7.26042 5.56949ZM0.523438 10.6316L1.36589 11.4753L5.57877 7.25658L4.73631 6.41296L0.523438 10.6316Z" fill="#738C99"/>
</g>
<defs>
<clipPath id="clip0">
<rect width="12" height="12" fill="white"/>
</clipPath>
</defs>
</svg>
