<svg width="25" height="25" viewBox="0 0 25 25" fill="none" xmlns="http://www.w3.org/2000/svg">
<path d="M23.7998 17.6667H6.96172C6.85126 17.6667 6.76172 17.7562 6.76172 17.8667V20.6095C6.76172 20.72 6.85126 20.8095 6.96172 20.8095H23.7998C23.9103 20.8095 23.9998 20.72 23.9998 20.6095V17.8667C23.9998 17.7562 23.9103 17.6667 23.7998 17.6667Z" stroke="#00A3FF" stroke-width="1.25"/>
<path d="M23.7998 11.4762H6.96172C6.85126 11.4762 6.76172 11.5657 6.76172 11.6762V14.4191C6.76172 14.5295 6.85126 14.6191 6.96172 14.6191H23.7998C23.9103 14.6191 23.9998 14.5295 23.9998 14.4191V11.6762C23.9998 11.5657 23.9103 11.4762 23.7998 11.4762Z" stroke="#00A3FF" stroke-width="1.25"/>
<path d="M23.7998 5.09525H6.96172C6.85126 5.09525 6.76172 5.18479 6.76172 5.29525V8.0381C6.76172 8.14856 6.85126 8.2381 6.96172 8.2381H23.7998C23.9103 8.2381 23.9998 8.14856 23.9998 8.0381V5.29525C23.9998 5.18479 23.9103 5.09525 23.7998 5.09525Z" stroke="#00A3FF" stroke-width="1.25"/>
<path d="M3.94286 17.7619H1.2C1.08954 17.7619 1 17.8514 1 17.9619V20.7048C1 20.8152 1.08954 20.9048 1.2 20.9048H3.94286C4.05331 20.9048 4.14286 20.8152 4.14286 20.7048V17.9619C4.14286 17.8514 4.05331 17.7619 3.94286 17.7619Z" stroke="#00A3FF" stroke-width="1.25"/>
<path d="M3.94286 11.4762H1.2C1.08954 11.4762 1 11.5657 1 11.6762V14.4191C1 14.5295 1.08954 14.6191 1.2 14.6191H3.94286C4.05331 14.6191 4.14286 14.5295 4.14286 14.4191V11.6762C4.14286 11.5657 4.05331 11.4762 3.94286 11.4762Z" stroke="#00A3FF" stroke-width="1.25"/>
<path d="M3.94286 5.09525H1.2C1.08954 5.09525 1 5.18479 1 5.29525V8.0381C1 8.14856 1.08954 8.2381 1.2 8.2381H3.94286C4.05331 8.2381 4.14286 8.14856 4.14286 8.0381V5.29525C4.14286 5.18479 4.05331 5.09525 3.94286 5.09525Z" stroke="#00A3FF" stroke-width="1.25"/>
</svg>
