<svg width="18" height="18" viewBox="0 0 18 18" fill="none" xmlns="http://www.w3.org/2000/svg">
<path fill-rule="evenodd" clip-rule="evenodd" d="M0.998491 16.7944L3.59118 14.2017C3.06764 13.5306 2.78064 12.7109 2.78064 11.846C2.78064 10.8186 3.1811 9.85282 3.90752 9.12688C4.63345 8.39999 5.59928 8 6.62665 8C7.65401 8 8.61984 8.39999 9.34578 9.12688C10.0722 9.85282 10.4727 10.8186 10.4727 11.846C10.4727 12.8734 10.0722 13.8392 9.34578 14.5651C8.61984 15.292 7.65401 15.692 6.62665 15.692C5.76177 15.692 4.94209 15.4055 4.27097 14.8815L1.67827 17.4737L0.998491 16.7944ZM6.62668 14.7305C7.39733 14.7305 8.12134 14.4305 8.66603 13.8858C9.2112 13.3411 9.51119 12.6167 9.51119 11.846C9.51119 11.0758 9.2112 10.3514 8.66603 9.80666C8.12134 9.26149 7.39733 8.9615 6.62668 8.9615C5.85604 8.9615 5.13203 9.26149 4.58734 9.80666C4.04216 10.3514 3.74218 11.0758 3.74218 11.846C3.74218 12.6167 4.04216 13.3411 4.58734 13.8858C5.13203 14.4305 5.85604 14.7305 6.62668 14.7305Z" fill="white"/>
<path d="M0.998491 16.7944L0.821777 16.9712L0.644876 16.7944L0.821714 16.6176L0.998491 16.7944ZM3.59118 14.2017L3.7883 14.0479L3.92424 14.2222L3.76796 14.3785L3.59118 14.2017ZM3.90752 9.12688L4.08441 9.30354L4.08424 9.30372L3.90752 9.12688ZM9.34578 9.12688L9.16906 9.30372L9.16888 9.30354L9.34578 9.12688ZM9.34578 14.5651L9.16888 14.3885L9.16906 14.3883L9.34578 14.5651ZM4.27097 14.8815L4.0942 14.7047L4.25056 14.5484L4.42482 14.6844L4.27097 14.8815ZM1.67827 17.4737L1.85503 17.6505L1.67832 17.8272L1.50156 17.6505L1.67827 17.4737ZM8.66603 13.8858L8.48925 13.7091L8.48933 13.709L8.66603 13.8858ZM8.66603 9.80666L8.48933 9.98352L8.48918 9.98336L8.66603 9.80666ZM4.58734 9.80666L4.76419 9.98336L4.76404 9.98352L4.58734 9.80666ZM4.58734 13.8858L4.76404 13.709L4.76411 13.7091L4.58734 13.8858ZM0.821714 16.6176L3.41441 14.0249L3.76796 14.3785L1.17527 16.9712L0.821714 16.6176ZM3.39407 14.3555C2.83659 13.6408 2.53064 12.7671 2.53064 11.846H3.03064C3.03064 12.6546 3.2987 13.4203 3.7883 14.0479L3.39407 14.3555ZM2.53064 11.846C2.53064 10.7523 2.95748 9.72285 3.7308 8.95005L4.08424 9.30372C3.40472 9.98278 3.03064 10.885 3.03064 11.846H2.53064ZM3.73062 8.95022C4.50351 8.17632 5.533 7.75 6.62665 7.75V8.25C5.66557 8.25 4.7634 8.62366 4.08441 9.30354L3.73062 8.95022ZM6.62665 7.75C7.7203 7.75 8.74979 8.17632 9.52267 8.95022L9.16888 9.30354C8.4899 8.62366 7.58773 8.25 6.62665 8.25V7.75ZM9.52249 8.95005C10.2958 9.72285 10.7227 10.7523 10.7227 11.846H10.2227C10.2227 10.885 9.84857 9.98278 9.16906 9.30372L9.52249 8.95005ZM10.7227 11.846C10.7227 12.9397 10.2958 13.9692 9.52249 14.742L9.16906 14.3883C9.84857 13.7092 10.2227 12.807 10.2227 11.846H10.7227ZM9.52267 14.7418C8.74979 15.5157 7.7203 15.942 6.62665 15.942V15.442C7.58773 15.442 8.4899 15.0684 9.16888 14.3885L9.52267 14.7418ZM6.62665 15.942C5.7056 15.942 4.83185 15.6366 4.11711 15.0785L4.42482 14.6844C5.05234 15.1744 5.81795 15.442 6.62665 15.442V15.942ZM4.44773 15.0583L1.85503 17.6505L1.50151 17.2969L4.0942 14.7047L4.44773 15.0583ZM1.50156 17.6505L0.821777 16.9712L1.17521 16.6175L1.85499 17.2968L1.50156 17.6505ZM6.62668 14.4805C7.33102 14.4805 7.99144 14.2069 8.48925 13.7091L8.84281 14.0626C8.25124 14.6542 7.46364 14.9805 6.62668 14.9805V14.4805ZM8.48933 13.709C8.98753 13.2112 9.26119 12.5504 9.26119 11.846H9.76119C9.76119 12.6829 9.43488 13.4711 8.84273 14.0627L8.48933 13.709ZM9.26119 11.846C9.26119 11.1421 8.98754 10.4813 8.48933 9.98352L8.84273 9.62981C9.43486 10.2214 9.76119 11.0095 9.76119 11.846H9.26119ZM8.48918 9.98336C7.99139 9.48514 7.33101 9.2115 6.62668 9.2115V8.7115C7.46365 8.7115 8.25129 9.03785 8.84289 9.62997L8.48918 9.98336ZM6.62668 9.2115C5.92236 9.2115 5.26198 9.48514 4.76419 9.98336L4.41048 9.62997C5.00208 9.03785 5.78972 8.7115 6.62668 8.7115V9.2115ZM4.76404 9.98352C4.26583 10.4813 3.99218 11.1421 3.99218 11.846H3.49218C3.49218 11.0095 3.8185 10.2214 4.41064 9.62981L4.76404 9.98352ZM3.99218 11.846C3.99218 12.5504 4.26584 13.2112 4.76404 13.709L4.41064 14.0627C3.81849 13.4711 3.49218 12.6829 3.49218 11.846H3.99218ZM4.76411 13.7091C5.26192 14.2069 5.92235 14.4805 6.62668 14.4805V14.9805C5.78973 14.9805 5.00213 14.6542 4.41056 14.0626L4.76411 13.7091Z" fill="white"/>
<path fill-rule="evenodd" clip-rule="evenodd" d="M13.5891 0H5.1165C4.1238 0 3.3165 0.8082 3.3165 1.8L3.31641 6.30018H5.11641L5.1165 1.8H12.3165V5.4H15.9165L15.9174 16.2H9.30256V18H15.9165C16.9092 18 17.7165 17.1927 17.7165 16.2V4.1274L13.5891 0Z" fill="white"/>
</svg>
