<svg width="15" height="15" viewBox="0 0 15 15" fill="none" xmlns="http://www.w3.org/2000/svg">
<path fill-rule="evenodd" clip-rule="evenodd" d="M2.3125 0.5H13.1875C14.188 0.5 15 1.31109 15 2.3125V13.1875C15 14.188 14.188 15 13.1875 15H2.3125C1.312 15 0.5 14.188 0.5 13.1875V2.3125C0.5 1.312 1.312 0.5 2.3125 0.5ZM2.5 4C2.22386 4 2 4.22386 2 4.5V5.66326C2 5.9394 2.22386 6.16326 2.5 6.16326H9.07141C9.34755 6.16326 9.57141 5.9394 9.57141 5.66326V4.5C9.57141 4.22386 9.34755 4 9.07141 4H2.5ZM3.62243 7.20407C3.62243 6.92793 3.84629 6.70407 4.12243 6.70407H10.6938C10.97 6.70407 11.1938 6.92793 11.1938 7.20407V8.36733C11.1938 8.64347 10.97 8.86733 10.6938 8.86733H4.12243C3.84629 8.86733 3.62243 8.64347 3.62243 8.36733V7.20407ZM6.28571 9.40814C6.00956 9.40814 5.78571 9.632 5.78571 9.90814V11.0714C5.78571 11.3475 6.00956 11.5714 6.28571 11.5714H12.8571C13.1333 11.5714 13.3571 11.3475 13.3571 11.0714V9.90814C13.3571 9.632 13.1333 9.40814 12.8571 9.40814H6.28571Z" fill="#1174FF"/>
</svg>
