<svg width="25" height="25" viewBox="0 0 25 25" fill="none" xmlns="http://www.w3.org/2000/svg">
<path fill-rule="evenodd" clip-rule="evenodd" d="M12.4998 21.3233C17.3729 21.3233 21.3233 17.3729 21.3233 12.4998C21.3233 7.6267 17.3729 3.67627 12.4998 3.67627C7.6267 3.67627 3.67627 7.6267 3.67627 12.4998C3.67627 17.3729 7.6267 21.3233 12.4998 21.3233Z" fill="white"/>
<path fill-rule="evenodd" clip-rule="evenodd" d="M12.5 25C19.4036 25 25 19.4036 25 12.5C25 5.59644 19.4036 0 12.5 0C5.59644 0 0 5.59644 0 12.5C0 19.4036 5.59644 25 12.5 25ZM13.9706 11.7648H9.55881V13.2354H13.9706V11.7648ZM9.55881 16.1765H15.4412V14.7059H9.55881V16.1765ZM16.9124 18.3823H8.08818V6.61762H13.9705V9.55879H16.9117L16.9124 18.3823ZM15.0103 5.14699H8.08821C7.27718 5.14699 6.61762 5.80728 6.61762 6.61757V18.3823C6.61762 19.1933 7.27718 19.8529 8.08821 19.8529H16.9117C17.7228 19.8529 18.3823 19.1933 18.3823 18.3823V8.51904L15.0103 5.14699Z" fill="#37515E"/>
</svg>
