<svg width="25" height="25" viewBox="0 0 25 25" fill="none" xmlns="http://www.w3.org/2000/svg">
<path fill-rule="evenodd" clip-rule="evenodd" d="M12.4998 21.3233C17.3729 21.3233 21.3233 17.3729 21.3233 12.4998C21.3233 7.6267 17.3729 3.67627 12.4998 3.67627C7.6267 3.67627 3.67627 7.6267 3.67627 12.4998C3.67627 17.3729 7.6267 21.3233 12.4998 21.3233Z" fill="white"/>
<path fill-rule="evenodd" clip-rule="evenodd" d="M12.5 25C19.4036 25 25 19.4036 25 12.5C25 5.59644 19.4036 0 12.5 0C5.59644 0 0 5.59644 0 12.5C0 19.4036 5.59644 25 12.5 25ZM13.9705 6.61742V6.98506V7.35271V8.08801H10.2948V7.35271V6.98506V6.61742H8.08819V6.98506V7.35271V8.08801H6.6176V18.3821H17.647V8.08801H16.1764V7.35271V6.98506V6.61742H13.9705ZM14.7058 8.82414H15.4411V7.35281H14.7058V8.82414ZM8.82347 8.82414H9.55877V7.35281H8.82347V8.82414ZM7.35291 17.647H16.9125V10.2941H7.35291V17.647ZM10.2941 12.5H11.7647V11.0294H10.2941V12.5ZM12.5 12.5H13.9706V11.0294H12.5V12.5ZM14.7059 12.5H16.1765V11.0294H14.7059V12.5ZM8.08818 14.7058H9.55877V13.2352H8.08818V14.7058ZM10.2941 14.7058H11.7647V13.2352H10.2941V14.7058ZM12.5 14.7058H13.9706V13.2352H12.5V14.7058ZM14.7059 14.7058H16.1765V13.2352H14.7059V14.7058ZM8.08818 16.9118H9.55877V15.4413H8.08818V16.9118ZM10.2941 16.9118H11.7647V15.4413H10.2941V16.9118ZM12.5 16.9118H13.9706V15.4413H12.5V16.9118Z" fill="#007AB0"/>
</svg>
