<svg width="8" height="26" viewBox="0 0 8 26" fill="none" xmlns="http://www.w3.org/2000/svg">
<path d="M6.16658 12.9987C6.16658 11.8021 5.19654 10.832 3.99992 10.832C2.8033 10.832 1.83325 11.8021 1.83325 12.9987C1.83325 14.1953 2.8033 15.1654 3.99992 15.1654C5.19654 15.1654 6.16658 14.1953 6.16658 12.9987Z" fill="#738C99"/>
<path d="M6.16658 5.41667C6.16658 4.22005 5.19654 3.25 3.99992 3.25C2.8033 3.25 1.83325 4.22005 1.83325 5.41667C1.83325 6.61328 2.8033 7.58333 3.99992 7.58333C5.19654 7.58333 6.16658 6.61328 6.16658 5.41667Z" fill="#738C99"/>
<path d="M6.16658 20.5846C6.16658 19.388 5.19654 18.418 3.99992 18.418C2.8033 18.418 1.83325 19.388 1.83325 20.5846C1.83325 21.7813 2.8033 22.7513 3.99992 22.7513C5.19654 22.7513 6.16658 21.7813 6.16658 20.5846Z" fill="#738C99"/>
</svg>
