<svg width="34" height="34" viewBox="0 0 34 34" fill="none" xmlns="http://www.w3.org/2000/svg">
<path fill-rule="evenodd" clip-rule="evenodd" d="M17 34C26.3888 34 34 26.3888 34 17C34 7.61116 26.3888 0 17 0C7.61116 0 0 7.61116 0 17C0 26.3888 7.61116 34 17 34Z" fill="white"/>
<path d="M8 17.9922C8 22.962 12.0345 27 17 27C21.9655 27 26 22.962 26 17.9922C26 15.5246 25 13.264 23.3793 11.6419L24.0862 10.9344L24.4138 11.2623C24.5517 11.4003 24.7241 11.4694 24.9138 11.4694C25.1034 11.4694 25.2759 11.4003 25.4138 11.2623C25.6897 10.9862 25.6897 10.5375 25.4138 10.2614L23.7759 8.62209C23.5 8.34599 23.0517 8.34599 22.7759 8.62209C22.5 8.89819 22.5 9.34685 22.7759 9.62295L23.1034 9.95082L22.3276 10.7274C21.0172 9.761 19.4483 9.15703 17.7241 9.01898V8.41501H19.2931C19.6897 8.41501 20 8.1044 20 7.70751C20 7.31061 19.6897 7 19.2931 7H14.6379C14.2414 7 13.931 7.31061 13.931 7.70751C13.931 8.1044 14.2414 8.41501 14.6379 8.41501H16.3103V9.01898C11.6552 9.38136 8 13.264 8 17.9922ZM17 10.3995C21.1897 10.3995 24.6034 13.8162 24.6034 18.0095C24.6034 22.2028 21.1897 25.6195 17 25.6195C12.8103 25.6195 9.39655 22.2028 9.39655 18.0095C9.39655 13.799 12.8103 10.3995 17 10.3995Z" fill="#EC374A" stroke="#EC374A" stroke-width="0.25"/>
<path d="M16.9991 18.58H20.0164C20.4129 18.58 20.7233 18.2694 20.7233 17.8725C20.7233 17.4756 20.4129 17.165 20.0164 17.165H17.706V13.5239C17.706 13.127 17.3957 12.8164 16.9991 12.8164C16.6026 12.8164 16.2922 13.127 16.2922 13.5239V17.8897C16.2922 18.2694 16.6026 18.58 16.9991 18.58Z" fill="#EC374A" stroke="#EC374A" stroke-width="0.25"/>
</svg>
