<svg width="12" height="12" viewBox="0 0 12 12" fill="none" xmlns="http://www.w3.org/2000/svg">
<path fill-rule="evenodd" clip-rule="evenodd" d="M0.900271 10.1886C-0.378665 8.90963 -0.285956 6.96009 1.12101 5.55313L4.87351 1.80063C6.63542 0.038725 9.19727 -0.0561911 10.8334 1.5799C12.4694 3.21599 12.3746 5.77784 10.6126 7.53975L7.52233 10.6301L6.63939 9.7471L9.72968 6.6568C11.0086 5.37787 11.1014 3.61375 9.95042 2.46283C8.79951 1.31192 7.03538 1.40463 5.75645 2.68358L2.00395 6.43607C1.23447 7.20556 0.868487 8.3909 1.78321 9.30563C2.69794 10.2203 3.88329 9.85437 4.65277 9.0849L7.9638 5.77387C8.22957 5.5081 8.78229 4.82647 8.18453 4.22872C7.58678 3.63097 6.90515 4.18369 6.63939 4.44945L3.5491 7.53975L2.66616 6.6568L5.75645 3.56651C6.81289 2.51007 8.14347 2.42178 9.06748 3.34578C9.99147 4.26978 9.90318 5.60036 8.84674 6.6568L5.53572 9.96783C4.12875 11.3748 2.17922 11.4675 0.900271 10.1886Z" fill="#738C99"/>
</svg>
