<?xml version="1.0" standalone="no"?>
<!DOCTYPE svg PUBLIC "-//W3C//DTD SVG 1.1//EN" "http://www.w3.org/Graphics/SVG/1.1/DTD/svg11.dtd" >
<svg xmlns="http://www.w3.org/2000/svg" xmlns:xlink="http://www.w3.org/1999/xlink" version="1.1">
<metadata></metadata>
<defs>
<font id="icons0lk9" horiz-adv-x="512" >
<font-face units-per-em="512" ascent="480" descent="-32" />
<missing-glyph horiz-adv-x="500" />
<glyph horiz-adv-x="0" />
<glyph unicode="a" d="M213 341v128l-213 -213l213 -213v128q6 1 17 2t42 3t59 1.5t62.5 -5t59.5 -14t42 -28.5t17 -45q0 60 -27.5 108t-65 75t-83 44.5t-76 23t-47.5 5.5z" />
<glyph unicode="b" d="M303 416l113 -113l-225 -226l-114 114zM503 435l-68 68q-10 9 -23 9t-23 -9l-45 -46l113 -113l46 45q9 10 9 23t-9 23zM0 0l147 34l-113 113z" />
<glyph unicode="c" d="M448 352h-32v-32q0 -37 -29.5 -66.5t-66.5 -29.5h-147l-45 -45v-19q0 -24 20 -44t44 -20h160l96 -96v96q24 0 44 20t20 44v128q0 24 -20 44t-44 20zM160 256h160q24 0 44 20t20 44v128q0 24 -20 44t-44 20h-256q-24 0 -44 -20t-20 -44v-128q0 -24 20 -44t44 -20v-96z" />
<glyph unicode="d" d="M512 439l-73 73l-183 -183l-183 183l-73 -73l183 -183l-183 -183l73 -73l183 183l183 -183l73 73l-183 183z" />
<glyph unicode="e" d="M160 160l-32 32l-32 -32l64 -64l96 96l-32 32zM160 352l-32 32l-32 -32l64 -64l96 96l-32 32zM288 352h128v-32h-128v32zM288 160h128v-32h-128v32zM464 512h-416q-20 0 -34 -14t-14 -34v-416q0 -20 14 -34t34 -14h416q20 0 34 14t14 34v416q0 20 -14 34t-34 14zM480 48 q0 -16 -16 -16h-416q-16 0 -16 16v416q0 16 16 16h416q16 0 16 -16v-416z" />
<glyph unicode="f" d="M299 386q0 32 -32 32q-33 0 -33 -32q0 -33 33 -33q32 0 32 33zM292 170v152q0 6 -5 6h-70q-6 0 -6 -6v-25q0 -6 6 -6h25v-121h-25q-6 0 -6 -6v-25q0 -6 6 -6h100q6 0 6 6v25q0 6 -6 6h-25zM75 437q-75 -75 -75 -181t75 -181t181 -75t181 75t75 181t-75 181t-181 75 t-181 -75zM102 101q-65 65 -65 155t65 154q64 65 154 65t154 -65q65 -64 65 -154t-65 -155q-64 -64 -154 -64t-154 64z" />
<glyph unicode="g" d="M111 512h-96q-15 0 -15 -15v-96q0 -17 15 -17h96q17 0 17 17v96q0 15 -17 15zM111 321h-96q-15 0 -15 -17v-96q0 -17 15 -17h96q17 0 17 17v96q0 17 -17 17zM111 128h-96q-15 0 -15 -17v-96q0 -15 15 -15h96q17 0 17 15v96q0 17 -17 17zM304 512h-96q-17 0 -17 -15v-96 q0 -17 17 -17h96q17 0 17 17v96q0 15 -17 15zM304 321h-96q-17 0 -17 -17v-96q0 -17 17 -17h96q17 0 17 17v96q0 17 -17 17zM304 128h-96q-17 0 -17 -17v-96q0 -15 17 -15h96q17 0 17 15v96q0 17 -17 17zM497 512h-96q-17 0 -17 -15v-96q0 -17 17 -17h96q15 0 15 17v96 q0 15 -15 15zM497 321h-96q-17 0 -17 -17v-96q0 -17 17 -17h96q15 0 15 17v96q0 17 -15 17zM497 128h-96q-17 0 -17 -17v-96q0 -15 17 -15h96q15 0 15 15v96q0 17 -15 17z" />
<glyph unicode="h" d="M289 145l-48 22v39q13 11 17 48q7 -2 13.5 7.5t6.5 16.5q0 30 -13 28q4 39 4 43q-2 24 -24 43.5t-52 19.5q-32 0 -53 -19.5t-25 -43.5q0 -4 4 -43q-13 2 -13 -28q0 -7 6.5 -16.5t13.5 -7.5l17 -48v-39q-8 -6 -48 -22q-8 -4 -25.5 -11.5t-27 -12t-19.5 -11t-14 -12.5 q-5 -9 -7 -33t-2 -43v-22h384q2 80 -9 98q-4 8 -16 15.5t-37 17.5t-33 14zM447 449v63h-63v-63h-63v-65h63v-63h63v63h65v65h-65z" />
<glyph unicode="i" d="M108 24q-30 0 -58 27l-2 3q-37 36 -45 63q-15 53 45 107q23 20 73 70.5t71 70.5q13 13 28 27.5t33.5 32.5t29.5 28q43 39 76 34t81 -50q54 -50 68 -99t-12 -74q-11 -12 -210 -211q-16 -14 -32 0q-16 16 0 32q0 1 43 43t94.5 93.5t69.5 72.5q4 8 5 20.5t-13.5 37.5 t-43.5 52q-6 5 -16.5 15.5l-14.5 14.5t-12 8.5t-14.5 2.5t-16 -7.5t-20.5 -16.5q-15 -15 -45.5 -44t-45.5 -44q-31 -30 -82 -80t-61 -60q-26 -26 -30 -47.5t3.5 -32.5t21.5 -24q3 -2 4 -3l3 -3q14 -13 24.5 -13.5t30.5 16.5q21 21 39 38q141 133 161 158q18 21 7 31 q-15 12 -39 -16l-28.5 -28.5l-29.5 -29.5t-28 -27.5t-25 -24.5t-20 -19t-14 -13l-5 -5q-17 -15 -33 1q-15 15 1 32q1 0 24 21.5t59.5 57.5t65.5 66q19 20 39.5 28t35.5 4.5t27 -13.5q19 -19 17.5 -46t-18.5 -47q-16 -20 -165 -163q-34 -32 -38 -36q-33 -31 -63 -31z" />
<glyph unicode="j" d="M416 230q0 22 -0.5 35.5t-2.5 39t-6.5 42.5t-13.5 39t-21.5 36.5t-32 27t-44.5 17.5q0 1 0.5 2.5t0.5 2.5q0 16 -12 28t-28 12t-28 -12t-12 -28q0 -1 0.5 -2.5t0.5 -2.5q-25 -5 -44.5 -17.5t-32 -27t-21.5 -36.5t-13.5 -39t-6.5 -42.5t-2.5 -39t-0.5 -35.5q0 -36 -20 -66 t-40 -42l-20 -13v-41h480v41q-3 2 -8.5 5t-19.5 14.5t-24.5 24t-19 33.5t-8.5 44zM222 0h68q14 0 24.5 10t10.5 24h-138q0 -14 10.5 -24t24.5 -10z" />
<glyph unicode="k" d="M461 512v-512l-410 256z" />
<glyph unicode="l" d="M64 0h128l256 256l-256 256h-126l256 -256z" />
<glyph unicode="m" d="M64 512h-32q-14 0 -23 -9t-9 -23v-448q0 -14 9 -23t23 -9h32q14 0 23 9t9 23v448q0 14 -9 23t-23 9zM512 416h-256v64h-128v-256h128v-64h256l-64 128z" />
<glyph unicode="n" d="M224 400l-56 64h-168v-416h512v352h-288z" />
<glyph unicode="o" d="M379 135q-32 0 -62.5 16.5t-41.5 28.5t-16 19q-10 15 6 26q16 10 29 -5q0 -2 10 -13t31.5 -23t43.5 -12q38 0 65 24.5t27 59.5t-27 59.5t-65 24.5q-14 0 -27.5 -7t-29 -24t-23.5 -27.5t-26 -35.5q-25 -37 -40 -55.5t-43 -37t-57 -18.5q-55 0 -94 35.5t-39 85.5t39 85.5 t94 35.5q21 0 40 -7.5t31 -18t21.5 -22.5t13.5 -19t5 -9q4 -8 0.5 -15t-11.5 -10q-18 -7 -27 10q-3 6 -8.5 15t-24.5 24t-40 15q-38 0 -65 -24.5t-27 -59.5t27 -59.5t65 -24.5q14 0 27.5 7t29 24t23.5 27.5t26 35.5q25 37 40 55.5t43 37t57 18.5q55 0 94 -35.5t39 -85.5 t-39 -85.5t-94 -35.5z" />
<glyph unicode="p" d="M0 114h910v57h-910v-57zM0 0h683v57h-683v-57zM0 228h910v56h-910v-56zM0 341h910v57h-910v-57zM0 512v-57h910v57h-910z" />
<glyph unicode="q" d="M0 464v-32h512v32h-512zM0 368h512v32h-512v-32zM0 304h512v32h-512v-32zM0 240h512v32h-512v-32zM0 176h512v32h-512v-32zM0 112h512v32h-512v-32zM0 48h512v32h-512v-32z" />
<glyph unicode="r" d="M488 472q-17 10 -36.5 7.5t-31.5 -16.5l-247 -292l-82 90q-13 13 -32.5 15.5t-35.5 -8.5t-18.5 -28t10.5 -31l161 -177l322 381q12 14 9 31.5t-19 27.5z" />
<glyph unicode="s" d="M256 0l256 256l-256 256l-256 -256z" />
<glyph unicode="t" d="M59 315q-25 0 -42 -17t-17 -42t17 -42t42 -17t42 17t17 42t-17 42t-42 17zM256 315q-25 0 -42 -17t-17 -42t17 -42t42 -17t42 17t17 42t-17 42t-42 17zM453 315q-25 0 -42 -17t-17 -42t17 -42t42 -17t42 17t17 42t-17 42t-42 17z" />
<glyph unicode="u" d="M512 432h-512v-32h512v32zM0 80h512v32h-512v-32zM39 336h-39v-160h34v100l58 -100h41v160h-34v-113zM265 303v33h-103v-160h104v26h-69v42h59v22h-59v37h68zM450 222l-23 113h-45l-24 -116l-25 117h-40l35 -160h49l27 116l26 -116h46l36 160h-38z" />
<glyph unicode="v" d="M410 239v171h-171l65 -66l-105 -105h-199v-239h239v197l106 106zM171 68h-103v103h103v-103zM34 307h-34v-34h34v34zM34 375h-34v-34h34v34zM34 444h-34v-34h34v34zM34 512h-34v-34h34v34zM478 68h34v34h-34v-34zM478 137h34v34h-34v-34zM478 205h34v34h-34v-34zM478 273 h34v34h-34v-34zM478 341h34v34h-34v-34zM478 410h34v34h-34v-34zM478 512v-34h34v34h-34zM410 478h34v34h-34v-34zM375 512h-34v-34h34v34zM307 512h-34v-34h34v34zM239 512h-34v-34h34v34zM171 512h-34v-34h34v34zM102 512h-34v-34h34v34zM273 0h34v34h-34v-34zM341 0h34 v34h-34v-34zM410 0h34v34h-34v-34zM478 0h34v34h-34v-34z" />
<glyph unicode="w" d="M512 299h-213v213h-86v-213h-213v-86h213v-213h86v213h213v86z" />
<glyph unicode="x" d="M199 296h-57v-53h57v53zM284 296h-56v-53h56v53zM370 296h-57v-53h57v53zM427 431l1 55q0 6 -11.5 16t-18.5 10h-28q-7 0 -18 -10.5t-11 -16.5v-54h-170v54q0 6 -11 16.5t-18 10.5h-28q-7 0 -18 -10.5t-11 -16.5v-54h-85v-431h512v431h-85zM370 485h28v-81h-28v81z M114 485h28v-81h-28v81zM484 27h-456v323h456v-323zM455 296h-57v-53h57v53zM199 216h-57v-54h57v54zM284 216h-56v-54h56v54zM370 216h-57v-54h57v54zM455 216h-57v-54h57v54zM199 135h-57v-54h57v54zM284 135h-56v-54h56v54zM370 135h-57v-54h57v54zM455 135h-57v-54h57 v54zM114 216h-57v-54h57v54zM114 135h-57v-54h57v54z" />
<glyph unicode="y" d="M505 81l-3 3l-123 123q27 48 27 101q1 84 -58.5 143.5t-143.5 60.5h-1q-84 0 -143 -59t-60 -143t58.5 -143.5t143.5 -60.5h1q55 0 102 28l123 -124l4 -3q7 -7 16.5 -7t16.5 7l40 40q16 16 0 34zM202 158q-62 0 -106.5 44.5t-43.5 107.5q0 62 44.5 106t106.5 44h1 q62 0 107 -45q43 -45 43 -107q0 -63 -45 -106q-42 -44 -106 -44h-1z" />
<glyph unicode="z" d="M239 108q3 5 10.5 9.5t14.5 7.5t20 8t20 8l34 15l1 27q-11 8 -14 33q-5 -1 -9.5 5t-4.5 11q0 23 9 21q-3 21 -2 29q2 18 17.5 31.5t38.5 13.5t38.5 -13.5t17.5 -31.5q0 -11 -3 -29q5 1 7.5 -7t1.5 -14q0 -5 -4.5 -11t-9.5 -5q-1 -11 -4.5 -19.5t-5.5 -10.5l-3 -3v-27 q7 -4 35 -15q7 -3 20.5 -8t20 -8t13.5 -7.5t10 -9.5q1 -2 4 -27h-278q3 23 5 27zM307 198q-18 15 -20 33q0 24 6 33q-2 16 -1 21q2 27 25 48t57 21q33 0 57 -22v45h-233l-47 54h-151v-350h207v3q3 29 9 38q11 17 59 36q3 1 15.5 5t15.5 5z" />
<glyph unicode="A" d="M423 325v81h-235l-46 52h-137v-339h229q5 15 15 22q-50 0 -49 53q1 46 46 46q-35 36 1 71q19 16 36.5 15.5t29.5 -14.5q0 18 11 34t40 15q46 -1 49 -45zM492 222h-40q-3 10 -9 21l26 26q11 11 0 22l-11 11q-11 11 -22 0l-27 -27q-14 8 -23 10v34q0 7 -4.5 11.5t-10.5 4.5 h-16q-6 0 -10.5 -4.5t-4.5 -11.5v-34q-18 -6 -26 -11l-22 22q-11 11 -22 0l-11 -11q-11 -11 0 -22l23 -22q-8 -15 -11 -27h-29q-16 0 -16 -16v-15q0 -16 16 -16h31q4 -11 13 -26l-21 -21q-11 -11 0 -22l11 -11q11 -11 22 0l24 23q9 -4 25 -8v-32q0 -16 16 -16h15q16 0 16 16 v36q8 3 22 11l25 -25q11 -11 22 0l11 11q11 11 0 22l-27 28q6 14 7 22h38q6 0 10.5 4.5t4.5 10.5v16q0 7 -4.5 11.5t-10.5 4.5zM363 155q-16 0 -27.5 11.5t-11.5 27.5t11 27.5t28 11.5q16 0 27.5 -11.5t11.5 -27.5t-11.5 -27.5t-27.5 -11.5z" />
<glyph unicode="B" d="M413 344l6 4l22 23q10 9 11 21.5t-7 20.5t-20.5 7t-21.5 -11l-23 -22l-5 -8q-34 22 -71 31v38h16q16 0 16 16v32q0 16 -16 16h-128q-16 0 -16 -16v-32q0 -16 16 -16h16v-38q-36 -8 -67 -29l-4 6l-22 22q-10 10 -22.5 11t-19.5 -7q-8 -8 -7 -20.5t10 -21.5l23 -23l2 -2 q-53 -58 -53 -138q0 -86 61 -147t147 -61t147 61t61 147q0 79 -51 136zM256 32q-73 0 -124.5 51.5t-51.5 124.5t51.5 124.5t124.5 51.5t124.5 -51.5t51.5 -124.5t-51.5 -124.5t-124.5 -51.5zM256 320q-46 0 -79 -33t-33 -79t33 -79t79 -33t79 33t33 79t-33 79t-79 33z M272 192h-32v96h32v-96z" />
<glyph unicode="C" d="M228 251v-165h60v221h-45l-64 -18l12 -47zM427 428l-2 67q0 7 -4.5 11.5t-10.5 4.5h-63q-6 0 -6 -26v-57h-170l2 67q0 16 -16 16h-63q-9 0 -9 -26v-57h-85v-427h512v427h-85zM370 485h28v-86h-28v86zM114 485l28 -6v-80h-28v86zM484 30h-456v341h456v-341z" />
<glyph unicode="D" d="M495 410h-120v34q0 24 -5 39t-17 20.5t-20.5 7t-25.5 1.5h-102q-24 0 -39 -5t-20.5 -17t-7 -20.5t-1.5 -25.5v-2v-3v-2v-8v-19h-120q-7 0 -12 -5t-5 -12v-35q0 -7 5 -12t12 -5h478q7 0 12 5t5 12v35q0 7 -5 12t-12 5zM307 410h-102v34h102v-34zM375 304v-219q0 -7 -5 -12 t-12 -5t-12 5t-5 12v219l1 3h-70l1 -3v-219q0 -7 -5 -12t-12 -5t-12 5t-5 12v219l1 3h-70l1 -3v-219q0 -7 -5 -12t-12 -5t-12 5t-5 12v219v3h-69v-290q0 -7 5 -12t12 -5h342q7 0 12 5t5 12v290h-69v-3z" />
<glyph horiz-adv-x="0" />
<glyph unicode="E" d="M427 428l-2 67q0 7 -4.5 11.5t-10.5 4.5h-63q-6 0 -6 -26v-57h-170l2 67q0 16 -16 16h-63q-9 0 -9 -26v-57h-85v-427h512v427h-85zM370 485h28v-86h-28v86zM114 485h28v-86h-28v86zM484 30h-456v341h456v-341zM181 92h69l110 170v58h-171v-57h90z" />
<glyph horiz-adv-x="0" />
<glyph horiz-adv-x="0" />
<glyph horiz-adv-x="0" />
<glyph unicode="F" d="M0 448v-128l256 -256l256 256v126l-256 -256z" />
<glyph unicode="G" d="M448 512h-128l-256 -256l256 -256h126l-256 256z" />
<glyph unicode="H" d="M461 256l-410 -256v512z" />
<glyph unicode="I" d="M352 304q0 -40 -28 -68t-68 -28t-68 28t-28 68h-112l41 96h334l41 -96h-112zM444 432h-376l-68 -160v-192h512v192z" />
<glyph unicode="J" d="M228 484l-228 -228h57l227 228h-56zM0 256l228 -227h56l-227 227h-57zM455 484l-227 -228h56l228 228h-57zM228 256l227 -227h57l-228 227h-56z" />
<glyph unicode="K" d="M256 51l-256 410h512z" />
<glyph unicode="L" d="M256 461l256 -410h-512z" />
<glyph unicode="M" d="M256 322l256 -256v126l-256 256l-256 -256v-128z" />
<glyph unicode="N" d="M405 173l-66 -66l-83 83l-83 -83l-66 66l83 83l-83 83l66 66l83 -83l83 83l66 -66l-83 -83zM75 437q-75 -75 -75 -181t75 -181t181 -75t181 75t75 181t-75 181t-181 75t-181 -75z" />
<glyph unicode="O" d="M128 512v-96h-96v-416h352v96h96v311l-105 105h-247zM160 480h192v-96h96v-256h-288v352zM384 457l41 -41h-41v41zM64 384h64v-288h224v-64h-288v352z" />
<glyph unicode="P" d="M16 512q-16 0 -16 -16v-192q0 -16 16 -16h192q16 0 16 16v192q0 16 -16 16h-192zM304 512q-16 0 -16 -16v-192q0 -16 16 -16h192q16 0 16 16v192q0 16 -16 16h-192zM16 224q-16 0 -16 -16v-192q0 -16 16 -16h192q16 0 16 16v192q0 16 -16 16h-192zM304 224q-16 0 -16 -16 v-192q0 -16 16 -16h192q16 0 16 16v192q0 16 -16 16h-192z" />
<glyph unicode="Q" d="M141 425q-63 -55 -74 -137h-67l96 -128l96 128h-61q11 55 55 91q45 37 102 37q66 0 113 -47t47 -113t-47 -113t-113 -47v-64q93 0 158 66q66 65 66 158t-66 158q-65 66 -158 66q-84 0 -147 -55zM256 352v-128h128v32h-96v96h-32z" />
<glyph unicode="R" d="M497 287q-16 13 -37 13h-261q-21 0 -26 11q-4 11 11 26l74 74q15 15 17 35t-11 33t-33 11q-20 -1 -35 -17l-181 -180q-15 -15 -15 -37t15 -37l181 -180q15 -16 35 -17q20 -2 33 11t11 33t-17 35l-74 74q-15 15 -11 26q5 11 26 11h261q21 0 37 13q15 13 15 31t-15 31z" />
<glyph unicode="S" d="M177 154l181 181l-23 23l-181 -181zM222 154l-90 -90l-68 68l90 90l46 45q-19 19 -46 19q-26 0 -45 -19l-90 -90q-19 -19 -19 -45q0 -27 19 -46l68 -67q18 -19 45 -19q26 0 45 19l90 90q19 19 19 45q0 27 -19 46zM426 493q-19 19 -46 19q-26 0 -45 -19l-90 -90 q-19 -19 -19 -45q0 -27 19 -46l45 46l68 68l22 22l68 -68l-22 -22l-113 -113q18 -19 45 -19q26 0 45 19l90 90q19 19 19 45q0 27 -19 46z" />
<glyph unicode="T" d="M448 160v-64h-384v64h-64v-128h512v128h-64zM160 480v-160h-64l160 -160l160 160h-64v160h-192z" />
<glyph unicode="U" d="M352 192h-160v-96h160v-64l160 112l-160 112v-64zM0 512v-512h288v32h-256v448h224v-160h160v-64h32v96l-160 160h-288zM288 467l115 -115h-115v115z" />
<glyph unicode="V" d="M0 80h512v352h-512v-352zM70 400h368l-184 -184zM277 193l203 203v-250l-94 94l-23 -23l105 -105h-424l105 105l-23 23l-94 -94v247l200 -200l22 -22z" />
<glyph unicode="W" d="M144 128h224v320h-224v-320zM400 64q0 -32 -32 -32h-224q-32 0 -32 32v384q0 32 32 32h224q32 0 32 -32v-384zM144 512q-26 0 -45 -19t-19 -45v-384q0 -26 19 -45t45 -19h224q26 0 45 19t19 45v384q0 26 -19 45t-45 19h-224zM240 64h32v32h-32v-32z" />
<glyph unicode="X" d="M228 484l227 -228h57l-228 228h-56zM455 256l-227 -227h56l228 227h-57zM0 484l228 -228h56l-227 228h-57zM228 256l-228 -227h57l227 227h-56z" />
<glyph unicode="Y" d="M412 311v48q0 63 -46 108q-45 45 -110 45q-64 0 -109 -45q-46 -45 -46 -108v-48h-34v-311h379v311h-34zM223 69l15 79q-15 9 -15 25q0 28 29 28t29 -28q0 -16 -15 -25l15 -79h-58zM343 311h-173v48q0 34 26 59q25 25 60 25q36 0 61 -25q26 -25 26 -59v-48z" />
<glyph unicode="Z" d="M128 240h256v32h-256v-32zM80 208q-16 0 -16 16v64q0 16 16 16h142q-5 28 -27 46t-51 18h-64q-33 0 -56 -24q-24 -23 -24 -56v-64q0 -33 24 -56q23 -24 56 -24h64q29 0 51 18t27 46h-142zM368 368q-29 0 -51 -18t-27 -46h142q16 0 16 -16v-64q0 -16 -16 -16h-142 q5 -28 27 -46t51 -18h64q33 0 56 24q24 23 24 56v64q0 33 -24 56q-23 24 -56 24h-64z" />
<glyph unicode="{" d="M256 384v128h-224v-480h-32v-32h512v384h-256zM192 32h-96v64h96v-64zM224 160h-160v32h160v-32zM224 224h-160v32h160v-32zM224 288h-160v32h160v-32zM224 352h-160v32h160v-32zM224 416h-160v32h160v-32zM384 64h-64v64h64v-64zM384 160h-64v64h64v-64zM384 256h-64v64 h64v-64zM480 64h-64v64h64v-64zM480 160h-64v64h64v-64zM480 256h-64v64h64v-64z" />
<glyph unicode="}" d="M490 255q0 97 -69 165t-166 68q-19 0 -38 -3q-35 23 -77 23q-58 0 -99 -41t-41 -99q0 -42 23 -76q-3 -18 -3 -37q0 -97 68 -165q69 -69 167 -69q21 0 42 4q35 -21 75 -21q58 0 99 41t41 99q0 44 -24 79q2 16 2 32zM135 125q-25 24 -20 49q4 23 28 25q-7 0 62 -43 q19 -12 47 -15q38 -4 59 19q23 26 -4 45q-20 14 -60 20q-53 8 -89 32q-43 29 -39 72q8 91 103 100q86 7 139 -38q26 -22 20 -47q-6 -22 -27 -25q-9 -1 -41 26q-34 28 -63 29q-44 0 -59 -31q-14 -31 34 -43q88 -22 99 -26q51 -19 68 -60q19 -45 -20 -87q-38 -41 -95 -44 q-91 -5 -142 42z" />
<glyph unicode="0" d="M112 478l-112 -112v-331h512v331l-112 112h-288zM102 376h-44l44 44v-44zM239 69h-205v273h103v102h102v-375zM410 420l44 -44h-44v44zM478 69h-205v375h102v-102h103v-273z" />
<glyph unicode="1" d="M48 439v-33h464v33h-464zM48 74h464v33h-464v-33zM213 207h299v33h-299v-33zM213 140h299v34h-299v-34zM213 273h299v33h-299v-33zM213 339h299v34h-299v-34zM0 339l133 -82l-133 -83v165z" />
<glyph unicode="2" d="M56 336q-40 -40 -56 -80q16 -40 56 -80q80 -80 201 -80q120 0 200 80q40 40 56 80q-16 40 -56 80q-80 80 -200 80q-121 0 -201 -80zM36 256q68 128 221 128q152 0 220 -128q-68 -128 -220 -128q-153 0 -221 128zM257 352q-40 0 -69 -28q-28 -28 -28 -68t28 -68 q29 -28 69 -28q39 0 68 28q28 28 28 68t-28 68l-68 -68v96z" />
<glyph unicode="3" d="M333 275h-42l55 -97l56 97h-44v136h-25v-1h-105q-9 25 -36 25h-192v-77h192q27 0 36 26h105v-109zM294 153q-16 0 -27 -11t-11 -27t11 -27q11 -12 27 -12h180q16 0 27 12q11 11 11 27t-11 27t-27 11h-180z" />
<glyph unicode="4" d="M154 227q16 -16 38 -16h267q22 0 37 16q16 16 16 38t-16 37q-15 16 -37 16h-267q-22 0 -38 -16q-15 -15 -15 -37t15 -38zM2 105h429q30 -30 76 -71v124h-505v-53zM293 371q22 0 38 16q16 15 16 38q0 22 -16 37q-16 16 -38 16h-240q-22 0 -37 -16q-16 -15 -16 -37 q0 -23 16 -38q15 -16 37 -16h240z" />
<glyph unicode="5" d="M479 388q-11 -2 -18 -10l-144 -170l-48 52q-8 8 -20 9q-11 1 -21 -5q-9 -6 -10 -16q-2 -11 6 -19l94 -103l189 223q7 8 5 18t-11 16q-10 6 -22 5zM305 260l11 -11l9 11h-20zM-1 369v-27h396l23 27h-419zM-1 206v-28h235l-25 28h-210zM-1 151v-27h284l-24 27h-260z M193 260h-194v-27h193q-2 9 -1 17q0 5 2 10zM277 287h71l23 28h-372v-28h216q15 9 31 9q17 0 31 -9z" />
<glyph unicode="6" d="M206 160h-206v-28h201v2q2 16 5 26zM283 270h-283v-28h299q-2 7 -2 8q-9 7 -14 20zM284 215h-284v-28h225q13 10 46 22q7 3 13 6zM287 325h-287v-28h280q2 12 7 21q0 -1 0 7zM0 380v-28h289q5 15 16 28h-305zM300 191q28 12 35 16v28q-11 8 -14 34q-5 -2 -9 5q-5 5 -5 11 q-1 23 9 21q-3 23 -2 30q1 18 17 31q16 14 40 14q23 0 40 -14q15 -13 17 -31q0 -8 -3 -30q6 1 8 -8q2 -6 1 -13q0 -6 -4 -11q-5 -7 -10 -5q-3 -26 -14 -34l1 -28q6 -4 35 -16q60 -25 66 -33q0 -1 3 -27h-282q2 23 5 27q5 8 66 33z" />
<glyph unicode="7" d="M456 284q-3 11 -10 21l27 27q11 11 0 22l-11 12q-12 11 -23 0l-27 -27q-11 6 -23 9v35q0 16 -16 16h-16q-16 0 -16 -16v-35q-14 -3 -26 -11l-22 23q-11 11 -23 0l-11 -11q-11 -11 0 -23l23 -23q-8 -13 -11 -27h-30q-15 0 -15 -16v-16q0 -16 15 -16h32q5 -14 13 -26 l-21 -22q-12 -11 0 -22l11 -12q11 -11 22 0l25 25q12 -7 26 -9v-33q0 -16 16 -16h16q16 0 16 16v37q12 5 22 12l26 -26q11 -11 22 0l12 11q11 12 0 23l-28 28q5 11 7 22h38q16 0 16 16v16q0 16 -16 16h-40zM337 228q-12 12 -12 28t12 28q11 12 28 12q16 0 28 -12t12 -28 t-12 -28t-28 -12q-17 0 -28 12zM249 202h-7q-19 0 -32 14h-211v-26h240q3 5 7 9zM199 260q0 4 1 9h-201v-26h200q0 3 0 1v16zM234 163h-235v-27h249l-2 3q-10 10 -12 24zM245 302l-5 5q-6 7 -9 15h-232v-26h220q10 6 22 6h4zM248 376h-249v-27h231q3 11 10 19z" />
<glyph unicode="8" d="M39 512v-512h434v382l-130 130h-304zM355 445l51 -51h-51v51zM434 40h-355v433h237v-118h118v-315z" />
<glyph unicode="9" d="M0 396l104 -84l152 94l-106 88zM150 130l106 88l-152 94l-104 -83zM361 130l151 99l-105 83l-151 -94zM361 494l-105 -88l151 -94l105 84zM150 111l-45 30v-33l151 -91l151 91v33l-45 -30l-106 88z" />
<glyph unicode="!" d="M32 512q-32 0 -32 -32v-448q0 -32 32 -32h448q32 0 32 32v448q0 32 -32 32h-448zM288 160h-192v32h192v-32zM416 224h-320v32h320v-32zM416 288h-320v32h320v-32zM416 352h-320v32h320v-32z" />
<glyph unicode="&#x22;" d="M32 512q-32 0 -32 -32v-448q0 -32 32 -32h448q32 0 32 32v448q0 32 -32 32h-448zM416 160h-321v225h321v-225z" />
<glyph unicode="#" d="M128 224h64v64h-64v-64zM128 320h64v64h-64v-64zM224 128h160v64h-160v-64zM32 512q-32 0 -32 -32v-448q0 -32 32 -32h448q32 0 32 32v448q0 32 -32 32h-448zM416 96h-320v320h320v-320zM128 128h64v64h-64v-64zM224 320h160v64h-160v-64zM224 224h160v64h-160v-64z" />
<glyph unicode="$" d="M0 511v-511h511v511h-511zM325 137l-59 85q-5 7 -11 15q-8 -12 -11 -17l-60 -83h-38l92 124l-81 113h38l43 -61q13 -18 19 -29q8 13 19 27l48 63h34l-84 -112l90 -125h-39z" />
<glyph unicode="%" d="M0 511v-511h511v511h-511zM313 137l-50 181q-6 23 -7 28q-4 -17 -7 -28l-51 -181h-32l-63 237h32l36 -155q6 -25 11 -49q9 38 10 44l45 160h38l34 -120q13 -45 19 -84q4 22 12 52l37 152h32l-66 -237h-30z" />
<glyph unicode="&#x26;" d="M213 312l6 13q-32 116 -20 158q4 15 25 15h9q21 1 25 -27q1 -13 -5 -35q0 24 -6 35q-10 22 -18 24q-6 -3 -7 -13q-3 -13 -3 -30q0 -39 15 -89q3 8 5 15t14 55q-3 -64 -8 -83l-3 -12q25 -66 72 -109q13 -12 42 -27q47 6 84 6q50 -1 64 -14q7 -6 8 -16q0 -3 -2 -9 q2 9 -25 18q-29 9 -103 1q90 -43 119 -30q4 2 9 8q-3 -12 -5 -15q-5 -7 -12 -9q-52 -13 -150 41q-97 -14 -193 -44q-86 -145 -133 -123l-12 7q-7 4 -5 15q8 35 78 76q5 3 29 15q-18 -16 -22 -19q-69 -55 -67 -86v-2q50 7 148 193q33 65 47 97zM155 150q69 29 166 46 q-11 8 -21 16q-43 35 -70 88q-19 -49 -44 -95q-12 -22 -31 -55z" />
<glyph unicode="'" d="M0 464v-416h512v416h-512zM448 112h-384v288h384v-288zM218 295q14 14 14 34t-14 34t-34 14t-34 -14t-14 -34t14 -34t34 -14t34 14zM416 261l-51 91l-68 -148l-41 41q-56 -21 -75 -53q-29 16 -45 0l-40 -48h320v117z" />
<glyph unicode="(" d="M231 456l-48 -9v-304q-24 11 -49 11q-41 0 -69 -23q-29 -22 -29 -54t29 -54q28 -23 69 -23q25 0 49 11q48 22 48 66v275l196 47v-154q-24 11 -49 11q-41 0 -69 -22q-29 -23 -29 -55q0 -31 29 -54q28 -22 69 -22q25 0 49 10q48 23 48 66v333l-48 -9z" />
<glyph unicode=")" d="M126 102l13 -13l103 103l-13 13zM113 38l-38 38l51 52l26 25q-26 26 -51 0l-52 -51q-25 -26 0 -51l39 -39q25 -25 51 0l51 52q26 25 0 51l-25 -26zM280 281q-25 26 -51 0l-51 -51q-26 -25 0 -51l25 26l39 38l13 13l38 -39l-13 -12l-64 -64q26 -26 51 0l52 51q25 25 0 51z M50 512v-336h39v297h232v-116h116v-309h-221v-38h259v374l-127 128h-298z" />
<glyph unicode="*" d="M403 224l-51 128h-32l-52 -191l-44 351h-32l-109 -301l-83 -51h128l70 257l26 -417h64l53 290l44 -130l127 64h-109z" />
<glyph unicode="+" d="M439 512l-183 -182l-182 182l-74 -73l183 -183l-183 -182l74 -74l182 183l183 -183l73 74l-182 182l182 183z" />
<glyph unicode="," horiz-adv-x="0" d="M221 155v35q13 11 17 44q5 -2 11 7q6 7 6 14q2 30 -11 28q4 29 3 39q-2 23 -21 40q-20 18 -50 18q-29 0 -49 -18q-19 -17 -21 -40q-1 -10 3 -39q-13 2 -11 -28q0 -7 6 -14q5 -9 11 -7q4 -33 17 -44v-35q-8 -6 -43 -21q-75 -33 -82 -44q-9 -15 -6 -90h351q3 75 -6 90 q-7 11 -82 44q-35 15 -43 21zM321 479q-33 -33 -33 -79t33 -79t79 -33t79 33t33 79t-33 79t-79 33t-79 -33zM443 467l-110 -110q-13 20 -13 43q0 33 24 56q23 24 56 24q23 0 43 -13zM355 334l111 111q14 -20 14 -45q0 -33 -23 -57q-24 -23 -57 -23q-25 0 -45 14z" />
<glyph unicode="-" d="M18 443v-197l245 -246l197 197l-246 246h-196zM91 308q-12 13 -12 31t12 30q13 13 31 13t31 -13q12 -12 12 -30t-12 -31q-13 -13 -31 -13t-31 13zM53 512v-34h166l250 -244l26 33l-246 245h-196z" />
<glyph unicode="." d="M150 397q51 40 116 40q48 0 91 -24q7 -4 20 -14l-72 -68l199 -33l-33 198l-40 -42q-8 7 -19 14q-65 44 -146 44q-95 0 -167 -59q-71 -60 -88 -151l-3 -21h75l3 14q13 62 64 102zM362 116q-51 -41 -116 -41q-48 0 -91 25q-8 4 -20 13l71 69l-198 33l33 -198l40 42 q8 -7 19 -14q65 -45 146 -45q94 0 166 60t88 151l4 21h-75l-3 -14q-13 -62 -64 -102z" />
<glyph unicode="/" horiz-adv-x="0" />
<glyph unicode=":" horiz-adv-x="0" />
<glyph unicode=";" horiz-adv-x="0" />
</font>
</defs>
</svg>
