<?xml version="1.0" encoding="utf-8"?>
<!-- Generator: Adobe Illustrator 15.0.0, SVG Export Plug-In . SVG Version: 6.00 Build 0)  -->
<!DOCTYPE svg PUBLIC "-//W3C//DTD SVG 1.1//EN" "http://www.w3.org/Graphics/SVG/1.1/DTD/svg11.dtd">
<svg version="1.1" id="Layer_1" xmlns="http://www.w3.org/2000/svg" xmlns:xlink="http://www.w3.org/1999/xlink" x="0px" y="0px"
	 width="45px" height="45px" viewBox="0 0 45 45" enable-background="new 0 0 45 45" xml:space="preserve">
<g>
	<g>
		<path fill="#89C343" stroke="#89C343" stroke-miterlimit="10" d="M22.473,44.321c-12.017,0-21.793-9.775-21.793-21.793
			c0-12.017,9.776-21.793,21.793-21.793c12.018,0,21.793,9.776,21.793,21.793C44.266,34.546,34.49,44.321,22.473,44.321z
			 M22.473,2.686c-10.941,0-19.842,8.901-19.842,19.842c0,10.941,8.901,19.842,19.842,19.842c10.941,0,19.841-8.901,19.841-19.842
			C42.313,11.587,33.414,2.686,22.473,2.686z"/>
	</g>
	<g>
		<g>
			<path fill="#89C343" stroke="#89C343" stroke-miterlimit="10" d="M20.911,28.106c0.349,0.349,0.349,0.915,0,1.264l0,0
				c-0.349,0.35-0.916,0.35-1.265,0l-6.555-6.554c-0.35-0.35-0.35-0.917,0-1.266l0,0c0.349-0.349,0.916-0.349,1.266,0L20.911,28.106
				z"/>
		</g>
		<g>
			<g>
				<path fill="#89C343" stroke="#89C343" stroke-miterlimit="10" d="M20.936,29.37c-0.349,0.349-0.916,0.349-1.265,0l0,0
					c-0.349-0.349-0.349-0.916,0-1.264l6.555-6.556c0.349-0.349,0.916-0.349,1.266,0l0,0c0.349,0.349,0.349,0.916,0,1.266
					L20.936,29.37z"/>
			</g>
			<g>
				<path fill="#89C343" stroke="#89C343" stroke-miterlimit="10" d="M26.802,23.506c-0.35,0.349-0.917,0.349-1.266,0l0,0
					c-0.348-0.35-0.348-0.917,0-1.266l6.556-6.554c0.349-0.35,0.915-0.35,1.265-0.001l0,0c0.349,0.35,0.349,0.916,0,1.266
					L26.802,23.506z"/>
			</g>
		</g>
	</g>
</g>
</svg>
