<svg width="52" height="52" viewBox="0 0 52 52" fill="none" xmlns="http://www.w3.org/2000/svg">
<path fill-rule="evenodd" clip-rule="evenodd" d="M17.0638 11.0158C19.8692 4.4006 26.3666 0 33.8 0C43.836 0 52 8.13296 52 18.1308C52 25.3443 47.7386 31.5683 41.6 34.4874V28.4265C44.7382 26.0591 46.8 22.3449 46.8 18.1308C46.8 10.9899 40.9682 5.18023 33.8 5.18023C27.7238 5.18023 22.5212 9.29851 21.1484 15.1962C20.9586 16.0173 20.3762 16.6933 19.5936 17.0093C18.811 17.3253 17.9192 17.245 17.2068 16.7865C15.938 15.9732 14.482 15.5407 13 15.5407C8.6996 15.5407 5.2 19.027 5.2 23.311C5.2 26.6834 7.3788 29.5299 10.4 30.6022V36C4.4746 34.7982 0 29.5662 0 23.311C0 16.1701 5.8318 10.3605 13 10.3605C14.3858 10.3605 15.756 10.5832 17.0638 11.0158ZM26 20L38 32.1334L34.3952 35.7783L28.5494 29.8676V52H23.4506V29.8676L17.6048 35.7783L14 32.1334L26 20Z" fill="#C4D2DD"/>
</svg>
