<svg width="29" height="36" viewBox="0 0 29 36" fill="none" xmlns="http://www.w3.org/2000/svg">
<path fill-rule="evenodd" clip-rule="evenodd" d="M26.6394 33.84H2.15937V2.16001H18.478V10.08H26.6373L26.6394 33.84ZM20.5452 0H3.6C1.6146 0 0 1.6164 0 3.6V32.4C0 34.3854 1.6146 36 3.6 36H25.2C27.1854 36 28.8 34.3854 28.8 32.4V8.2548L20.5452 0Z" fill="#007AB0"/>
<path d="M14.4219 30H12.3535L11.1934 25.5C11.1504 25.3398 11.0762 25.0098 10.9707 24.5098C10.8691 24.0059 10.8105 23.668 10.7949 23.4961C10.7715 23.707 10.7129 24.0469 10.6191 24.5156C10.5254 24.9805 10.4531 25.3125 10.4023 25.5117L9.24805 30H7.18555L5 21.4336H6.78711L7.88281 26.1094C8.07422 26.9727 8.21289 27.7207 8.29883 28.3535C8.32227 28.1309 8.375 27.7871 8.45703 27.3223C8.54297 26.8535 8.62305 26.4902 8.69727 26.2324L9.94531 21.4336H11.6621L12.9102 26.2324C12.9648 26.4473 13.0332 26.7754 13.1152 27.2168C13.1973 27.6582 13.2598 28.0371 13.3027 28.3535C13.3418 28.0488 13.4043 27.6699 13.4902 27.2168C13.5762 26.7598 13.6543 26.3906 13.7246 26.1094L14.8145 21.4336H16.6016L14.4219 30Z" fill="#007AB0"/>
</svg>
