<svg width="29" height="36" viewBox="0 0 29 36" fill="none" xmlns="http://www.w3.org/2000/svg">
<path fill-rule="evenodd" clip-rule="evenodd" d="M26.6394 33.84H2.15937V2.15996H18.478V10.08H26.6373L26.6394 33.84ZM20.5452 0H3.6C1.6146 0 0 1.6164 0 3.6V32.4C0 34.3854 1.6146 36 3.6 36H25.2C27.1854 36 28.8 34.3854 28.8 32.4V8.2548L20.5452 0Z" fill="#7F939E"/>
<path fill-rule="evenodd" clip-rule="evenodd" d="M8.83757 22.6264L9.34306 23.1325L8.33209 24.1449L7.82661 23.6387C6.99009 22.8018 6.99009 21.4393 7.82661 20.6017L13.8931 14.5269C14.7025 13.7158 16.1167 13.7158 16.9267 14.5269L17.4322 15.0331L16.4205 16.0455L15.9158 15.5393C15.7799 15.404 15.6012 15.3295 15.4096 15.3295C15.2187 15.3295 15.0392 15.404 14.9048 15.5393L8.83757 21.614C8.55873 21.8932 8.55873 22.3471 8.83757 22.6264ZM20.4658 18.0711L20.9712 18.5773C21.3759 18.9825 21.599 19.5223 21.599 20.0965C21.599 20.6685 21.3759 21.2083 20.9712 21.6136L14.9047 27.689C14.4993 28.095 13.961 28.3183 13.3876 28.3183C12.8149 28.3183 12.2765 28.095 11.8711 27.689L11.3656 27.1828L12.3766 26.1705L12.8821 26.6767C13.1523 26.9466 13.6235 26.9466 13.8938 26.6767L19.9603 20.6012C20.0947 20.4666 20.1691 20.2862 20.1691 20.0965C20.1691 19.9046 20.0954 19.7256 19.9603 19.5903L19.4541 19.0841L20.4658 18.0711ZM15.9157 20.6016L14.9047 19.5893L19.9602 14.5269L20.9712 15.5392L15.9157 20.6016ZM7.82656 26.6763L8.83753 27.6886L13.8931 22.6262L12.8821 21.6139L7.82656 26.6763Z" fill="#7F939E"/>
<path d="M9.34306 23.1325L9.69685 23.4858L10.0497 23.1325L9.69685 22.7792L9.34306 23.1325ZM8.83757 22.6264L9.19137 22.273L9.19137 22.273L8.83757 22.6264ZM8.33209 24.1449L7.9783 24.4982L8.33209 24.8525L8.68588 24.4982L8.33209 24.1449ZM7.82661 23.6387L8.1804 23.2854L8.18025 23.2852L7.82661 23.6387ZM7.82661 20.6017L7.47281 20.2484H7.47281L7.82661 20.6017ZM13.8931 14.5269L14.2469 14.8803L14.2471 14.8801L13.8931 14.5269ZM16.9267 14.5269L16.573 14.8803L16.9267 14.5269ZM17.4322 15.0331L17.7859 15.3866L18.139 15.0332L17.786 14.6798L17.4322 15.0331ZM16.4205 16.0455L16.0665 16.3985L16.4202 16.7532L16.7742 16.3989L16.4205 16.0455ZM15.9158 15.5393L16.2698 15.1862L16.2686 15.185L15.9158 15.5393ZM14.9048 15.5393L15.2586 15.8926L15.2595 15.8917L14.9048 15.5393ZM8.83757 21.614L8.4838 21.2607L8.48378 21.2607L8.83757 21.614ZM20.9712 18.5773L21.325 18.2239L20.9712 18.5773ZM20.4658 18.0711L20.8196 17.7178L20.4658 17.3635L20.112 17.7178L20.4658 18.0711ZM20.9712 21.6136L20.6175 21.2602L20.6174 21.2603L20.9712 21.6136ZM14.9047 27.689L15.2585 28.0423L15.2585 28.0423L14.9047 27.689ZM11.8711 27.689L11.5173 28.0423V28.0423L11.8711 27.689ZM11.3656 27.1828L11.0118 26.8295L10.659 27.1828L11.0118 27.5362L11.3656 27.1828ZM12.3766 26.1705L12.7304 25.8172L12.3766 25.4629L12.0228 25.8172L12.3766 26.1705ZM12.8821 26.6767L12.5283 27.03L12.5288 27.0305L12.8821 26.6767ZM13.8938 26.6767L14.2471 27.0305L14.2476 27.03L13.8938 26.6767ZM19.9603 20.6012L19.6065 20.2479L19.6065 20.2479L19.9603 20.6012ZM19.9603 19.5903L20.3141 19.237L20.3138 19.2368L19.9603 19.5903ZM19.4541 19.0841L19.1003 18.7308L18.7472 19.0844L19.1005 19.4377L19.4541 19.0841ZM14.9047 19.5893L14.5509 19.2359L14.1981 19.5893L14.5509 19.9426L14.9047 19.5893ZM15.9157 20.6016L15.5619 20.9549L15.9157 21.3092L16.2694 20.9549L15.9157 20.6016ZM19.9602 14.5269L20.314 14.1735L19.9602 13.8193L19.6064 14.1735L19.9602 14.5269ZM20.9712 15.5392L21.325 15.8925L21.6778 15.5392L21.325 15.1859L20.9712 15.5392ZM8.83753 27.6886L8.48374 28.0419L8.83753 28.3962L9.19132 28.0419L8.83753 27.6886ZM7.82656 26.6763L7.47277 26.323L7.11993 26.6763L7.47277 27.0296L7.82656 26.6763ZM13.8931 22.6262L14.2469 22.9795L14.5997 22.6262L14.2469 22.2729L13.8931 22.6262ZM12.8821 21.6139L13.2359 21.2606L12.8821 20.9063L12.5283 21.2606L12.8821 21.6139ZM9.69685 22.7792L9.19137 22.273L8.48378 22.9797L8.98926 23.4858L9.69685 22.7792ZM8.68588 24.4982L9.69685 23.4858L8.98926 22.7792L7.9783 23.7916L8.68588 24.4982ZM7.47281 23.992L7.9783 24.4982L8.68588 23.7916L8.1804 23.2854L7.47281 23.992ZM7.47281 20.2484C6.44144 21.2811 6.44122 22.9599 7.47296 23.9922L8.18025 23.2852C7.53896 22.6436 7.53874 21.5975 8.1804 20.955L7.47281 20.2484ZM13.5393 14.1736L7.47281 20.2484L8.1804 20.955L14.2469 14.8803L13.5393 14.1736ZM17.2805 14.1736C16.2752 13.167 14.544 13.1668 13.5392 14.1738L14.2471 14.8801C14.861 14.2648 15.9581 14.2646 16.573 14.8803L17.2805 14.1736ZM17.786 14.6798L17.2805 14.1736L16.573 14.8803L17.0784 15.3864L17.786 14.6798ZM16.7742 16.3989L17.7859 15.3866L17.0786 14.6797L16.0669 15.692L16.7742 16.3989ZM15.5617 15.8923L16.0665 16.3985L16.7746 15.6924L16.2698 15.1862L15.5617 15.8923ZM15.4096 15.8295C15.4678 15.8295 15.52 15.8507 15.5629 15.8935L16.2686 15.185C16.0399 14.9572 15.7346 14.8295 15.4096 14.8295V15.8295ZM15.2595 15.8917C15.2998 15.8512 15.3514 15.8295 15.4096 15.8295V14.8295C15.086 14.8295 14.7787 14.9568 14.5501 15.1869L15.2595 15.8917ZM9.19134 21.9674L15.2586 15.8926L14.551 15.186L8.4838 21.2607L9.19134 21.9674ZM9.19137 22.273C9.10747 22.189 9.10747 22.0513 9.19137 21.9673L8.48378 21.2607C8.01 21.7351 8.01 22.5053 8.48378 22.9797L9.19137 22.273ZM21.325 18.2239L20.8196 17.7178L20.112 18.4244L20.6175 18.9306L21.325 18.2239ZM22.099 20.0965C22.099 19.3902 21.8236 18.7232 21.325 18.2239L20.6175 18.9306C20.9282 19.2418 21.099 19.6544 21.099 20.0965H22.099ZM21.325 21.9669C21.8234 21.4678 22.099 20.8009 22.099 20.0965H21.099C21.099 20.5361 20.9284 20.9488 20.6175 21.2602L21.325 21.9669ZM15.2585 28.0423L21.3251 21.9669L20.6174 21.2603L14.5509 27.3357L15.2585 28.0423ZM13.3876 28.8183C14.0938 28.8183 14.7594 28.5421 15.2585 28.0423L14.5509 27.3357C14.2392 27.6478 13.8281 27.8183 13.3876 27.8183V28.8183ZM11.5173 28.0423C12.0163 28.542 12.6819 28.8183 13.3876 28.8183V27.8183C12.9478 27.8183 12.5367 27.6479 12.2249 27.3357L11.5173 28.0423ZM11.0118 27.5362L11.5173 28.0423L12.2249 27.3357L11.7194 26.8295L11.0118 27.5362ZM12.0228 25.8172L11.0118 26.8295L11.7194 27.5362L12.7304 26.5238L12.0228 25.8172ZM13.2359 26.3234L12.7304 25.8172L12.0228 26.5238L12.5283 27.03L13.2359 26.3234ZM13.5404 26.3229C13.4654 26.3978 13.3104 26.3978 13.2354 26.3229L12.5288 27.0305C12.9942 27.4953 13.7816 27.4953 14.2471 27.0305L13.5404 26.3229ZM19.6065 20.2479L13.5399 26.3234L14.2476 27.03L20.3141 20.9545L19.6065 20.2479ZM19.6691 20.0965C19.6691 20.1541 19.647 20.2073 19.6065 20.2479L20.3141 20.9545C20.5424 20.7259 20.6691 20.4183 20.6691 20.0965H19.6691ZM19.6065 19.9436C19.6473 19.9845 19.6691 20.0361 19.6691 20.0965H20.6691C20.6691 19.7731 20.5435 19.4668 20.3141 19.237L19.6065 19.9436ZM19.1005 19.4377L19.6067 19.9439L20.3138 19.2368L19.8076 18.7306L19.1005 19.4377ZM20.112 17.7178L19.1003 18.7308L19.8079 19.4375L20.8196 18.4244L20.112 17.7178ZM14.5509 19.9426L15.5619 20.9549L16.2694 20.2483L15.2585 19.2359L14.5509 19.9426ZM19.6064 14.1735L14.5509 19.2359L15.2585 19.9426L20.314 14.8802L19.6064 14.1735ZM21.325 15.1859L20.314 14.1735L19.6064 14.8802L20.6174 15.8925L21.325 15.1859ZM16.2694 20.9549L21.325 15.8925L20.6174 15.1859L15.5619 20.2483L16.2694 20.9549ZM9.19132 27.3353L8.18036 26.323L7.47277 27.0296L8.48374 28.0419L9.19132 27.3353ZM13.5393 22.2729L8.48374 27.3353L9.19132 28.0419L14.2469 22.9795L13.5393 22.2729ZM12.5283 21.9672L13.5393 22.9795L14.2469 22.2729L13.2359 21.2606L12.5283 21.9672ZM8.18036 27.0296L13.2359 21.9672L12.5283 21.2606L7.47277 26.323L8.18036 27.0296Z" fill="#7F939E"/>
</svg>
