<svg width="29" height="36" viewBox="0 0 29 36" fill="none" xmlns="http://www.w3.org/2000/svg">
<path fill-rule="evenodd" clip-rule="evenodd" d="M26.6394 33.84H2.15937V2.16001H18.478V10.08H26.6373L26.6394 33.84ZM20.5452 0H3.6C1.6146 0 0 1.6164 0 3.6V32.4C0 34.3854 1.6146 36 3.6 36H25.2C27.1854 36 28.8 34.3854 28.8 32.4V8.2548L20.5452 0Z" fill="#CD3A24"/>
<path d="M7.01367 25.8207H7.51172C7.97721 25.8207 8.32552 25.7295 8.55664 25.5472C8.78776 25.3617 8.90332 25.0931 8.90332 24.7416C8.90332 24.3868 8.80566 24.1247 8.61035 23.9554C8.41829 23.7862 8.11556 23.7015 7.70215 23.7015H7.01367V25.8207ZM10.4316 24.6879C10.4316 25.4561 10.1908 26.0437 9.70898 26.4506C9.23047 26.8575 8.5485 27.0609 7.66309 27.0609H7.01367V29.6H5.5V22.4613H7.78027C8.64616 22.4613 9.30371 22.6485 9.75293 23.0228C10.2054 23.3939 10.4316 23.9489 10.4316 24.6879ZM17.7021 25.9623C17.7021 27.1374 17.3669 28.0375 16.6963 28.6625C16.029 29.2875 15.0638 29.6 13.8008 29.6H11.7793V22.4613H14.0205C15.1859 22.4613 16.0908 22.7689 16.7354 23.3842C17.3799 23.9994 17.7021 24.8588 17.7021 25.9623ZM16.1299 26.0013C16.1299 24.4681 15.4528 23.7015 14.0986 23.7015H13.293V28.35H13.9424C15.4007 28.35 16.1299 27.5671 16.1299 26.0013ZM20.6709 29.6H19.1816V22.4613H23.2734V23.7015H20.6709V25.5424H23.0928V26.7777H20.6709V29.6Z" fill="#CD3A24"/>
</svg>
