<svg width="29" height="36" viewBox="0 0 29 36" fill="none" xmlns="http://www.w3.org/2000/svg">
<path fill-rule="evenodd" clip-rule="evenodd" d="M26.6394 33.84H2.15937V2.15996H18.478V10.08H26.6373L26.6394 33.84ZM20.5452 0H3.6C1.6146 0 0 1.6164 0 3.6V32.4C0 34.3854 1.6146 36 3.6 36H25.2C27.1854 36 28.8 34.3854 28.8 32.4V8.2548L20.5452 0Z" fill="#FF9409"/>
<path d="M8.7373 24.2869H9.38477C9.98991 24.2869 10.4427 24.1684 10.7432 23.9314C11.0436 23.6902 11.1938 23.3411 11.1938 22.884C11.1938 22.4228 11.0669 22.0821 10.813 21.8621C10.5633 21.642 10.1698 21.532 9.63232 21.532H8.7373V24.2869ZM13.1807 22.8142C13.1807 23.8129 12.8675 24.5767 12.2412 25.1057C11.6191 25.6347 10.7326 25.8992 9.58154 25.8992H8.7373V29.2H6.76953V19.9197H9.73389C10.8595 19.9197 11.7144 20.163 12.2983 20.6497C12.8866 21.1321 13.1807 21.8536 13.1807 22.8142Z" fill="#FF9409"/>
</svg>
