<svg width="15" height="15" viewBox="0 0 15 15" fill="none" xmlns="http://www.w3.org/2000/svg">
    <path fill-rule="evenodd" clip-rule="evenodd" d="M1.5 7.5C1.5 4.18631 4.18631 1.5 7.5 1.5C10.8137 1.5 13.5 4.18631 13.5 7.5C13.5 10.8139 10.8137 13.5 7.5 13.5C4.1863 13.5 1.5 10.8139 1.5 7.5ZM7.5 0.5C3.63403 0.5 0.5 3.63403 0.5 7.5C0.5 11.3662 3.63404 14.5 7.5 14.5C11.366 14.5 14.5 11.3662 14.5 7.5C14.5 3.63403 11.366 0.5 7.5 0.5ZM8 4.98462C8 4.70848 7.77614 4.48462 7.5 4.48462C7.22386 4.48462 7 4.70848 7 4.98462V7.48651C7 7.65942 7.08934 7.82006 7.23623 7.91127L9.50107 9.31771C9.73566 9.46339 10.0439 9.39131 10.1896 9.15672C10.3353 8.92213 10.2632 8.61386 10.0286 8.46818L8 7.20844V4.98462Z" fill="#00A3FF"/>
</svg>
