<svg width="24" height="24" viewBox="0 0 24 24" fill="none" xmlns="http://www.w3.org/2000/svg">
<path fill-rule="evenodd" clip-rule="evenodd" d="M11.7535 1.7827C6.25576 1.7827 1.78276 6.25568 1.78276 11.7534C1.78276 17.2512 6.25576 21.724 11.7535 21.724C17.2513 21.724 21.7241 17.2512 21.7241 11.7534C21.7241 11.6586 21.7268 11.5411 21.7297 11.4103C21.7317 11.3249 21.7337 11.234 21.7352 11.1401C21.7389 10.9129 21.7395 10.6685 21.7227 10.4941L21.6967 10.2228H19.8053V11.7534C19.8053 16.1927 16.1927 19.8053 11.7535 19.8053C7.31409 19.8053 3.70149 16.1927 3.70149 11.7534C3.70149 7.31404 7.3141 3.70143 11.7535 3.70143C13.2971 3.70143 14.7986 4.14121 16.0951 4.97432L16.3476 5.13654L17.3849 3.52112L17.1324 3.35904C15.5252 2.32746 13.6649 1.7827 11.7535 1.7827ZM22.3416 5.12537L20.9844 3.76845L11.7817 12.9713L8.41497 9.57135L6.91282 10.8185L11.1014 15.0071C11.2886 15.1952 11.535 15.2887 11.7797 15.2887C12.0249 15.2887 12.2704 15.1951 12.4579 15.0091L12.4587 15.0082L22.3416 5.12537Z" fill="#314149"/>
</svg>
