<svg width="12" height="12" viewBox="0 0 12 12" fill="none" xmlns="http://www.w3.org/2000/svg">
<path d="M11.0769 3.23055H0.92301C0.797927 3.23055 0.689742 3.27619 0.598431 3.36755C0.507069 3.45886 0.461426 3.56705 0.461426 3.69205V10.6152C0.461426 10.7401 0.507069 10.8484 0.598431 10.9397C0.689742 11.031 0.797927 11.0768 0.92301 11.0768H11.0769C11.2019 11.0768 11.31 11.031 11.4014 10.9397C11.4927 10.8484 11.5383 10.7402 11.5383 10.6152V3.69205C11.5383 3.56697 11.4928 3.45889 11.4014 3.36755C11.3101 3.27619 11.2019 3.23055 11.0769 3.23055ZM7.24737 5.40121C7.15611 5.49254 7.04788 5.53821 6.92287 5.53821H5.07671C4.95178 5.53821 4.8436 5.49252 4.75221 5.40121C4.6609 5.30985 4.6152 5.20171 4.6152 5.07663C4.6152 4.95165 4.6609 4.84346 4.75221 4.75213C4.84357 4.66076 4.95176 4.61507 5.07671 4.61507H6.92305C7.04795 4.61507 7.15611 4.66076 7.24755 4.75213C7.33884 4.84344 7.38448 4.95162 7.38448 5.07663C7.38448 5.20169 7.33874 5.30985 7.24737 5.40121Z" fill="#738C99"/>
<path d="M11.8631 0.137005C11.7717 0.0456431 11.6636 0 11.5386 0H0.461534C0.336552 0 0.228367 0.0456431 0.13703 0.137005C0.0456937 0.228317 0 0.336501 0 0.461508V2.30767C0 2.43265 0.0456936 2.54078 0.137056 2.63217C0.228392 2.72353 0.336552 2.76918 0.461559 2.76918H11.5384C11.6634 2.76918 11.7717 2.72353 11.8631 2.63217C11.9544 2.54081 12 2.43267 12 2.30767V0.461508C12 0.336425 11.9544 0.228317 11.8631 0.137005Z" fill="#738C99"/>
</svg>
