<svg width="16" height="16" viewBox="0 0 16 16" fill="none" xmlns="http://www.w3.org/2000/svg">
<path fill-rule="evenodd" clip-rule="evenodd" d="M11 0C10.7239 0 10.5 0.223858 10.5 0.5V1V2H5.501V1V0.5C5.501 0.223858 5.27714 0 5.001 0H3C2.72386 0 2.5 0.223858 2.5 0.5V1V2H1.5C0.947715 2 0.5 2.44772 0.5 3V15C0.5 15.5523 0.947715 16 1.5 16H14.5C15.0523 16 15.5 15.5523 15.5 15V3C15.5 2.44772 15.0523 2 14.5 2H13.5V1V0.5C13.5 0.223858 13.2761 0 13 0H11ZM11.4999 3.00115H12.4999V1.00015H11.4999V3.00115ZM3.5 3.00115H4.5V1.00015H3.5V3.00115ZM1.50006 15.0002H14.5011V5.00024H1.50006V15.0002ZM5.50006 8.00026H7.50007V6.00026H5.50006V8.00026ZM8.50006 8.00026H10.5001V6.00026H8.50006V8.00026ZM11.5001 8.00026H13.5001V6.00026H11.5001V8.00026ZM2.5 11.0002H4.5V9.00023H2.5V11.0002ZM5.50006 11.0002H7.50007V9.00023H5.50006V11.0002ZM8.50006 11.0002H10.5001V9.00023H8.50006V11.0002ZM11.5001 11.0002H13.5001V9.00023H11.5001V11.0002ZM2.5 14.0004H4.5V12.0004H2.5V14.0004ZM5.50006 14.0004H7.50007V12.0004H5.50006V14.0004ZM8.50006 14.0004H10.5001V12.0004H8.50006V14.0004Z" fill="white"/>
</svg>
