<svg width="20" height="20" viewBox="0 0 20 20" fill="none" xmlns="http://www.w3.org/2000/svg">
<path fill-rule="evenodd" clip-rule="evenodd" d="M15.0002 2.50004V0.833374H13.3335V5.83337H15.0002V4.16671H17.5002V16.6667H2.50016V4.16671H4.16683V2.50004H2.50016C1.58016 2.50004 0.833496 3.24671 0.833496 4.16671V16.6667C0.833496 17.5867 1.58016 18.3334 2.50016 18.3334H17.5002C18.4202 18.3334 19.1668 17.5867 19.1668 16.6667V4.16671C19.1668 3.24671 18.4202 2.50004 17.5002 2.50004H15.0002ZM6.66683 4.16671H12.5002V2.50004H6.66683V0.833374H5.00016V5.83337H6.66683V4.16671ZM4.16683 7.50004H7.50016V10.8334H4.16683V7.50004ZM11.6668 7.50004H8.3335V10.8334H11.6668V7.50004ZM15.8335 10.8334H12.5002V7.50004H15.8335V10.8334ZM4.16683 15H7.50016V11.6667H4.16683V15ZM11.6668 15H8.3335V11.6667H11.6668V15Z" fill="white"/>
<path fill-rule="evenodd" clip-rule="evenodd" d="M15.0002 2.50004V0.833374H13.3335V5.83337H15.0002V4.16671H17.5002V16.6667H2.50016V4.16671H4.16683V2.50004H2.50016C1.58016 2.50004 0.833496 3.24671 0.833496 4.16671V16.6667C0.833496 17.5867 1.58016 18.3334 2.50016 18.3334H17.5002C18.4202 18.3334 19.1668 17.5867 19.1668 16.6667V4.16671C19.1668 3.24671 18.4202 2.50004 17.5002 2.50004H15.0002ZM6.66683 4.16671H12.5002V2.50004H6.66683V0.833374H5.00016V5.83337H6.66683V4.16671ZM4.16683 7.50004H7.50016V10.8334H4.16683V7.50004ZM11.6668 7.50004H8.3335V10.8334H11.6668V7.50004ZM15.8335 10.8334H12.5002V7.50004H15.8335V10.8334ZM4.16683 15H7.50016V11.6667H4.16683V15ZM11.6668 15H8.3335V11.6667H11.6668V15Z" fill="#738C99" fill-opacity="0.8"/>
</svg>
