<svg width="20" height="20" viewBox="0 0 20 20" fill="none" xmlns="http://www.w3.org/2000/svg">
<path fill-rule="evenodd" clip-rule="evenodd" d="M10 20C15.5228 20 20 15.5228 20 10C20 4.47715 15.5228 0 10 0C4.47715 0 0 4.47715 0 10C0 15.5228 4.47715 20 10 20Z" fill="#00A3FF"/>
<path fill-rule="evenodd" clip-rule="evenodd" d="M8.46891 13.9024C8.27686 14.1136 7.94721 14.1215 7.74536 13.9196L5.35338 11.5271C5.15819 11.3319 5.15816 11.0154 5.35332 10.8201L5.76423 10.409C5.95948 10.2136 6.27614 10.2136 6.47144 10.4089L7.69156 11.629C7.89344 11.8309 8.22308 11.823 8.41511 11.6118L13.4939 6.02443C13.6797 5.82003 13.996 5.80501 14.2003 5.99088L14.6303 6.38196C14.8345 6.56774 14.8495 6.88388 14.6638 7.08817L8.46891 13.9024Z" fill="white" stroke="white" stroke-width="0.5"/>
</svg>
