<svg width="16" height="16" viewBox="0 0 16 16" fill="none" xmlns="http://www.w3.org/2000/svg">
<path d="M12.0626 15H1.55595C1.24883 15 1 14.7525 1 14.447V3.99729C1 3.69183 1.24883 3.44434 1.55595 3.44434H12.0626C12.3697 3.44434 12.6185 3.69206 12.6185 3.99729V14.447C12.6185 14.7522 12.3697 15 12.0626 15ZM2.11189 13.8938H11.5064V4.55023H2.11189V13.8938Z" fill="#00A3FF" stroke="#00A3FF" stroke-width="0.25"/>
<path d="M14.4444 12.5559H13.3156C13.0085 12.5559 12.7597 12.3081 12.7597 12.0029C12.7597 11.6975 13.0085 11.45 13.3156 11.45H13.8884V2.10614H4.49373V2.72131C4.49373 3.02677 4.2449 3.27426 3.93778 3.27426C3.63067 3.27426 3.38184 3.02654 3.38184 2.72131V1.55295C3.38184 1.24773 3.63067 1 3.93778 1H14.4444C14.7515 1 15.0003 1.24773 15.0003 1.55295V12.0029C15.0003 12.3081 14.7515 12.5559 14.4444 12.5559Z" fill="#00A3FF" stroke="#00A3FF" stroke-width="0.25"/>
</svg>
