<svg width="16" height="16" viewBox="0 0 16 16" fill="none" xmlns="http://www.w3.org/2000/svg">
<g opacity="0.5">
<path fill-rule="evenodd" clip-rule="evenodd" d="M5.0922 1.5C5.0922 1.08579 4.75641 0.75 4.3422 0.75C3.92798 0.75 3.5922 1.08579 3.5922 1.5V1.96855H1.5C1.08579 1.96855 0.75 2.30434 0.75 2.71855V14.4987C0.75 14.9129 1.08579 15.2487 1.5 15.2487H14.4954C14.9096 15.2487 15.2454 14.9129 15.2454 14.4987V6.85449L15.2456 6.83516L15.2454 6.81583V2.71855C15.2454 2.30434 14.9096 1.96855 14.4954 1.96855H12.4041V1.5C12.4041 1.08579 12.0683 0.75 11.6541 0.75C11.2399 0.75 10.9041 1.08579 10.9041 1.5V1.96855H8.7468V1.5C8.7468 1.08579 8.41101 0.75 7.9968 0.75C7.58258 0.75 7.2468 1.08579 7.2468 1.5V1.96855H5.0922V1.5ZM10.9041 3.46855H8.7468V3.91846C8.7468 4.33268 8.41101 4.66846 7.9968 4.66846C7.58258 4.66846 7.2468 4.33268 7.2468 3.91846V3.46855H5.0922V3.91846C5.0922 4.33268 4.75641 4.66846 4.3422 4.66846C3.92798 4.66846 3.5922 4.33268 3.5922 3.91846V3.46855H2.25V6.08516H13.7454V3.46855H12.4041V3.91846C12.4041 4.33268 12.0683 4.66846 11.6541 4.66846C11.2399 4.66846 10.9041 4.33268 10.9041 3.91846V3.46855ZM2.25 13.7487V7.58516H13.7454V13.7487H2.25Z" fill="#738C99"/>
<path d="M3.5922 1.96855V2.21855C3.73027 2.21855 3.8422 2.10662 3.8422 1.96855H3.5922ZM15.2454 6.85449L14.9954 6.85133V6.85449H15.2454ZM15.2456 6.83516L15.4957 6.83832L15.4956 6.832L15.2456 6.83516ZM15.2454 6.81583H14.9954L14.9954 6.81899L15.2454 6.81583ZM12.4041 1.96855H12.1541C12.1541 2.10662 12.266 2.21855 12.4041 2.21855V1.96855ZM10.9041 1.96855V2.21855C11.0422 2.21855 11.1541 2.10662 11.1541 1.96855H10.9041ZM8.7468 1.96855H8.4968C8.4968 2.10662 8.60873 2.21855 8.7468 2.21855V1.96855ZM7.2468 1.96855V2.21855C7.38487 2.21855 7.4968 2.10662 7.4968 1.96855H7.2468ZM5.0922 1.96855H4.8422C4.8422 2.10662 4.95412 2.21855 5.0922 2.21855V1.96855ZM8.7468 3.46855V3.21855C8.60873 3.21855 8.4968 3.33048 8.4968 3.46855H8.7468ZM10.9041 3.46855H11.1541C11.1541 3.33048 11.0422 3.21855 10.9041 3.21855V3.46855ZM7.2468 3.46855H7.4968C7.4968 3.33048 7.38487 3.21855 7.2468 3.21855V3.46855ZM5.0922 3.46855V3.21855C4.95412 3.21855 4.8422 3.33048 4.8422 3.46855H5.0922ZM3.5922 3.46855H3.8422C3.8422 3.33048 3.73027 3.21855 3.5922 3.21855V3.46855ZM2.25 3.46855V3.21855C2.11193 3.21855 2 3.33048 2 3.46855H2.25ZM2.25 6.08516H2C2 6.22323 2.11193 6.33516 2.25 6.33516V6.08516ZM13.7454 6.08516V6.33516C13.8835 6.33516 13.9954 6.22323 13.9954 6.08516H13.7454ZM13.7454 3.46855H13.9954C13.9954 3.33048 13.8835 3.21855 13.7454 3.21855V3.46855ZM12.4041 3.46855V3.21855C12.266 3.21855 12.1541 3.33048 12.1541 3.46855H12.4041ZM2.25 7.58516V7.33516C2.11193 7.33516 2 7.44709 2 7.58516H2.25ZM2.25 13.7487H2C2 13.8867 2.11193 13.9987 2.25 13.9987V13.7487ZM13.7454 7.58516H13.9954C13.9954 7.44709 13.8835 7.33516 13.7454 7.33516V7.58516ZM13.7454 13.7487V13.9987C13.8835 13.9987 13.9954 13.8867 13.9954 13.7487H13.7454ZM4.3422 1C4.61834 1 4.8422 1.22386 4.8422 1.5H5.3422C5.3422 0.947715 4.89448 0.5 4.3422 0.5V1ZM3.8422 1.5C3.8422 1.22386 4.06605 1 4.3422 1V0.5C3.78991 0.5 3.3422 0.947715 3.3422 1.5H3.8422ZM3.8422 1.96855V1.5H3.3422V1.96855H3.8422ZM1.5 2.21855H3.5922V1.71855H1.5V2.21855ZM1 2.71855C1 2.44241 1.22386 2.21855 1.5 2.21855V1.71855C0.947715 1.71855 0.5 2.16627 0.5 2.71855H1ZM1 14.4987V2.71855H0.5V14.4987H1ZM1.5 14.9987C1.22386 14.9987 1 14.7748 1 14.4987H0.5C0.5 15.051 0.947715 15.4987 1.5 15.4987V14.9987ZM14.4954 14.9987H1.5V15.4987H14.4954V14.9987ZM14.9954 14.4987C14.9954 14.7748 14.7715 14.9987 14.4954 14.9987V15.4987C15.0477 15.4987 15.4954 15.051 15.4954 14.4987H14.9954ZM14.9954 6.85449V14.4987H15.4954V6.85449H14.9954ZM14.9957 6.832L14.9954 6.85133L15.4954 6.85764L15.4956 6.83832L14.9957 6.832ZM14.9954 6.81899L14.9957 6.83832L15.4956 6.832L15.4954 6.81268L14.9954 6.81899ZM14.9954 2.71855V6.81583H15.4954V2.71855H14.9954ZM14.4954 2.21855C14.7715 2.21855 14.9954 2.44241 14.9954 2.71855H15.4954C15.4954 2.16627 15.0477 1.71855 14.4954 1.71855V2.21855ZM12.4041 2.21855H14.4954V1.71855H12.4041V2.21855ZM12.1541 1.5V1.96855H12.6541V1.5H12.1541ZM11.6541 1C11.9302 1 12.1541 1.22386 12.1541 1.5H12.6541C12.6541 0.947715 12.2064 0.5 11.6541 0.5V1ZM11.1541 1.5C11.1541 1.22386 11.3779 1 11.6541 1V0.5C11.1018 0.5 10.6541 0.947715 10.6541 1.5H11.1541ZM11.1541 1.96855V1.5H10.6541V1.96855H11.1541ZM8.7468 2.21855H10.9041V1.71855H8.7468V2.21855ZM8.4968 1.5V1.96855H8.9968V1.5H8.4968ZM7.9968 1C8.27294 1 8.4968 1.22386 8.4968 1.5H8.9968C8.9968 0.947715 8.54908 0.5 7.9968 0.5V1ZM7.4968 1.5C7.4968 1.22386 7.72065 1 7.9968 1V0.5C7.44451 0.5 6.9968 0.947715 6.9968 1.5H7.4968ZM7.4968 1.96855V1.5H6.9968V1.96855H7.4968ZM5.0922 2.21855H7.2468V1.71855H5.0922V2.21855ZM4.8422 1.5V1.96855H5.3422V1.5H4.8422ZM8.7468 3.71855H10.9041V3.21855H8.7468V3.71855ZM8.9968 3.91846V3.46855H8.4968V3.91846H8.9968ZM7.9968 4.91846C8.54908 4.91846 8.9968 4.47075 8.9968 3.91846H8.4968C8.4968 4.19461 8.27294 4.41846 7.9968 4.41846V4.91846ZM6.9968 3.91846C6.9968 4.47075 7.44451 4.91846 7.9968 4.91846V4.41846C7.72065 4.41846 7.4968 4.19461 7.4968 3.91846H6.9968ZM6.9968 3.46855V3.91846H7.4968V3.46855H6.9968ZM5.0922 3.71855H7.2468V3.21855H5.0922V3.71855ZM5.3422 3.91846V3.46855H4.8422V3.91846H5.3422ZM4.3422 4.91846C4.89448 4.91846 5.3422 4.47075 5.3422 3.91846H4.8422C4.8422 4.19461 4.61834 4.41846 4.3422 4.41846V4.91846ZM3.3422 3.91846C3.3422 4.47075 3.78991 4.91846 4.3422 4.91846V4.41846C4.06605 4.41846 3.8422 4.19461 3.8422 3.91846H3.3422ZM3.3422 3.46855V3.91846H3.8422V3.46855H3.3422ZM2.25 3.71855H3.5922V3.21855H2.25V3.71855ZM2.5 6.08516V3.46855H2V6.08516H2.5ZM13.7454 5.83516H2.25V6.33516H13.7454V5.83516ZM13.4954 3.46855V6.08516H13.9954V3.46855H13.4954ZM12.4041 3.71855H13.7454V3.21855H12.4041V3.71855ZM12.1541 3.46855V3.91846H12.6541V3.46855H12.1541ZM12.1541 3.91846C12.1541 4.19461 11.9302 4.41846 11.6541 4.41846V4.91846C12.2064 4.91846 12.6541 4.47075 12.6541 3.91846H12.1541ZM11.6541 4.41846C11.3779 4.41846 11.1541 4.19461 11.1541 3.91846H10.6541C10.6541 4.47075 11.1018 4.91846 11.6541 4.91846V4.41846ZM11.1541 3.91846V3.46855H10.6541V3.91846H11.1541ZM2 7.58516V13.7487H2.5V7.58516H2ZM13.7454 7.33516H2.25V7.83516H13.7454V7.33516ZM13.9954 13.7487V7.58516H13.4954V13.7487H13.9954ZM2.25 13.9987H13.7454V13.4987H2.25V13.9987Z" fill="white"/>
</g>
</svg>
