<svg width="32" height="32" viewBox="0 0 32 32" fill="none" xmlns="http://www.w3.org/2000/svg">
<g id="icon date">
<path id="Oval" fill-rule="evenodd" clip-rule="evenodd" d="M16 31C24.2843 31 31 24.2843 31 16C31 7.71573 24.2843 1 16 1C7.71573 1 1 7.71573 1 16C1 24.2843 7.71573 31 16 31Z" stroke="#738C99" stroke-dasharray="2 2"/>
<g id="Union">
<path fill-rule="evenodd" clip-rule="evenodd" d="M14.0146 10.75C14.0146 10.3358 13.6788 10 13.2646 10C12.8504 10 12.5146 10.3358 12.5146 10.75V11.078H10.75C10.3358 11.078 10 11.4137 10 11.828V15.4694V22.2486C10 22.6628 10.3358 22.9986 10.75 22.9986H22.2486C22.6628 22.9986 22.9986 22.6628 22.9986 22.2486V15.4694V11.828C22.9986 11.4137 22.6628 11.078 22.2486 11.078H20.4839V10.75C20.4839 10.3358 20.1481 10 19.7339 10C19.3197 10 18.9839 10.3358 18.9839 10.75V11.078H17.2485V10.75C17.2485 10.3358 16.9127 10 16.4985 10C16.0843 10 15.7485 10.3358 15.7485 10.75V11.078H14.0146V10.75ZM18.9839 12.578H17.2485V12.8893C17.2485 13.3035 16.9127 13.6393 16.4985 13.6393C16.0843 13.6393 15.7485 13.3035 15.7485 12.8893V12.578H14.0146V12.8893C14.0146 13.3035 13.6788 13.6393 13.2646 13.6393C12.8504 13.6393 12.5146 13.3035 12.5146 12.8893V12.578H11.5V14.7194H21.4986V12.578H20.4839V12.8893C20.4839 13.3035 20.1481 13.6393 19.7339 13.6393C19.3197 13.6393 18.9839 13.3035 18.9839 12.8893V12.578ZM21.4986 16.2194H11.5V21.4986H21.4986V16.2194Z" fill="#738C99"/>
<path d="M12.5146 11.078V11.328C12.6527 11.328 12.7646 11.216 12.7646 11.078H12.5146ZM20.4839 11.078H20.2339C20.2339 11.216 20.3458 11.328 20.4839 11.328V11.078ZM18.9839 11.078V11.328C19.122 11.328 19.2339 11.216 19.2339 11.078H18.9839ZM17.2485 11.078H16.9985C16.9985 11.216 17.1105 11.328 17.2485 11.328V11.078ZM15.7485 11.078V11.328C15.8866 11.328 15.9985 11.216 15.9985 11.078H15.7485ZM14.0146 11.078H13.7646C13.7646 11.216 13.8765 11.328 14.0146 11.328V11.078ZM17.2485 12.578V12.328C17.1105 12.328 16.9985 12.4399 16.9985 12.578H17.2485ZM18.9839 12.578H19.2339C19.2339 12.4399 19.122 12.328 18.9839 12.328V12.578ZM15.7485 12.578H15.9985C15.9985 12.4399 15.8866 12.328 15.7485 12.328V12.578ZM14.0146 12.578V12.328C13.8765 12.328 13.7646 12.4399 13.7646 12.578H14.0146ZM12.5146 12.578H12.7646C12.7646 12.4399 12.6527 12.328 12.5146 12.328V12.578ZM11.5 12.578V12.328C11.3619 12.328 11.25 12.4399 11.25 12.578H11.5ZM11.5 14.7194H11.25C11.25 14.8575 11.3619 14.9694 11.5 14.9694V14.7194ZM21.4986 14.7194V14.9694C21.6367 14.9694 21.7486 14.8575 21.7486 14.7194H21.4986ZM21.4986 12.578H21.7486C21.7486 12.4399 21.6367 12.328 21.4986 12.328V12.578ZM20.4839 12.578V12.328C20.3458 12.328 20.2339 12.4399 20.2339 12.578H20.4839ZM11.5 16.2194V15.9694C11.3619 15.9694 11.25 16.0813 11.25 16.2194H11.5ZM21.4986 16.2194H21.7486C21.7486 16.0813 21.6367 15.9694 21.4986 15.9694V16.2194ZM11.5 21.4986H11.25C11.25 21.6367 11.3619 21.7486 11.5 21.7486V21.4986ZM21.4986 21.4986V21.7486C21.6367 21.7486 21.7486 21.6367 21.7486 21.4986H21.4986ZM13.2646 10.25C13.5408 10.25 13.7646 10.4739 13.7646 10.75H14.2646C14.2646 10.1977 13.8169 9.75 13.2646 9.75V10.25ZM12.7646 10.75C12.7646 10.4739 12.9885 10.25 13.2646 10.25V9.75C12.7123 9.75 12.2646 10.1977 12.2646 10.75H12.7646ZM12.7646 11.078V10.75H12.2646V11.078H12.7646ZM10.75 11.328H12.5146V10.828H10.75V11.328ZM10.25 11.828C10.25 11.5518 10.4739 11.328 10.75 11.328V10.828C10.1977 10.828 9.75 11.2757 9.75 11.828H10.25ZM10.25 15.4694V11.828H9.75V15.4694H10.25ZM10.25 22.2486V15.4694H9.75V22.2486H10.25ZM10.75 22.7486C10.4739 22.7486 10.25 22.5247 10.25 22.2486H9.75C9.75 22.8009 10.1977 23.2486 10.75 23.2486V22.7486ZM22.2486 22.7486H10.75V23.2486H22.2486V22.7486ZM22.7486 22.2486C22.7486 22.5247 22.5248 22.7486 22.2486 22.7486V23.2486C22.8009 23.2486 23.2486 22.8009 23.2486 22.2486H22.7486ZM22.7486 15.4694V22.2486H23.2486V15.4694H22.7486ZM22.7486 11.828V15.4694H23.2486V11.828H22.7486ZM22.2486 11.328C22.5248 11.328 22.7486 11.5518 22.7486 11.828H23.2486C23.2486 11.2757 22.8009 10.828 22.2486 10.828V11.328ZM20.4839 11.328H22.2486V10.828H20.4839V11.328ZM20.2339 10.75V11.078H20.7339V10.75H20.2339ZM19.7339 10.25C20.0101 10.25 20.2339 10.4739 20.2339 10.75H20.7339C20.7339 10.1977 20.2862 9.75 19.7339 9.75V10.25ZM19.2339 10.75C19.2339 10.4739 19.4578 10.25 19.7339 10.25V9.75C19.1816 9.75 18.7339 10.1977 18.7339 10.75H19.2339ZM19.2339 11.078V10.75H18.7339V11.078H19.2339ZM17.2485 11.328H18.9839V10.828H17.2485V11.328ZM16.9985 10.75V11.078H17.4985V10.75H16.9985ZM16.4985 10.25C16.7747 10.25 16.9985 10.4739 16.9985 10.75H17.4985C17.4985 10.1977 17.0508 9.75 16.4985 9.75V10.25ZM15.9985 10.75C15.9985 10.4739 16.2224 10.25 16.4985 10.25V9.75C15.9462 9.75 15.4985 10.1977 15.4985 10.75H15.9985ZM15.9985 11.078V10.75H15.4985V11.078H15.9985ZM14.0146 11.328H15.7485V10.828H14.0146V11.328ZM13.7646 10.75V11.078H14.2646V10.75H13.7646ZM17.2485 12.828H18.9839V12.328H17.2485V12.828ZM17.4985 12.8893V12.578H16.9985V12.8893H17.4985ZM16.4985 13.8893C17.0508 13.8893 17.4985 13.4416 17.4985 12.8893H16.9985C16.9985 13.1654 16.7747 13.3893 16.4985 13.3893V13.8893ZM15.4985 12.8893C15.4985 13.4416 15.9462 13.8893 16.4985 13.8893V13.3893C16.2224 13.3893 15.9985 13.1654 15.9985 12.8893H15.4985ZM15.4985 12.578V12.8893H15.9985V12.578H15.4985ZM14.0146 12.828H15.7485V12.328H14.0146V12.828ZM14.2646 12.8893V12.578H13.7646V12.8893H14.2646ZM13.2646 13.8893C13.8169 13.8893 14.2646 13.4416 14.2646 12.8893H13.7646C13.7646 13.1654 13.5408 13.3893 13.2646 13.3893V13.8893ZM12.2646 12.8893C12.2646 13.4416 12.7123 13.8893 13.2646 13.8893V13.3893C12.9885 13.3893 12.7646 13.1654 12.7646 12.8893H12.2646ZM12.2646 12.578V12.8893H12.7646V12.578H12.2646ZM11.5 12.828H12.5146V12.328H11.5V12.828ZM11.75 14.7194V12.578H11.25V14.7194H11.75ZM21.4986 14.4694H11.5V14.9694H21.4986V14.4694ZM21.2486 12.578V14.7194H21.7486V12.578H21.2486ZM20.4839 12.828H21.4986V12.328H20.4839V12.828ZM20.2339 12.578V12.8893H20.7339V12.578H20.2339ZM20.2339 12.8893C20.2339 13.1654 20.0101 13.3893 19.7339 13.3893V13.8893C20.2862 13.8893 20.7339 13.4416 20.7339 12.8893H20.2339ZM19.7339 13.3893C19.4578 13.3893 19.2339 13.1654 19.2339 12.8893H18.7339C18.7339 13.4416 19.1816 13.8893 19.7339 13.8893V13.3893ZM19.2339 12.8893V12.578H18.7339V12.8893H19.2339ZM11.5 16.4694H21.4986V15.9694H11.5V16.4694ZM11.75 21.4986V16.2194H11.25V21.4986H11.75ZM21.4986 21.2486H11.5V21.7486H21.4986V21.2486ZM21.2486 16.2194V21.4986H21.7486V16.2194H21.2486Z" fill="white"/>
</g>
</g>
</svg>
