<svg width="20" height="16" viewBox="0 0 20 16" fill="none" xmlns="http://www.w3.org/2000/svg">
<path fill-rule="evenodd" clip-rule="evenodd" d="M2 12.219V3.618L5.236 2H8.381L9.381 4H7V6H17.72L17.22 8H11C10.569 8 10.188 8.275 10.052 8.683L8.344 13.805L2 12.219ZM9.949 15.316L11.721 10H18C18.46 10 18.859 9.687 18.971 9.242L19.971 5.242C20.045 4.946 19.978 4.627 19.788 4.385C19.598 4.142 19.308 4 19 4H11.618L9.895 0.552C9.726 0.214 9.379 0 9 0H5C4.845 0 4.691 0.036 4.553 0.105L0.553 2.105C0.214 2.275 0 2.621 0 3V13C0 13.459 0.313 13.859 0.757 13.97L8.757 15.97C9.265 16.096 9.783 15.812 9.949 15.316Z" fill="#757575"/>
</svg>
