<svg width="24" height="24" viewBox="0 0 24 24" fill="none" xmlns="http://www.w3.org/2000/svg">
    <path fill-rule="evenodd" clip-rule="evenodd" d="M4 17.219V8.618L7.236 7H10.381L11.381 9H9V11H19.72L19.22 13H13C12.569 13 12.188 13.275 12.052 13.683L10.344 18.805L4 17.219ZM11.949 20.316L13.721 15H20C20.46 15 20.859 14.687 20.971 14.242L21.971 10.242C22.045 9.946 21.978 9.627 21.788 9.385C21.598 9.142 21.308 9 21 9H13.618L11.895 5.552C11.726 5.214 11.379 5 11 5H7C6.845 5 6.691 5.036 6.553 5.105L2.553 7.105C2.214 7.275 2 7.621 2 8V18C2 18.459 2.313 18.859 2.757 18.97L10.757 20.97C11.265 21.096 11.783 20.812 11.949 20.316Z" fill="#757575"/>
    <mask id="mask0" mask-type="alpha" maskUnits="userSpaceOnUse" x="2" y="5" width="21" height="16">
        <path fill-rule="evenodd" clip-rule="evenodd" d="M4 17.219V8.618L7.236 7H10.381L11.381 9H9V11H19.72L19.22 13H13C12.569 13 12.188 13.275 12.052 13.683L10.344 18.805L4 17.219ZM11.949 20.316L13.721 15H20C20.46 15 20.859 14.687 20.971 14.242L21.971 10.242C22.045 9.946 21.978 9.627 21.788 9.385C21.598 9.142 21.308 9 21 9H13.618L11.895 5.552C11.726 5.214 11.379 5 11 5H7C6.845 5 6.691 5.036 6.553 5.105L2.553 7.105C2.214 7.275 2 7.621 2 8V18C2 18.459 2.313 18.859 2.757 18.97L10.757 20.97C11.265 21.096 11.783 20.812 11.949 20.316Z" fill="white"/>
    </mask>
    <g mask="url(#mask0)">
        <path fill-rule="evenodd" clip-rule="evenodd" d="M0 0H24V24H0V0Z" fill="#314149"/>
    </g>
</svg>
