<svg width="18" height="18" viewBox="0 0 18 18" fill="none" xmlns="http://www.w3.org/2000/svg">
<path d="M12.4302 6.20549L11.0212 6.15381L10.7158 14.4958L12.1248 14.5473L12.4302 6.20549Z" fill="#314149"/>
<path d="M9.70516 6.18018H8.29526V14.5222H9.70516V6.18018Z" fill="#314149"/>
<path d="M7.28395 14.4963L6.97848 6.1543L5.56949 6.20601L5.875 14.548L7.28395 14.4963Z" fill="#314149"/>
<path d="M0.611069 2.70215V4.11205H2.08021L3.24571 17.3566C3.27767 17.7206 3.58247 17.9998 3.94785 17.9998H14.0286C14.394 17.9998 14.699 17.7204 14.7307 17.3564L15.8962 4.11205H17.3891V2.70215H0.611069ZM13.3828 16.5899H4.59339L3.49553 4.11205H14.4809L13.3828 16.5899Z" fill="#314149"/>
<path d="M11.3027 0H6.69697C6.04911 0 5.52205 0.527062 5.52205 1.17492V3.40731H6.93195V1.40991H11.0677V3.40731H12.4776V1.17492C12.4776 0.527062 11.9506 0 11.3027 0Z" fill="#314149"/>
</svg>
