<svg width="12" height="14" viewBox="0 0 12 14" fill="none" xmlns="http://www.w3.org/2000/svg">
<path d="M6.14296 6.71429C4.56751 6.71429 3.28577 5.43264 3.28577 3.8572C3.28577 2.28175 4.56751 1 6.14296 1C7.7184 1 9.00015 2.28175 9.00015 3.8572C9.00015 5.43264 7.7184 6.71429 6.14296 6.71429ZM6.14296 1.85715C5.04013 1.85715 4.14291 2.75427 4.14291 3.8572C4.14291 4.96002 5.04013 5.85714 6.14296 5.85714C7.24578 5.85714 8.143 4.96002 8.143 3.8572C8.143 2.75427 7.24578 1.85715 6.14296 1.85715Z" fill="#738C99" stroke="#738C99" stroke-width="0.25"/>
<path d="M10.8572 13H1.42857C1.192 13 1 12.808 1 12.5714V10.5714C1 9.07483 2.21771 7.85712 3.71427 7.85712H8.57151C10.0681 7.85712 11.2858 9.07483 11.2858 10.5714V12.5714C11.2858 12.808 11.0938 13 10.8572 13ZM1.85715 12.1428H10.4286V10.5714C10.4286 9.54745 9.59544 8.71426 8.57151 8.71426H3.71427C2.69034 8.71426 1.85715 9.54745 1.85715 10.5714V12.1428Z" fill="#738C99" stroke="#738C99" stroke-width="0.25"/>
</svg>
