<svg width="4" height="16" viewBox="0 0 4 16" fill="none" xmlns="http://www.w3.org/2000/svg">
<path d="M0.607178 14.1564C0.607178 13.8028 0.749542 13.5025 1.03422 13.2553C1.31895 13.008 1.66501 12.884 2.07174 12.884C2.42996 12.884 2.7396 13.008 3.00071 13.2553C3.26188 13.5025 3.39289 13.8028 3.39289 14.1564C3.39289 14.4957 3.26198 14.7925 3.00071 15.0469C2.7396 15.3014 2.42991 15.4286 2.07174 15.4286C1.66496 15.4286 1.31895 15.3013 1.03422 15.0469C0.749542 14.7925 0.607178 14.4957 0.607178 14.1564ZM0.74419 1.69949C0.74419 1.33944 0.865095 1.06133 1.10705 0.865414C1.34891 0.6695 1.66216 0.571442 2.04678 0.571442C2.43141 0.571442 2.71398 0.673453 2.89417 0.877272C3.0743 1.08109 3.16459 1.3551 3.16459 1.69949C3.16459 2.82799 3.14528 3.35219 3.10751 5.906C3.06935 8.45992 3.05049 9.26466 3.05049 10.3927C3.05049 10.6281 2.94169 10.8124 2.72439 10.9453C2.50674 11.0784 2.28089 11.1449 2.04683 11.1449C1.36117 11.1449 1.01826 10.8944 1.01826 10.3927C1.01826 9.26466 0.972543 8.45992 0.881252 5.906C0.78981 3.35214 0.74419 2.82794 0.74419 1.69949Z" fill="white"/>
</svg>
