<svg width="26" height="24" viewBox="0 0 26 24" fill="none" xmlns="http://www.w3.org/2000/svg">
<path d="M23.6397 17.9028C24.1577 17.3564 24.4766 16.6196 24.4766 15.8086C24.4766 14.3913 23.5041 13.1974 22.1914 12.8582V10.4766C22.1914 9.21668 21.1661 8.19141 19.9062 8.19141H17.3596C16.9843 7.13312 16.2302 6.25309 15.2608 5.71531C15.7787 5.16891 16.0977 4.43207 16.0977 3.62109C16.0977 1.94125 14.7306 0.574219 13.0508 0.574219C11.364 0.574219 9.95312 1.93795 9.95312 3.62109C9.95312 4.40668 10.2593 5.14859 10.8164 5.71988C9.85649 6.25095 9.0805 7.11977 8.69477 8.19141H6.09375C4.83387 8.19141 3.80859 9.21668 3.80859 10.4766V12.8582C2.4959 13.1974 1.52344 14.3913 1.52344 15.8086C1.52344 16.6196 1.84234 17.3564 2.36031 17.9028C0.95418 18.6833 0 20.1834 0 21.9023V22.6641C0 23.0845 0.34125 23.4258 0.761719 23.4258H8.37891C8.79937 23.4258 9.14062 23.0845 9.14062 22.6641V21.9023H16.8594V22.6641C16.8594 23.0845 17.2006 23.4258 17.6211 23.4258H25.2383C25.6588 23.4258 26 23.0845 26 22.6641V21.9023C26 20.1834 25.0458 18.6833 23.6397 17.9028ZM22.9531 15.8086C22.9531 16.6485 22.2696 17.332 21.4297 17.332C20.5898 17.332 19.9062 16.6485 19.9062 15.8086C19.9062 14.9687 20.5898 14.2852 21.4297 14.2852C22.2696 14.2852 22.9531 14.9687 22.9531 15.8086ZM13.0508 2.09766C13.8907 2.09766 14.5742 2.78117 14.5742 3.62109C14.5742 4.46102 13.8907 5.14453 13.0508 5.14453C12.1977 5.14453 11.4766 4.4468 11.4766 3.62109C11.4766 2.79539 12.1977 2.09766 13.0508 2.09766ZM13.0508 6.66797C14.7306 6.66797 16.0977 8.035 16.0977 9.71484H9.95312C9.95312 8.035 11.3425 6.66797 13.0508 6.66797ZM4.57031 14.2852C5.41023 14.2852 6.09375 14.9687 6.09375 15.8086C6.09375 16.6485 5.41023 17.332 4.57031 17.332C3.73039 17.332 3.04688 16.6485 3.04688 15.8086C3.04688 14.9687 3.73039 14.2852 4.57031 14.2852ZM1.52344 21.9023C1.52344 20.2225 2.89047 18.8555 4.57031 18.8555C6.25016 18.8555 7.61719 20.2225 7.61719 21.9023H1.52344ZM17.1209 20.3789H8.8791C8.50383 19.3206 7.74973 18.4406 6.78031 17.9028C7.29828 17.3564 7.61719 16.6196 7.61719 15.8086C7.61719 14.3913 6.64473 13.1974 5.33203 12.8582V10.4766C5.33203 10.0566 5.67379 9.71484 6.09375 9.71484H8.42969V10.4766C8.42969 10.897 8.77094 11.2383 9.19141 11.2383H16.8594C17.2798 11.2383 17.6211 10.897 17.6211 10.4766V9.71484H19.9062C20.3262 9.71484 20.668 10.0566 20.668 10.4766V12.8582C19.3553 13.1974 18.3828 14.3913 18.3828 15.8086C18.3828 16.6196 18.7017 17.3564 19.2197 17.9028C18.2503 18.4406 17.4962 19.3206 17.1209 20.3789ZM18.3828 21.9023C18.3828 20.2225 19.7498 18.8555 21.4297 18.8555C23.1095 18.8555 24.4766 20.2225 24.4766 21.9023H18.3828Z" fill="#314149"/>
</svg>
