<svg width="16" height="16" viewBox="0 0 16 16" fill="none" xmlns="http://www.w3.org/2000/svg">
<path d="M15.8908 7.65737C14.9196 6.3598 13.7532 5.22712 12.4348 4.30138L14.6896 2.0019C14.9166 1.77832 14.9229 1.40942 14.7037 1.17792C14.4845 0.946413 14.1227 0.939994 13.8957 1.16357C13.891 1.16825 13.8863 1.17303 13.8817 1.17792L11.4183 3.68776C10.3697 3.09924 9.19664 2.77927 8 2.75537C3.65718 2.75537 0.252076 7.45691 0.109209 7.65734C-0.0364031 7.86163 -0.0364031 8.13834 0.109209 8.34263C1.08038 9.6402 2.24679 10.7729 3.56517 11.6986L1.31034 13.9981C1.08333 14.2217 1.07703 14.5906 1.29627 14.8221C1.51551 15.0536 1.87725 15.06 2.10426 14.8364C2.10901 14.8317 2.1137 14.827 2.11832 14.8221L4.58171 12.3122C5.63026 12.9008 6.80333 13.2207 7.99997 13.2446C12.3428 13.2446 15.7479 8.54309 15.8908 8.34263C16.0364 8.13837 16.0364 7.86166 15.8908 7.65737ZM4.39602 10.8531C3.23196 10.0624 2.18853 9.10109 1.29949 8.00002C2.14062 6.96099 4.86858 3.92084 8 3.92084C8.89092 3.93921 9.76684 4.15811 10.5651 4.56184L9.57311 5.57348C8.26063 4.68486 6.49024 5.04953 5.61888 6.38801C4.98413 7.36301 4.98413 8.63101 5.61888 9.60602L4.39602 10.8531ZM9.54285 7.25119C9.65468 7.4844 9.7133 7.74041 9.71427 8.00002C9.71427 8.96553 8.94677 9.74823 8 9.74823C7.74544 9.74724 7.4944 9.68745 7.26571 9.57341L9.54285 7.25119ZM6.45716 8.74881C6.34533 8.5156 6.28671 8.25959 6.28573 7.99998C6.28573 7.03447 7.05324 6.25177 8 6.25177C8.25457 6.25276 8.50561 6.31255 8.73429 6.42659L6.45716 8.74881ZM8 12.0792C7.10909 12.0608 6.2332 11.8419 5.4349 11.4382L6.42689 10.4265C7.73938 11.3151 9.50977 10.9505 10.3811 9.61199C11.0159 8.63699 11.0159 7.36899 10.3811 6.39398L11.604 5.14691C12.768 5.93757 13.8115 6.89895 14.7005 7.99998C13.8594 9.03904 11.1314 12.0792 8 12.0792Z" fill="#738C99"/>
</svg>
