<svg width="16" height="14" viewBox="0 0 16 14" fill="none" xmlns="http://www.w3.org/2000/svg">
<path d="M15.8908 6.65737C14.9196 5.3598 13.7532 4.22712 12.4348 3.30138L14.6896 1.0019C14.9166 0.778318 14.9229 0.409417 14.7037 0.177915C14.4845 -0.0535869 14.1227 -0.0600062 13.8957 0.163574C13.891 0.168252 13.8863 0.173032 13.8817 0.177915L11.4183 2.68776C10.3697 2.09924 9.19664 1.77927 8 1.75537C3.65718 1.75537 0.252076 6.45691 0.109209 6.65734C-0.0364031 6.86163 -0.0364031 7.13834 0.109209 7.34263C1.08038 8.6402 2.24679 9.77288 3.56517 10.6986L1.31034 12.9981C1.08333 13.2217 1.07703 13.5906 1.29627 13.8221C1.51551 14.0536 1.87725 14.06 2.10426 13.8364C2.10901 13.8317 2.1137 13.827 2.11832 13.8221L4.58171 11.3122C5.63026 11.9008 6.80333 12.2207 7.99997 12.2446C12.3428 12.2446 15.7479 7.54309 15.8908 7.34263C16.0364 7.13837 16.0364 6.86166 15.8908 6.65737ZM4.39602 9.85309C3.23196 9.06243 2.18853 8.10109 1.29949 7.00002C2.14062 5.96099 4.86858 2.92084 8 2.92084C8.89092 2.93921 9.76684 3.15811 10.5651 3.56184L9.57311 4.57348C8.26063 3.68486 6.49024 4.04953 5.61888 5.38801C4.98413 6.36301 4.98413 7.63101 5.61888 8.60602L4.39602 9.85309ZM9.54285 6.25119C9.65468 6.4844 9.7133 6.74041 9.71427 7.00002C9.71427 7.96553 8.94677 8.74823 8 8.74823C7.74544 8.74724 7.4944 8.68745 7.26571 8.57341L9.54285 6.25119ZM6.45716 7.74881C6.34533 7.5156 6.28671 7.25959 6.28573 6.99998C6.28573 6.03447 7.05324 5.25177 8 5.25177C8.25457 5.25276 8.50561 5.31255 8.73429 5.42659L6.45716 7.74881ZM8 11.0792C7.10909 11.0608 6.2332 10.8419 5.4349 10.4382L6.42689 9.42652C7.73938 10.3151 9.50977 9.95047 10.3811 8.61199C11.0159 7.63699 11.0159 6.36899 10.3811 5.39398L11.604 4.14691C12.768 4.93757 13.8115 5.89895 14.7005 6.99998C13.8594 8.03904 11.1314 11.0792 8 11.0792Z" fill="#738C99"/>
</svg>
