<svg width="22" height="22" viewBox="0 0 22 22" fill="none" xmlns="http://www.w3.org/2000/svg">
    <mask id="mask0" mask-type="alpha" maskUnits="userSpaceOnUse" x="2" y="2" width="18" height="18">
        <path fill-rule="evenodd" clip-rule="evenodd"
              d="M11.0001 11.6C8.3529 11.6 6.2001 9.4472 6.2001 6.8C6.2001 4.1528 8.3529 2 11.0001 2C13.6473 2 15.8001 4.1528 15.8001 6.8C15.8001 9.4472 13.6473 11.6 11.0001 11.6ZM17.4701 17.95C16.8047 15.4188 14.3166 13.75 10.9695 13.75C7.62245 13.75 5.1355 15.4188 4.47009 17.95H17.4701ZM19.4001 20H2.6001V18.8C2.6001 14.5604 6.0546 11.6 11.0001 11.6C15.9466 11.6 19.4001 14.5604 19.4001 18.8V20ZM11.0501 9.4C9.58867 9.4 8.40015 8.21147 8.40015 6.75C8.40015 5.2872 9.58867 4.1 11.0501 4.1C12.5116 4.1 13.7001 5.2872 13.7001 6.75C13.7001 8.21147 12.5116 9.4 11.0501 9.4Z"
              fill="white"/>
    </mask>
    <g mask="url(#mask0)">
        <path fill-rule="evenodd" clip-rule="evenodd" d="M0 0H22V22H0V0Z" fill="#314149"/>
    </g>
</svg>
