<svg width="122" height="122" viewBox="0 0 122 122" fill="none" xmlns="http://www.w3.org/2000/svg">
    <path
        d="M61 121.5C94.4132 121.5 121.5 94.4132 121.5 61C121.5 27.5868 94.4132 0.5 61 0.5C27.5868 0.5 0.5 27.5868 0.5 61C0.5 94.4132 27.5868 121.5 61 121.5Z"
        fill="#00A3FF" stroke="white"/>
    <path fill-rule="evenodd" clip-rule="evenodd"
          d="M79.3255 45.9778C79.3255 43.2222 76.9776 41 74.0662 41C71.1549 41 68.7131 43.2222 68.807 45.9778C68.807 48.7333 71.1549 50.9556 74.0662 50.9556C76.9776 50.9556 79.3255 48.7333 79.3255 45.9778ZM39.5992 81H82.0491C83.1761 81 83.9274 79.8444 83.4578 78.7778L73.9723 61.0889C73.4088 60.0222 71.7184 60.0222 71.1549 61.0889L68.0557 66.9556C67.4922 68.0222 65.8017 68.0222 65.2382 66.9556L56.2223 49.8889C55.6588 48.8222 53.9683 48.8222 53.4048 49.8889L38.1904 78.7778C37.6269 79.8444 38.3783 81 39.5992 81Z"
          fill="white"/>
</svg>
