<svg width="8" height="16" viewBox="0 0 8 16" fill="none" xmlns="http://www.w3.org/2000/svg">
<path d="M7.00054 13.4892L6.80492 14.2888C6.21808 14.5204 5.74931 14.6967 5.40024 14.8179C5.0508 14.9395 4.64477 15 4.18214 15C3.47171 15 2.91912 14.826 2.52501 14.4803C2.1309 14.1332 1.93378 13.6934 1.93378 13.1599C1.93378 12.9534 1.94808 12.741 1.97782 12.5245C2.00781 12.3078 2.05549 12.0638 2.12073 11.791L2.85413 9.1952C2.91937 8.94664 2.97483 8.71112 3.01925 8.48841C3.0643 8.26707 3.086 8.06343 3.086 7.88011C3.086 7.54861 3.01737 7.31673 2.88073 7.18636C2.74409 7.05637 2.48335 6.99037 2.09627 6.99037C1.90667 6.99037 1.71181 7.02074 1.51319 7.07946C1.31368 7.13843 1.14317 7.1954 1 7.24835L1.19612 6.44808C1.67656 6.25246 2.13579 6.08495 2.57507 5.94593C3.01436 5.80653 3.42943 5.73676 3.82203 5.73676C4.52757 5.73676 5.072 5.90728 5.45432 6.24832C5.83664 6.58961 6.02774 7.03203 6.02774 7.57722C6.02774 7.69002 6.01519 7.88877 5.98821 8.17284C5.96186 8.45754 5.9128 8.7184 5.84128 8.95567L5.11103 11.5411C5.05118 11.7487 4.99735 11.9861 4.95055 12.2533C4.90224 12.5186 4.87915 12.7214 4.87915 12.8574C4.87915 13.2007 4.95569 13.4351 5.10914 13.5597C5.26373 13.6843 5.52998 13.7463 5.90816 13.7463C6.08571 13.7463 6.28772 13.7148 6.51219 13.6529C6.73604 13.5911 6.89928 13.5367 7.00054 13.4892ZM7.18574 2.63492C7.18574 3.08538 7.01597 3.47008 6.67481 3.7864C6.33452 4.10385 5.92447 4.2627 5.44479 4.2627C4.9636 4.2627 4.55254 4.10385 4.20837 3.7864C3.86482 3.46995 3.69267 3.08538 3.69267 2.63492C3.69267 2.18535 3.86482 1.80002 4.20837 1.47969C4.55191 1.15985 4.96372 1 5.44479 1C5.92435 1 6.33452 1.16023 6.67481 1.47969C7.01622 1.80002 7.18574 2.18548 7.18574 2.63492Z" fill="white" stroke="#C4D2DD" stroke-width="0.6"/>
</svg>
