<svg width="25" height="24" viewBox="0 0 25 24" fill="none" xmlns="http://www.w3.org/2000/svg">
<path fill-rule="evenodd" clip-rule="evenodd" d="M3.75781 0.3125H21.4297C23.0555 0.3125 24.375 1.63053 24.375 3.25781V20.9297C24.375 22.5555 23.0555 23.875 21.4297 23.875H3.75781C2.132 23.875 0.8125 22.5555 0.8125 20.9297V3.25781C0.8125 1.632 2.132 0.3125 3.75781 0.3125ZM7.07438 19.457C7.88729 19.457 8.54704 18.7973 8.54704 17.9844V4.73047C8.54704 3.91609 7.88729 3.25781 7.07438 3.25781H5.23047C4.41756 3.25781 3.75781 3.91609 3.75781 4.73047V17.9844C3.75781 18.7973 4.41756 19.457 5.23047 19.457H7.07438ZM19.957 13.5664C20.7699 13.5664 21.4297 12.9067 21.4297 12.0938V4.73047C21.4297 3.91609 20.7699 3.25781 19.957 3.25781H18.1131C17.3002 3.25781 16.6405 3.91609 16.6405 4.73047V12.0938C16.6405 12.9067 17.3002 13.5664 18.1131 13.5664H19.957ZM15.0679 15.4517C15.0679 16.2646 14.4081 16.9243 13.5952 16.9243H11.7513C10.9384 16.9243 10.2787 16.2646 10.2787 15.4517V4.77183C10.2787 3.95746 10.9384 3.29918 11.7513 3.29918H13.5952C14.4081 3.29918 15.0679 3.95746 15.0679 4.77183V15.4517Z" fill="#643C93"/>
</svg>
