<svg width="34" height="34" viewBox="0 0 34 34" fill="none" xmlns="http://www.w3.org/2000/svg">
<path fill-rule="evenodd" clip-rule="evenodd" d="M17 34C26.3888 34 34 26.3888 34 17C34 7.61116 26.3888 0 17 0C7.61116 0 0 7.61116 0 17C0 26.3888 7.61116 34 17 34Z" fill="white"/>
<path fill-rule="evenodd" clip-rule="evenodd" d="M10.0884 7.79999H23.8192C25.0825 7.79999 26.1077 8.82407 26.1077 10.0884V23.8192C26.1077 25.0825 25.0825 26.1077 23.8192 26.1077H10.0884C8.82522 26.1077 7.79999 25.0825 7.79999 23.8192V10.0884C7.79999 8.82522 8.82522 7.79999 10.0884 7.79999ZM12.6654 22.675C13.297 22.675 13.8096 22.1624 13.8096 21.5308V11.2327C13.8096 10.5999 13.297 10.0884 12.6654 10.0884H11.2327C10.6011 10.0884 10.0884 10.5999 10.0884 11.2327V21.5308C10.0884 22.1624 10.6011 22.675 11.2327 22.675H12.6654ZM22.675 18.0981C23.3066 18.0981 23.8192 17.5855 23.8192 16.9538V11.2327C23.8192 10.5999 23.3066 10.0884 22.675 10.0884H21.2423C20.6107 10.0884 20.0981 10.5999 20.0981 11.2327V16.9538C20.0981 17.5855 20.6107 18.0981 21.2423 18.0981H22.675ZM18.8769 19.5629C18.8769 20.1945 18.3642 20.7071 17.7326 20.7071H16.2999C15.6683 20.7071 15.1557 20.1945 15.1557 19.5629V11.2648C15.1557 10.632 15.6683 10.1206 16.2999 10.1206H17.7326C18.3642 10.1206 18.8769 10.632 18.8769 11.2648V19.5629Z" fill="#643C93"/>
</svg>
