<svg width="40" height="40" viewBox="0 0 40 40" fill="none" xmlns="http://www.w3.org/2000/svg">
    <path fill-rule="evenodd" clip-rule="evenodd" d="M20 40C31.0457 40 40 31.0457 40 20C40 8.9543 31.0457 0 20 0C8.9543 0 0 8.9543 0 20C0 31.0457 8.9543 40 20 40Z" fill="#643C93"/>
    <path fill-rule="evenodd" clip-rule="evenodd" d="M11.8691 9.17639H28.0229C29.5091 9.17639 30.7152 10.3812 30.7152 11.8687V28.0225C30.7152 29.5087 29.5091 30.7149 28.0229 30.7149H11.8691C10.3829 30.7149 9.17676 29.5087 9.17676 28.0225V11.8687C9.17676 10.3825 10.3829 9.17639 11.8691 9.17639ZM14.9007 26.6764C15.6438 26.6764 16.2469 26.0733 16.2469 25.3302V13.2149C16.2469 12.4704 15.6438 11.8687 14.9007 11.8687H13.2152C12.4721 11.8687 11.8691 12.4704 11.8691 13.2149V25.3302C11.8691 26.0733 12.4721 26.6764 13.2152 26.6764H14.9007ZM26.6768 21.2918C27.4198 21.2918 28.0229 20.6887 28.0229 19.9456V13.2149C28.0229 12.4704 27.4198 11.8687 26.6768 11.8687H24.9912C24.2482 11.8687 23.6451 12.4704 23.6451 13.2149V19.9456C23.6451 20.6887 24.2482 21.2918 24.9912 21.2918H26.6768ZM22.2075 23.015C22.2075 23.7581 21.6044 24.3612 20.8614 24.3612H19.1758C18.4328 24.3612 17.8297 23.7581 17.8297 23.015V13.2526C17.8297 12.5082 18.4328 11.9064 19.1758 11.9064H20.8614C21.6044 11.9064 22.2075 12.5082 22.2075 13.2526V23.015Z" fill="white"/>
</svg>
