<svg width="25" height="25" viewBox="0 0 25 25" fill="none" xmlns="http://www.w3.org/2000/svg">
    <path fill-rule="evenodd" clip-rule="evenodd" d="M6.1369 5.29525C6.1369 4.83961 6.50627 4.47025 6.9619 4.47025H23.8C24.2556 4.47025 24.625 4.83961 24.625 5.29525V8.0381C24.625 8.49374 24.2556 8.8631 23.8 8.8631H6.9619C6.50627 8.8631 6.1369 8.49374 6.1369 8.0381V5.29525ZM7.3869 5.72025V7.6131H23.375V5.72025H7.3869ZM6.9619 10.8512C6.50627 10.8512 6.1369 11.2206 6.1369 11.6762V14.4191C6.1369 14.8747 6.50627 15.2441 6.9619 15.2441H23.8C24.2556 15.2441 24.625 14.8747 24.625 14.4191V11.6762C24.625 11.2206 24.2556 10.8512 23.8 10.8512H6.9619ZM7.3869 13.9941V12.1012H23.375V13.9941H7.3869ZM6.9619 17.0417C6.50627 17.0417 6.1369 17.4111 6.1369 17.8667V20.6095C6.1369 21.0652 6.50627 21.4345 6.9619 21.4345H23.8C24.2556 21.4345 24.625 21.0652 24.625 20.6095V17.8667C24.625 17.411 24.2556 17.0417 23.8 17.0417H6.9619ZM7.3869 20.1845V18.2917H23.375V20.1845H7.3869ZM1.2 17.1369C0.744366 17.1369 0.375 17.5063 0.375 17.9619V20.7048C0.375 21.1604 0.744364 21.5298 1.2 21.5298H3.94286C4.39849 21.5298 4.76786 21.1604 4.76786 20.7048V17.9619C4.76786 17.5063 4.39849 17.1369 3.94286 17.1369H1.2ZM1.625 20.2798V18.3869H3.51786V20.2798H1.625ZM0.375 11.6762C0.375 11.2206 0.744366 10.8512 1.2 10.8512H3.94286C4.39849 10.8512 4.76786 11.2206 4.76786 11.6762V14.4191C4.76786 14.8747 4.39849 15.2441 3.94286 15.2441H1.2C0.744364 15.2441 0.375 14.8747 0.375 14.4191V11.6762ZM1.625 12.1012V13.9941H3.51786V12.1012H1.625ZM1.2 4.47025C0.744366 4.47025 0.375 4.83961 0.375 5.29525V8.0381C0.375 8.49374 0.744364 8.8631 1.2 8.8631H3.94286C4.39849 8.8631 4.76786 8.49374 4.76786 8.0381V5.29525C4.76786 4.83961 4.39849 4.47025 3.94286 4.47025H1.2ZM1.625 7.6131V5.72025H3.51786V7.6131H1.625Z" fill="#738C99"/>
</svg>
