<svg width="22" height="18" viewBox="0 0 22 18" fill="none" xmlns="http://www.w3.org/2000/svg">
<path d="M21.9753 1.30629C21.9162 0.598263 21.3442 0 20.6251 0H1.37498C0.655865 0 0.0838435 0.598263 0.023362 1.30629H0V16.6252C0 17.3841 0.61602 18 1.37498 18H20.625C21.384 18 22 17.3841 22 16.6252V1.30629H21.9753ZM6.87499 16.6252H1.37498V12.5008H6.87499V16.6252ZM6.87499 11.2401H1.37498V7.00164H6.87499V11.2401ZM6.87499 5.62681H1.37498V1.50243H6.87499V5.62681ZM13.75 16.6252H8.25002V12.5008H13.75V16.6252ZM13.75 11.2401H8.25002V7.00164H13.75V11.2401ZM13.75 5.62681H8.25002V1.50243H13.75V5.62681ZM20.625 16.6252H15.125V12.5008H20.625V16.6252ZM20.625 11.2401H15.125V7.00164H20.625V11.2401ZM20.625 5.62681H15.125V1.50243H20.625V5.62681Z" fill="#00A3FF"/>
</svg>
