<svg width="12" height="12" viewBox="0 0 12 12" fill="none" xmlns="http://www.w3.org/2000/svg">
  <path d="M9.02907 2.19911C10.5136 3.19686 11.4 4.85914 11.4 6.64579C11.4 9.59809 8.99809 12 6.04574 12C3.0934 12 0.691528 9.59809 0.691528 6.64579C0.691528 4.86438 1.57381 3.2048 3.05168 2.20635C3.3512 2.00397 3.75807 2.08278 3.96045 2.3823C4.1628 2.6819 4.08407 3.08868 3.78451 3.29111C2.66751 4.04576 2.00062 5.29982 2.00062 6.64579C2.00062 8.87626 3.81523 10.6909 6.04574 10.6909C8.27626 10.6909 10.0909 8.87626 10.0909 6.64579C10.0909 5.29585 9.42101 4.03974 8.2989 3.28566C7.99882 3.08397 7.91914 2.67732 8.12074 2.37728C8.32238 2.07728 8.72907 1.99751 9.02907 2.19911Z" fill="#EC374A"/>
  <path d="M5.99996 0C5.66859 0 5.39996 0.26863 5.39996 0.600001V5.4C5.39996 5.73137 5.66859 6 5.99996 6C6.33133 6 6.59996 5.73137 6.59996 5.4V0.6C6.59996 0.268629 6.33133 0 5.99996 0Z" fill="#EC374A"/>
</svg>
