<svg width="15" height="15" viewBox="0 0 15 15" fill="none" xmlns="http://www.w3.org/2000/svg">
<path d="M14.0625 3.31055H13.1342L12.0914 1.64209C12.0111 1.51359 11.8703 1.43555 11.7188 1.43555H10.5176V0.439453C10.5176 0.196758 10.3208 0 10.0781 0H4.92188C4.67918 0 4.48242 0.196758 4.48242 0.439453V1.43555H3.28125C3.12973 1.43555 2.9889 1.51359 2.90859 1.64209L1.86583 3.31055H0.9375C0.694805 3.31055 0.498047 3.5073 0.498047 3.75V11.25C0.498047 11.4927 0.694805 11.6895 0.9375 11.6895H3.7793V14.5605C3.7793 14.8032 3.97605 15 4.21875 15H10.7812C11.0239 15 11.2207 14.8032 11.2207 14.5605V11.6895H14.0625C14.3052 11.6895 14.502 11.4927 14.502 11.25V3.75C14.502 3.5073 14.3052 3.31055 14.0625 3.31055ZM11.4752 2.31445L12.0978 3.31055H10.5176V2.31445H11.4752ZM5.36133 0.878906H9.63867V3.31055H5.36133V0.878906ZM3.5248 2.31445H4.48242V3.31055H2.90224L3.5248 2.31445ZM10.3418 14.1211H4.6582V9.81445H10.3418V14.1211ZM13.623 10.8105H11.2207V9.81445H11.7188C11.9614 9.81445 12.1582 9.61769 12.1582 9.375C12.1582 9.13231 11.9614 8.93555 11.7188 8.93555C11.3537 8.93555 3.65511 8.93555 3.28125 8.93555C3.03855 8.93555 2.8418 9.13231 2.8418 9.375C2.8418 9.61769 3.03855 9.81445 3.28125 9.81445H3.7793V10.8105H1.37695V4.18945H13.623V10.8105Z" fill="#738C99"/>
<path d="M12.1497 5.53923C12.1036 5.29574 11.8504 5.12764 11.5913 5.20466C11.3618 5.2748 11.2282 5.51609 11.2986 5.7528C11.3819 6.00757 11.6385 6.11143 11.8467 6.04519C12.0678 5.9781 12.1941 5.75351 12.1497 5.53923Z" fill="#738C99"/>
</svg>
