<svg width="21" height="22" viewBox="0 0 21 22" fill="none" xmlns="http://www.w3.org/2000/svg">
<path fill-rule="evenodd" clip-rule="evenodd" d="M7.33343 0H15.9629L20.1668 4.20383V16.5C20.1668 17.5111 19.3445 18.3333 18.3334 18.3333H13.597V16.5H18.3343L18.3334 5.5H14.6668V1.83333H7.33343L7.33333 6.41685H5.5L5.50009 1.83333C5.50009 0.823167 6.32234 0 7.33343 0ZM2.75 11.9169C2.75 13.939 4.3945 15.5835 6.41667 15.5835C8.43883 15.5835 10.0833 13.939 10.0833 11.9169C10.0833 9.89468 8.43883 8.25019 6.41667 8.25019C4.3945 8.25019 2.75 9.89468 2.75 11.9169ZM6.41666 17.4169C8.82933 17.4169 10.6228 18.5095 11.1024 20.1669H1.73169C2.21134 18.5095 4.004 17.4169 6.41666 17.4169ZM0 22.0002H12.8333V21.0835C12.8333 17.8449 10.1953 15.5835 6.41667 15.5835C2.63885 15.5835 0 17.8449 0 21.0835V22.0002ZM4.58333 11.9169C4.58333 12.9279 5.40558 13.7502 6.41667 13.7502C7.42775 13.7502 8.25 12.9279 8.25 11.9169C8.25 10.9049 7.42775 10.0835 6.41667 10.0835C5.40558 10.0835 4.58333 10.9049 4.58333 11.9169ZM11 13.7502H16.5V11.9169H11V13.7502ZM16.5 8.2502H11V10.0835H16.5V8.2502Z" fill="#485056"/>
</svg>
