<svg width="16" height="11" viewBox="0 0 16 11" fill="none" xmlns="http://www.w3.org/2000/svg">
    <path d="M15.8908 4.902C14.9196 3.60443 12.9756 1.80647 11.4183 0.932392C10.3697 0.343872 9.19664 0.0239014 8 0C3.65718 0 0.252076 4.70154 0.109209 4.90197C-0.0364031 5.10626 -0.0364031 5.38297 0.109209 5.58725C1.08038 6.88483 3.0244 8.68279 4.58171 9.55687L4.60938 9.58142C4.61413 9.57674 4.614 9.57654 4.60938 9.58142C4.60475 9.5863 4.61413 9.57674 4.60938 9.58142L4.58171 9.55687C5.63026 10.1454 6.80333 10.4654 7.99997 10.4893C12.3428 10.4893 15.7479 5.78772 15.8908 5.58725C16.0364 5.383 16.0364 5.10629 15.8908 4.902ZM5.4349 8.68279C4.27083 7.89214 2.18853 6.34571 1.29949 5.24465C2.14062 4.20562 4.86858 1.16547 8 1.16547C8.89092 1.18384 9.76684 1.40274 10.5651 1.80647L9.57311 2.81811C8.26063 1.92949 6.49024 2.29416 5.61888 3.63263C4.98413 4.60764 4.89062 6.40821 6.42689 7.67115L5.4349 8.68279ZM8.73429 3.67122C9.71427 4.08105 9.7133 4.98504 9.71427 5.24465C9.71427 6.21016 8.94677 6.99286 8 6.99286C7.74544 6.99187 6.93641 6.99286 6.45716 5.99344L8.73429 3.67122ZM6.45716 5.99344C6.34533 5.76023 6.28671 5.50421 6.28573 5.24461C6.28573 4.2791 7.05324 3.4964 8 3.4964C8.25457 3.49739 8.50561 3.55717 8.73429 3.67122L6.45716 5.99344ZM8 9.3238C7.10909 9.30543 6.2332 9.08652 5.4349 8.68279L6.42689 7.67115C7.73938 8.55977 9.50977 8.1951 10.3811 6.85662C11.0159 5.88162 11.1832 3.9082 9.57311 2.81811L10.5651 1.80647C11.7292 2.59712 13.8115 4.14358 14.7005 5.24461C13.8594 6.28367 11.1314 9.3238 8 9.3238Z"
          fill="#738C99"/>
</svg>
