<svg width="14" height="14" viewBox="0 0 14 14" fill="none" xmlns="http://www.w3.org/2000/svg">
<path d="M6.125 0.501602V3.1266H14V0.501602H6.125ZM13.125 2.2516H7V1.3766H13.125V2.2516Z" fill="#738C99"/>
<path d="M6.125 12.7516H14V10.1266H6.125V12.7516ZM7 11.0016H13.125V11.8766H7V11.0016Z" fill="#738C99"/>
<path d="M6.125 7.9391H14V5.3141H6.125V7.9391ZM7 6.1891H13.125V7.0641H7V6.1891Z" fill="#738C99"/>
<path d="M5.25 1.3766H4.375V2.2516H5.25V1.3766Z" fill="#738C99"/>
<path d="M3.06327 2.2516H3.50077V1.3766H3.06327C2.89346 1.37715 2.72401 1.39181 2.55664 1.42035L2.69927 2.2831C2.81955 2.26281 2.94129 2.25226 3.06327 2.2516Z" fill="#738C99"/>
<path d="M2.75319 9.99843L3.75638 11.0016H3.0625C1.85497 11.0002 0.87645 10.0216 0.875 8.81411V4.43911C0.874563 3.63923 1.31078 2.90289 2.0125 2.51893L1.5925 1.75111C0.610176 2.28861 -0.00049189 3.31936 2.97297e-07 4.43911V8.81411C0.0019417 10.5047 1.37192 11.8747 3.0625 11.8766H3.75638L2.75319 12.8798L3.37181 13.4984L5.43113 11.4391L3.37181 9.3798L2.75319 9.99843Z" fill="#738C99"/>
</svg>
