<svg width="24" height="24" viewBox="0 0 24 24" fill="none" xmlns="http://www.w3.org/2000/svg">
<path d="M11.9672 13.1659C14.9229 13.1659 17.3202 10.7685 17.3202 7.81283C17.3202 4.85718 14.9228 2.4762 11.9672 2.4762C9.01152 2.4762 6.61414 4.87358 6.61414 7.81283C6.61414 10.7521 9.01149 13.1659 11.9672 13.1659ZM11.9672 3.87193C14.1346 3.87193 15.9081 5.64532 15.9081 7.81283C15.9081 9.98034 14.1346 11.7537 11.9672 11.7537C9.7997 11.7537 8.02627 9.9803 8.02627 7.81279C8.02627 5.64528 9.79966 3.87193 11.9672 3.87193Z" fill="#738C99" stroke="#738C99" stroke-width="0.5"/>
<path d="M2.70607 21.5238H21.2939C21.688 21.5238 22 21.2118 22 20.8177C22 17.1232 18.9951 14.1018 15.2841 14.1018H8.71594C5.02135 14.1018 2 17.1067 2 20.8177C2 21.2118 2.31198 21.5238 2.70607 21.5238ZM8.71594 15.5139H15.2841C17.977 15.5139 20.1937 17.5172 20.5386 20.1116H3.46141C3.80622 17.5337 6.023 15.5139 8.71594 15.5139Z" fill="#738C99" stroke="#738C99" stroke-width="0.5"/>
</svg>
