<svg width="20" height="20" viewBox="0 0 20 20" fill="none" xmlns="http://www.w3.org/2000/svg">
<g opacity="0.5">
<path fill-rule="evenodd" clip-rule="evenodd" d="M16.666 2.5H3.33268C2.41352 2.5 1.66602 3.24833 1.66602 4.16667V6.66667C1.66602 7.12667 2.03935 7.5 2.49935 7.5V15.8333C2.49935 16.7525 3.24685 17.5 4.16602 17.5H15.8327C16.7519 17.5 17.4993 16.7525 17.4993 15.8333V7.5C17.9594 7.5 18.3327 7.12667 18.3327 6.66667V4.16667C18.3327 3.24833 17.5852 2.5 16.666 2.5ZM15.8327 15.8333H4.16602V7.5H15.8327V15.8333ZM3.33268 5.83333H16.666V4.16667H3.33268V5.83333ZM12.4993 8.33333H7.49935V10.8333H12.4993V8.33333Z" fill="#757575"/>
<mask id="mask0" mask-type="alpha" maskUnits="userSpaceOnUse" x="1" y="2" width="18" height="16">
<path fill-rule="evenodd" clip-rule="evenodd" d="M16.666 2.5H3.33268C2.41352 2.5 1.66602 3.24833 1.66602 4.16667V6.66667C1.66602 7.12667 2.03935 7.5 2.49935 7.5V15.8333C2.49935 16.7525 3.24685 17.5 4.16602 17.5H15.8327C16.7519 17.5 17.4993 16.7525 17.4993 15.8333V7.5C17.9594 7.5 18.3327 7.12667 18.3327 6.66667V4.16667C18.3327 3.24833 17.5852 2.5 16.666 2.5ZM15.8327 15.8333H4.16602V7.5H15.8327V15.8333ZM3.33268 5.83333H16.666V4.16667H3.33268V5.83333ZM12.4993 8.33333H7.49935V10.8333H12.4993V8.33333Z" fill="white"/>
</mask>
<g mask="url(#mask0)">
<path fill-rule="evenodd" clip-rule="evenodd" d="M0 0H20V20H0V0Z" fill="#738C99"/>
</g>
</g>
</svg>
