<svg width="24" height="24" viewBox="0 0 24 24" fill="none" xmlns="http://www.w3.org/2000/svg">
<path fill-rule="evenodd" clip-rule="evenodd" d="M13 15H11V12H12C13.103 12 14 11.103 14 10C14 8.896 13.103 8 12 8C10.897 8 10 8.896 10 10H8C8 7.794 9.794 6 12 6C14.206 6 16 7.794 16 10C16 11.86 14.723 13.428 13 13.874V15ZM13.25 17C13.25 17.69 12.69 18.25 12 18.25C11.31 18.25 10.75 17.69 10.75 17C10.75 16.31 11.31 15.75 12 15.75C12.69 15.75 13.25 16.31 13.25 17ZM12 4C7.589 4 4 7.589 4 12C4 16.411 7.589 20 12 20C16.411 20 20 16.411 20 12C20 7.589 16.411 4 12 4ZM12 22C6.486 22 2 17.515 2 12C2 6.486 6.486 2 12 2C17.514 2 22 6.486 22 12C22 17.515 17.514 22 12 22Z" fill="#7696A0"/>
<!-- <mask id="mask0" mask-type="alpha" maskUnits="userSpaceOnUse" x="2" y="2" width="20" height="20"> -->
<path fill-rule="evenodd" clip-rule="evenodd" d="M13 15H11V12H12C13.103 12 14 11.103 14 10C14 8.896 13.103 8 12 8C10.897 8 10 8.896 10 10H8C8 7.794 9.794 6 12 6C14.206 6 16 7.794 16 10C16 11.86 14.723 13.428 13 13.874V15ZM13.25 17C13.25 17.69 12.69 18.25 12 18.25C11.31 18.25 10.75 17.69 10.75 17C10.75 16.31 11.31 15.75 12 15.75C12.69 15.75 13.25 16.31 13.25 17ZM12 4C7.589 4 4 7.589 4 12C4 16.411 7.589 20 12 20C16.411 20 20 16.411 20 12C20 7.589 16.411 4 12 4ZM12 22C6.486 22 2 17.515 2 12C2 6.486 6.486 2 12 2C17.514 2 22 6.486 22 12C22 17.515 17.514 22 12 22Z" fill="white"/>
<!-- </mask>
<g mask="url(#mask0)">
<path fill-rule="evenodd" clip-rule="evenodd" d="M0 0H24V24H0V0Z" fill="white"/>
</g> -->
</svg>
