<svg width="24" height="13" viewBox="0 0 24 13" fill="none" xmlns="http://www.w3.org/2000/svg">
    <path fill-rule="evenodd" clip-rule="evenodd"
          d="M15 3C15 4.65685 13.6569 6 12 6C10.3431 6 9 4.65685 9 3C9 1.34315 10.3431 0 12 0C13.6569 0 15 1.34315 15 3ZM4.00004 6C2.89547 6 2.00004 5.10457 2.00004 4C2.00004 2.89543 2.89547 2 4.00004 2C5.10461 2 6.00004 2.89543 6.00004 4C6.00004 5.10457 5.10461 6 4.00004 6ZM20 6C21.1046 6 22 5.10457 22 4C22 2.89543 21.1046 2 20 2C18.8955 2 18 2.89543 18 4C18 5.10457 18.8955 6 20 6ZM12 7C15.3137 7 18 9.68629 18 13H6C6 9.68629 8.68629 7 12 7ZM19 13H23.4649C23.8052 12.4117 24 11.7286 24 11C24 8.79086 22.2091 7 20 7C18.8684 7 17.8465 7.46993 17.1188 8.2253C18.2859 9.47588 19 11.1545 19 13ZM0.535129 13H5C5 11.1545 5.71415 9.47588 6.88116 8.2253C6.15353 7.46993 5.13164 7 4 7C1.79086 7 0 8.79086 0 11C0 11.7286 0.194789 12.4117 0.535129 13Z"
          fill="#27AE60"/>
</svg>
