<svg width="24" height="24" viewBox="0 0 24 24" fill="none" xmlns="http://www.w3.org/2000/svg">
    <path fill-rule="evenodd" clip-rule="evenodd" d="M19.9542 9.66667H21.9189C22.5151 9.66667 23 10.1516 23 10.7478V13.2522C23 13.8484 22.5151 14.3333 21.9189 14.3333H19.9542C19.6384 14.3333 19.3775 14.5072 19.2569 14.7988C19.1364 15.0905 19.1974 15.3977 19.4203 15.6209L20.8094 17.0097C21.0136 17.2142 21.1259 17.4857 21.1259 17.7742C21.1259 18.0632 21.0136 18.335 20.8094 18.5392L19.0388 20.3098C18.6304 20.7181 17.9184 20.7189 17.5093 20.3098L16.1206 18.9207C15.8973 18.6978 15.5905 18.636 15.2984 18.7573C15.0068 18.8783 14.8329 19.1384 14.8329 19.4542V21.4189C14.8329 22.0151 14.348 22.5 13.7518 22.5H11.2478C10.6516 22.5 10.1667 22.0151 10.1667 21.4189V19.4542C10.1667 19.1384 9.99283 18.8783 9.70117 18.7573C9.40911 18.6364 9.10228 18.6978 8.87906 18.9207L7.49033 20.3098C7.08122 20.7193 6.36956 20.7185 5.96083 20.3098L4.19022 18.5392C3.98606 18.3346 3.87367 18.0632 3.87367 17.7742C3.87367 17.4857 3.98606 17.2138 4.19022 17.0097L5.57933 15.6209C5.80217 15.3977 5.86361 15.0905 5.74267 14.7988C5.62172 14.5072 5.36156 14.3333 5.04578 14.3333H3.08111C2.48494 14.3333 2 13.8484 2 13.2518V10.7478C2 10.1516 2.48494 9.66667 3.08111 9.66667H5.04578C5.36156 9.66667 5.62211 9.49283 5.74267 9.20117C5.86322 8.9095 5.80217 8.60228 5.57933 8.37906L4.19022 6.99033C3.98606 6.78578 3.87367 6.51433 3.87367 6.22578C3.87367 5.93683 3.98606 5.665 4.19022 5.46083L5.96083 3.69022C6.36917 3.28189 7.08122 3.28111 7.49033 3.69022L8.87906 5.07894C9.10228 5.30178 9.41028 5.36439 9.70117 5.24267C9.99283 5.12172 10.1667 4.86156 10.1667 4.54578V2.58111C10.1667 1.98494 10.6516 1.5 11.2478 1.5H13.7522C14.3484 1.5 14.8333 1.98494 14.8333 2.58111V4.54578C14.8333 4.86156 15.0072 5.12172 15.2988 5.24267C15.5897 5.364 15.8977 5.30178 16.1209 5.07894L17.5097 3.69022C17.9188 3.28111 18.6308 3.28189 19.0392 3.69022L20.8098 5.46083C21.0139 5.66539 21.1263 5.93683 21.1263 6.22578C21.1263 6.51433 21.0139 6.78617 20.8098 6.99033L19.4207 8.37906C19.1978 8.60228 19.1364 8.9095 19.2573 9.20117C19.3783 9.49283 19.6384 9.66667 19.9542 9.66667ZM21.9189 13.5556C22.0861 13.5556 22.2222 13.4194 22.2222 13.2522V10.7478C22.2222 10.5806 22.0861 10.4444 21.9189 10.4448H19.9542C19.3227 10.4448 18.7802 10.0824 18.5387 9.49906C18.2968 8.91572 18.4243 8.27561 18.8708 7.82917L20.2599 6.44044C20.3785 6.32222 20.3785 6.12972 20.2599 6.01111L18.4893 4.2405C18.3714 4.12189 18.1789 4.12189 18.0599 4.2405L16.6712 5.62922C16.2248 6.07567 15.5854 6.20322 15.0013 5.96133C14.418 5.71983 14.0556 5.17733 14.0556 4.54578V2.58111C14.0556 2.41389 13.9194 2.27778 13.7518 2.27778H11.2478C11.0806 2.27778 10.9444 2.41389 10.9444 2.58111V4.54578C10.9444 5.17733 10.582 5.71983 9.99867 5.96094C9.41456 6.20283 8.77483 6.07489 8.32878 5.62883L6.94006 4.24011C6.82144 4.1215 6.62894 4.1215 6.51072 4.24011L4.74011 6.01072C4.6215 6.12894 4.6215 6.32144 4.74011 6.44006L6.12922 7.82878C6.57606 8.27522 6.70322 8.91533 6.46133 9.49867C6.21983 10.082 5.67733 10.4444 5.04578 10.4444H3.08111C2.91389 10.4444 2.77778 10.5806 2.77778 10.7478V13.2522C2.77778 13.4194 2.91389 13.5556 3.08111 13.5556H5.04578C5.67733 13.5556 6.21983 13.918 6.46133 14.5009C6.70322 15.0843 6.57567 15.7244 6.12922 16.1708L4.74011 17.5596C4.6215 17.6778 4.6215 17.8703 4.74011 17.9889L6.51072 19.7595C6.62856 19.8777 6.82106 19.8785 6.94006 19.7595L8.32878 18.3704C8.62589 18.0733 9.00817 17.9177 9.4025 17.9177C9.60161 17.9177 9.80306 17.9574 9.99867 18.0387C10.582 18.2802 10.9444 18.8227 10.9444 19.4542V21.4189C10.9444 21.5861 11.0806 21.7222 11.2478 21.7222H13.7522C13.9194 21.7222 14.0556 21.5861 14.0556 21.4189V19.4542C14.0556 18.8227 14.418 18.2802 15.0013 18.0387C15.5847 17.7976 16.2244 17.9239 16.6712 18.3708L18.0599 19.7599C18.1786 19.8789 18.3711 19.8781 18.4893 19.7599L20.2599 17.9893C20.3785 17.8711 20.3785 17.6786 20.2599 17.5599L18.8708 16.1712C18.4239 15.7248 18.2968 15.0847 18.5387 14.5013C18.7802 13.918 19.3227 13.5556 19.9542 13.5556H21.9189ZM9 12C9 10.0699 10.5699 8.5 12.5 8.5C14.4301 8.5 16 10.0699 16 12C16 13.9301 14.4301 15.5 12.5 15.5C10.5699 15.5 9 13.9301 9 12ZM9.77778 12C9.77778 13.5007 10.9993 14.7222 12.5 14.7222C14.0007 14.7222 15.2222 13.5007 15.2222 12C15.2222 10.4993 14.0007 9.27778 12.5 9.27778C10.9993 9.27778 9.77778 10.4993 9.77778 12Z" fill="white"/>
    <path d="M19.4203 15.6209L19.0664 15.9742L19.0668 15.9745L19.4203 15.6209ZM20.8094 17.0097L21.1633 16.6565L21.1629 16.6561L20.8094 17.0097ZM20.8094 18.5392L20.4558 18.1856L20.4558 18.1856L20.8094 18.5392ZM19.0388 20.3098L19.3923 20.6633L19.3923 20.6633L19.0388 20.3098ZM17.5093 20.3098L17.1557 20.6633L17.1557 20.6633L17.5093 20.3098ZM16.1206 18.9207L16.4742 18.5672L16.4738 18.5668L16.1206 18.9207ZM15.2984 18.7573L15.49 19.2192L15.4903 19.2191L15.2984 18.7573ZM9.70117 18.7573L9.89269 18.2955L9.89247 18.2954L9.70117 18.7573ZM8.87906 18.9207L8.52581 18.5668L8.52545 18.5672L8.87906 18.9207ZM7.49033 20.3098L7.13673 19.9563L7.13661 19.9564L7.49033 20.3098ZM5.96083 20.3098L5.60728 20.6633L5.60728 20.6633L5.96083 20.3098ZM4.19022 18.5392L3.83633 18.8924L3.83667 18.8927L4.19022 18.5392ZM4.19022 17.0097L3.83672 16.6561L3.83667 16.6561L4.19022 17.0097ZM5.57933 15.6209L5.93284 15.9745L5.93319 15.9742L5.57933 15.6209ZM5.74267 14.7988L5.2808 14.9904L5.2808 14.9904L5.74267 14.7988ZM5.74267 9.20117L5.28058 9.01017L5.28058 9.01017L5.74267 9.20117ZM5.57933 8.37906L5.9332 8.02581L5.93284 8.02545L5.57933 8.37906ZM4.19022 6.99033L3.83633 7.34355L3.83672 7.34394L4.19022 6.99033ZM4.19022 5.46083L3.83667 5.10728L3.83667 5.10728L4.19022 5.46083ZM7.49033 3.69022L7.13678 4.04378L7.13678 4.04378L7.49033 3.69022ZM8.87906 5.07894L8.5255 5.4325L8.52581 5.43281L8.87906 5.07894ZM9.70117 5.24267L9.50965 4.7808L9.50816 4.78142L9.70117 5.24267ZM15.2988 5.24267L15.4913 4.7812L15.4904 4.7808L15.2988 5.24267ZM16.1209 5.07894L16.4742 5.43281L16.4745 5.4325L16.1209 5.07894ZM17.5097 3.69022L17.1561 3.33667L17.1561 3.33667L17.5097 3.69022ZM19.0392 3.69022L18.6856 4.04378L18.6856 4.04378L19.0392 3.69022ZM20.8098 5.46083L21.1637 5.10762L21.1633 5.10728L20.8098 5.46083ZM20.8098 6.99033L21.1633 7.34394L21.1633 7.34389L20.8098 6.99033ZM19.4207 8.37906L19.0672 8.02545L19.0668 8.02581L19.4207 8.37906ZM21.9189 10.4448L21.9189 10.9448L21.9201 10.9448L21.9189 10.4448ZM18.5387 9.49906L19.0006 9.3078L19.0005 9.30753L18.5387 9.49906ZM18.8708 7.82917L18.5173 7.47556L18.5172 7.47561L18.8708 7.82917ZM20.2599 6.44044L19.9069 6.08631L19.9064 6.08684L20.2599 6.44044ZM20.2599 6.01111L19.9063 6.36466L19.9063 6.36467L20.2599 6.01111ZM18.4893 4.2405L18.1346 4.59289L18.1357 4.59405L18.4893 4.2405ZM18.0599 4.2405L17.707 3.88637L17.7064 3.88695L18.0599 4.2405ZM16.6712 5.62922L16.3177 5.27567L16.3177 5.27567L16.6712 5.62922ZM15.0013 5.96133L15.1926 5.49938L15.1926 5.49936L15.0013 5.96133ZM9.99867 5.96094L9.80767 5.49886L9.80736 5.49899L9.99867 5.96094ZM8.32878 5.62883L7.97522 5.98239L7.97522 5.98239L8.32878 5.62883ZM6.94006 4.24011L7.29361 3.88656L7.29361 3.88656L6.94006 4.24011ZM6.51072 4.24011L6.86428 4.59366L6.86486 4.59308L6.51072 4.24011ZM4.74011 6.01072L5.09308 6.36486L5.09366 6.36428L4.74011 6.01072ZM4.74011 6.44006L4.38656 6.79361L4.38661 6.79366L4.74011 6.44006ZM6.12922 7.82878L5.77572 8.18238L5.77582 8.18248L6.12922 7.82878ZM6.46133 9.49867L5.99947 9.30715L5.99936 9.30741L6.46133 9.49867ZM6.46133 14.5009L5.9994 14.6923L5.99947 14.6925L6.46133 14.5009ZM6.12922 16.1708L6.48273 16.5244L6.48278 16.5244L6.12922 16.1708ZM4.74011 17.5596L5.09308 17.9137L5.09362 17.9132L4.74011 17.5596ZM4.74011 17.9889L5.09366 17.6353L5.09366 17.6353L4.74011 17.9889ZM6.51072 19.7595L6.86486 19.4065L6.86428 19.4059L6.51072 19.7595ZM6.94006 19.7595L7.29361 20.1131L7.29366 20.113L6.94006 19.7595ZM8.32878 18.3704L7.97522 18.0168L7.97517 18.0169L8.32878 18.3704ZM9.99867 18.0387L9.80682 18.5004L9.80741 18.5006L9.99867 18.0387ZM15.0013 18.0387L14.8103 17.5766L14.8101 17.5767L15.0013 18.0387ZM16.6712 18.3708L17.0248 18.0173L17.0248 18.0172L16.6712 18.3708ZM18.0599 19.7599L18.4141 19.4069L18.4135 19.4064L18.0599 19.7599ZM20.2599 17.9893L19.9069 17.6351L19.9063 17.6357L20.2599 17.9893ZM20.2599 17.5599L20.6134 17.2064L20.6134 17.2063L20.2599 17.5599ZM18.8708 16.1712L19.2243 15.8176L19.2242 15.8175L18.8708 16.1712ZM18.5387 14.5013L19.0005 14.6929L19.0006 14.6926L18.5387 14.5013ZM21.9189 9.16667H19.9542V10.1667H21.9189V9.16667ZM23.5 10.7478C23.5 9.87547 22.7912 9.16667 21.9189 9.16667V10.1667C22.2389 10.1667 22.5 10.4278 22.5 10.7478H23.5ZM23.5 13.2522V10.7478H22.5V13.2522H23.5ZM21.9189 14.8333C22.7912 14.8333 23.5 14.1245 23.5 13.2522H22.5C22.5 13.5722 22.2389 13.8333 21.9189 13.8333V14.8333ZM19.9542 14.8333H21.9189V13.8333H19.9542V14.8333ZM19.719 14.9898C19.762 14.886 19.84 14.8333 19.9542 14.8333V13.8333C19.4369 13.8333 18.993 14.1284 18.7949 14.6078L19.719 14.9898ZM19.7741 15.2677C19.6941 15.1875 19.6756 15.095 19.719 14.9898L18.7949 14.6078C18.5972 15.086 18.7008 15.608 19.0664 15.9742L19.7741 15.2677ZM21.1629 16.6561L19.7738 15.2673L19.0668 15.9745L20.4559 17.3633L21.1629 16.6561ZM21.6259 17.7742C21.6259 17.353 21.4608 16.9546 21.1633 16.6565L20.4555 17.3629C20.5663 17.4739 20.6259 17.6183 20.6259 17.7742H21.6259ZM21.1629 18.8927C21.4611 18.5946 21.6259 18.1955 21.6259 17.7742H20.6259C20.6259 17.9309 20.566 18.0754 20.4558 18.1856L21.1629 18.8927ZM19.3923 20.6633L21.1629 18.8927L20.4558 18.1856L18.6852 19.9562L19.3923 20.6633ZM17.1557 20.6633C17.7603 21.2679 18.789 21.2667 19.3923 20.6633L18.6852 19.9562C18.4719 20.1695 18.0764 20.1698 17.8628 19.9562L17.1557 20.6633ZM15.767 19.2742L17.1557 20.6633L17.8629 19.9563L16.4742 18.5672L15.767 19.2742ZM15.4903 19.2191C15.5944 19.1758 15.6864 19.1938 15.7673 19.2745L16.4738 18.5668C16.1083 18.2019 15.5866 18.0962 15.1066 18.2956L15.4903 19.2191ZM15.3329 19.4542C15.3329 19.3407 15.385 19.2627 15.49 19.2192L15.1069 18.2955C14.6286 18.4938 14.3329 18.9362 14.3329 19.4542H15.3329ZM15.3329 21.4189V19.4542H14.3329V21.4189H15.3329ZM13.7518 23C14.6241 23 15.3329 22.2912 15.3329 21.4189H14.3329C14.3329 21.7389 14.0719 22 13.7518 22V23ZM11.2478 23H13.7518V22H11.2478V23ZM9.66667 21.4189C9.66667 22.2912 10.3755 23 11.2478 23V22C10.9278 22 10.6667 21.7389 10.6667 21.4189H9.66667ZM9.66667 19.4542V21.4189H10.6667V19.4542H9.66667ZM9.50965 19.2192C9.61463 19.2627 9.66667 19.3407 9.66667 19.4542H10.6667C10.6667 18.9362 10.371 18.4938 9.89269 18.2955L9.50965 19.2192ZM9.2323 19.2745C9.31285 19.1941 9.40492 19.1758 9.50986 19.2193L9.89247 18.2954C9.4133 18.0969 8.8917 18.2015 8.52581 18.5668L9.2323 19.2745ZM7.84394 20.6633L9.23266 19.2742L8.52545 18.5672L7.13673 19.9563L7.84394 20.6633ZM5.60728 20.6633C6.21094 21.267 7.23932 21.2685 7.84405 20.6632L7.13661 19.9564C6.92313 20.1701 6.52817 20.17 6.31439 19.9562L5.60728 20.6633ZM3.83667 18.8927L5.60728 20.6633L6.31439 19.9562L4.54378 18.1856L3.83667 18.8927ZM3.37367 17.7742C3.37367 18.1958 3.5387 18.5942 3.83633 18.8924L4.54411 18.1859C4.43341 18.075 4.37367 17.9306 4.37367 17.7742H3.37367ZM3.83667 16.6561C3.53859 16.9542 3.37367 17.3533 3.37367 17.7742H4.37367C4.37367 17.6181 4.43352 17.4735 4.54378 17.3632L3.83667 16.6561ZM5.22583 15.2673L3.83672 16.6561L4.54373 17.3633L5.93284 15.9745L5.22583 15.2673ZM5.2808 14.9904C5.32409 15.0947 5.30592 15.1871 5.22547 15.2677L5.93319 15.9742C6.29842 15.6083 6.40313 15.0863 6.20453 14.6073L5.2808 14.9904ZM5.04578 14.8333C5.15933 14.8333 5.23727 14.8854 5.2808 14.9904L6.20453 14.6073C6.00618 14.129 5.56378 13.8333 5.04578 13.8333V14.8333ZM3.08111 14.8333H5.04578V13.8333H3.08111V14.8333ZM1.5 13.2518C1.5 14.1244 2.20868 14.8333 3.08111 14.8333V13.8333C2.7612 13.8333 2.5 13.5724 2.5 13.2518H1.5ZM1.5 10.7478V13.2518H2.5V10.7478H1.5ZM3.08111 9.16667C2.2088 9.16667 1.5 9.87547 1.5 10.7478H2.5C2.5 10.4278 2.76109 10.1667 3.08111 10.1667V9.16667ZM5.04578 9.16667H3.08111V10.1667H5.04578V9.16667ZM5.28058 9.01017C5.23754 9.11432 5.15973 9.16667 5.04578 9.16667V10.1667C5.56338 10.1667 6.00669 9.87135 6.20475 9.39216L5.28058 9.01017ZM5.22547 8.7323C5.30555 8.81252 5.32405 8.90501 5.28058 9.01017L6.20475 9.39216C6.4024 8.91399 6.29878 8.39203 5.9332 8.02581L5.22547 8.7323ZM3.83672 7.34394L5.22583 8.73266L5.93284 8.02545L4.54373 6.63673L3.83672 7.34394ZM3.37367 6.22578C3.37367 6.64701 3.53877 7.04542 3.83633 7.34355L4.54411 6.63712C4.43334 6.52613 4.37367 6.38165 4.37367 6.22578H3.37367ZM3.83667 5.10728C3.53852 5.40543 3.37367 5.80452 3.37367 6.22578H4.37367C4.37367 6.06914 4.43359 5.92457 4.54378 5.81439L3.83667 5.10728ZM5.60728 3.33667L3.83667 5.10728L4.54378 5.81439L6.31439 4.04378L5.60728 3.33667ZM7.84389 3.33667C7.23928 2.73206 6.21064 2.7333 5.60728 3.33667L6.31439 4.04378C6.52769 3.83047 6.92316 3.83016 7.13678 4.04378L7.84389 3.33667ZM9.23261 4.72539L7.84389 3.33667L7.13678 4.04378L8.5255 5.4325L9.23261 4.72539ZM9.50816 4.78142C9.40691 4.82379 9.31407 4.80671 9.2323 4.72508L8.52581 5.43281C8.89049 5.79685 9.41365 5.90499 9.89417 5.70391L9.50816 4.78142ZM9.66667 4.54578C9.66667 4.65933 9.61463 4.73727 9.50965 4.7808L9.89269 5.70453C10.371 5.50618 10.6667 5.06378 10.6667 4.54578H9.66667ZM9.66667 2.58111V4.54578H10.6667V2.58111H9.66667ZM11.2478 1C10.3755 1 9.66667 1.7088 9.66667 2.58111H10.6667C10.6667 2.26109 10.9278 2 11.2478 2V1ZM13.7522 1H11.2478V2H13.7522V1ZM15.3333 2.58111C15.3333 1.7088 14.6245 1 13.7522 1V2C14.0722 2 14.3333 2.26109 14.3333 2.58111H15.3333ZM15.3333 4.54578V2.58111H14.3333V4.54578H15.3333ZM15.4904 4.7808C15.3854 4.73727 15.3333 4.65933 15.3333 4.54578H14.3333C14.3333 5.06378 14.629 5.50618 15.1073 5.70453L15.4904 4.7808ZM15.7677 4.72508C15.6863 4.80634 15.5933 4.82375 15.4913 4.7812L15.1063 5.70413C15.5861 5.90425 16.1091 5.79721 16.4742 5.43281L15.7677 4.72508ZM17.1561 3.33667L15.7674 4.72539L16.4745 5.4325L17.8632 4.04378L17.1561 3.33667ZM19.3927 3.33667C18.7894 2.7333 17.7607 2.73206 17.1561 3.33667L17.8632 4.04378C18.0768 3.83016 18.4723 3.83047 18.6856 4.04378L19.3927 3.33667ZM21.1633 5.10728L19.3927 3.33667L18.6856 4.04378L20.4562 5.81439L21.1633 5.10728ZM21.6263 6.22578C21.6263 5.80425 21.4613 5.40581 21.1637 5.10762L20.4559 5.81405C20.5666 5.92496 20.6263 6.06942 20.6263 6.22578H21.6263ZM21.1633 7.34389C21.4614 7.04581 21.6263 6.64674 21.6263 6.22578H20.6263C20.6263 6.38193 20.5665 6.52653 20.4562 6.63678L21.1633 7.34389ZM19.7742 8.73266L21.1633 7.34394L20.4563 6.63673L19.0672 8.02545L19.7742 8.73266ZM19.7192 9.00965C19.6759 8.90526 19.6941 8.81289 19.7745 8.7323L19.0668 8.02581C18.7016 8.39167 18.5969 8.91374 18.7955 9.39269L19.7192 9.00965ZM19.9542 9.16667C19.8407 9.16667 19.7627 9.11463 19.7192 9.00965L18.7955 9.39269C18.9938 9.87103 19.4362 10.1667 19.9542 10.1667V9.16667ZM21.7222 13.2522C21.7222 13.1433 21.81 13.0556 21.9189 13.0556V14.0556C22.3623 14.0556 22.7222 13.6956 22.7222 13.2522H21.7222ZM21.7222 10.7478V13.2522H22.7222V10.7478H21.7222ZM21.9201 10.9448C21.81 10.9451 21.7222 10.8565 21.7222 10.7478H22.7222C22.7222 10.3046 22.3622 9.9438 21.9177 9.94483L21.9201 10.9448ZM19.9542 10.9448H21.9189V9.94483H19.9542V10.9448ZM18.0767 9.69031C18.3956 10.4606 19.1205 10.9448 19.9542 10.9448V9.94483C19.5248 9.94483 19.1647 9.70415 19.0006 9.3078L18.0767 9.69031ZM18.5172 7.47561C17.9279 8.06495 17.7573 8.92017 18.0768 9.69058L19.0005 9.30753C18.8362 8.91127 18.9208 8.48627 19.2243 8.18272L18.5172 7.47561ZM19.9064 6.08684L18.5173 7.47556L19.2243 8.18277L20.6134 6.79405L19.9064 6.08684ZM19.9063 6.36467C19.83 6.28834 19.8292 6.1638 19.9069 6.08631L20.6129 6.79458C20.9278 6.48064 20.927 5.97111 20.6134 5.65756L19.9063 6.36467ZM18.1357 4.59405L19.9063 6.36466L20.6134 5.65756L18.8428 3.88695L18.1357 4.59405ZM18.4129 4.59463C18.3378 4.66955 18.2132 4.67206 18.1346 4.59289L18.844 3.88811C18.5297 3.57172 18.0201 3.57423 17.707 3.88637L18.4129 4.59463ZM17.0248 5.98278L18.4135 4.59405L17.7064 3.88695L16.3177 5.27567L17.0248 5.98278ZM14.81 6.42329C15.581 6.74258 16.4354 6.57215 17.0248 5.98278L16.3177 5.27567C16.0142 5.57918 15.5898 5.66387 15.1926 5.49938L14.81 6.42329ZM13.5556 4.54578C13.5556 5.37949 14.0398 6.1044 14.8101 6.42331L15.1926 5.49936C14.7962 5.33527 14.5556 4.97517 14.5556 4.54578H13.5556ZM13.5556 2.58111V4.54578H14.5556V2.58111H13.5556ZM13.7518 2.77778C13.6437 2.77778 13.5556 2.69045 13.5556 2.58111H14.5556C14.5556 2.13733 14.1952 1.77778 13.7518 1.77778V2.77778ZM11.2478 2.77778H13.7518V1.77778H11.2478V2.77778ZM11.4444 2.58111C11.4444 2.69003 11.3567 2.77778 11.2478 2.77778V1.77778C10.8044 1.77778 10.4444 2.13775 10.4444 2.58111H11.4444ZM11.4444 4.54578V2.58111H10.4444V4.54578H11.4444ZM10.1897 6.42303C10.9603 6.10452 11.4444 5.37944 11.4444 4.54578H10.4444C10.4444 4.97522 10.2037 5.33515 9.80767 5.49886L10.1897 6.42303ZM7.97522 5.98239C8.56414 6.5713 9.41886 6.74223 10.19 6.4229L9.80736 5.49899C9.41025 5.66344 8.98553 5.57848 8.68233 5.27528L7.97522 5.98239ZM6.5865 4.59366L7.97522 5.98239L8.68233 5.27528L7.29361 3.88656L6.5865 4.59366ZM6.86486 4.59308C6.78736 4.67083 6.66283 4.66999 6.5865 4.59366L7.29361 3.88656C6.98006 3.57301 6.47053 3.57217 6.15659 3.88714L6.86486 4.59308ZM5.09366 6.36428L6.86428 4.59366L6.15717 3.88656L4.38656 5.65717L5.09366 6.36428ZM5.09366 6.0865C5.16999 6.16283 5.17083 6.28736 5.09308 6.36486L4.38714 5.65659C4.07217 5.97053 4.07301 6.48006 4.38656 6.79361L5.09366 6.0865ZM6.48273 7.47517L5.09361 6.08645L4.38661 6.79366L5.77572 8.18238L6.48273 7.47517ZM6.9232 9.69019C7.24257 8.91999 7.07269 8.06462 6.48262 7.47507L5.77582 8.18248C6.07943 8.48582 6.16387 8.91068 5.99947 9.30715L6.9232 9.69019ZM5.04578 10.9444C5.87949 10.9444 6.6044 10.4602 6.92331 9.68992L5.99936 9.30741C5.83527 9.70377 5.47517 9.94444 5.04578 9.94444V10.9444ZM3.08111 10.9444H5.04578V9.94444H3.08111V10.9444ZM3.27778 10.7478C3.27778 10.8567 3.19003 10.9444 3.08111 10.9444V9.94444C2.63775 9.94444 2.27778 10.3044 2.27778 10.7478H3.27778ZM3.27778 13.2522V10.7478H2.27778V13.2522H3.27778ZM3.08111 13.0556C3.19003 13.0556 3.27778 13.1433 3.27778 13.2522H2.27778C2.27778 13.6956 2.63775 14.0556 3.08111 14.0556V13.0556ZM5.04578 13.0556H3.08111V14.0556H5.04578V13.0556ZM6.92326 14.3096C6.60432 13.5397 5.87944 13.0556 5.04578 13.0556V14.0556C5.47523 14.0556 5.83535 14.2963 5.9994 14.6923L6.92326 14.3096ZM6.48278 16.5244C7.07212 15.935 7.24266 15.0798 6.9232 14.3094L5.99947 14.6925C6.16378 15.0887 6.07922 15.5137 5.77567 15.8173L6.48278 16.5244ZM5.09362 17.9132L6.48273 16.5244L5.77572 15.8172L4.38661 17.206L5.09362 17.9132ZM5.09366 17.6353C5.16999 17.7117 5.17083 17.8362 5.09308 17.9137L4.38714 17.2054C4.07217 17.5194 4.07301 18.0289 4.38656 18.3424L5.09366 17.6353ZM6.86428 19.4059L5.09366 17.6353L4.38656 18.3424L6.15717 20.1131L6.86428 19.4059ZM6.5865 19.4059C6.66328 19.3292 6.78781 19.3292 6.86486 19.4065L6.15659 20.1125C6.4693 20.4262 6.97883 20.4278 7.29361 20.1131L6.5865 19.4059ZM7.97517 18.0169L6.58645 19.406L7.29366 20.113L8.68238 18.7239L7.97517 18.0169ZM9.4025 17.4177C8.8734 17.4177 8.36457 17.6275 7.97522 18.0168L8.68233 18.7239C8.88721 18.5191 9.14293 18.4177 9.4025 18.4177V17.4177ZM10.1905 17.5769C9.93524 17.4709 9.66868 17.4177 9.4025 17.4177V18.4177C9.53454 18.4177 9.67087 18.4439 9.80682 18.5004L10.1905 17.5769ZM11.4444 19.4542C11.4444 18.6205 10.9602 17.8956 10.1899 17.5767L9.80741 18.5006C10.2038 18.6647 10.4444 19.0248 10.4444 19.4542H11.4444ZM11.4444 21.4189V19.4542H10.4444V21.4189H11.4444ZM11.2478 21.2222C11.3567 21.2222 11.4444 21.31 11.4444 21.4189H10.4444C10.4444 21.8623 10.8044 22.2222 11.2478 22.2222V21.2222ZM13.7522 21.2222H11.2478V22.2222H13.7522V21.2222ZM13.5556 21.4189C13.5556 21.31 13.6433 21.2222 13.7522 21.2222V22.2222C14.1956 22.2222 14.5556 21.8623 14.5556 21.4189H13.5556ZM13.5556 19.4542V21.4189H14.5556V19.4542H13.5556ZM14.8101 17.5767C14.0398 17.8956 13.5556 18.6205 13.5556 19.4542H14.5556C14.5556 19.0248 14.7962 18.6647 15.1926 18.5006L14.8101 17.5767ZM17.0248 18.0172C16.4346 17.4271 15.5799 17.2585 14.8103 17.5766L15.1923 18.5008C15.5895 18.3366 16.0142 18.4208 16.3177 18.7243L17.0248 18.0172ZM18.4135 19.4064L17.0248 18.0173L16.3176 18.7243L17.7063 20.1134L18.4135 19.4064ZM18.1357 19.4063C18.2116 19.3305 18.3361 19.3287 18.4141 19.4069L17.7058 20.1129C18.021 20.4291 18.5305 20.4258 18.8428 20.1134L18.1357 19.4063ZM19.9063 17.6357L18.1357 19.4063L18.8428 20.1134L20.6134 18.3428L19.9063 17.6357ZM19.9063 17.9135C19.83 17.8372 19.8292 17.7126 19.9069 17.6351L20.6129 18.3434C20.9278 18.0295 20.927 17.5199 20.6134 17.2064L19.9063 17.9135ZM18.5173 16.5248L19.9064 17.9135L20.6134 17.2063L19.2243 15.8176L18.5173 16.5248ZM18.0768 14.3098C17.7574 15.08 17.9273 15.9354 18.5174 16.5249L19.2242 15.8175C18.9206 15.5142 18.8361 15.0893 19.0005 14.6929L18.0768 14.3098ZM19.9542 13.0556C19.1205 13.0556 18.3956 13.5398 18.0767 14.3101L19.0006 14.6926C19.1647 14.2962 19.5248 14.0556 19.9542 14.0556V13.0556ZM21.9189 13.0556H19.9542V14.0556H21.9189V13.0556ZM12.5 8C10.2938 8 8.5 9.7938 8.5 12H9.5C9.5 10.3461 10.8461 9 12.5 9V8ZM16.5 12C16.5 9.7938 14.7062 8 12.5 8V9C14.1539 9 15.5 10.3461 15.5 12H16.5ZM12.5 16C14.7062 16 16.5 14.2062 16.5 12H15.5C15.5 13.6539 14.1539 15 12.5 15V16ZM8.5 12C8.5 14.2062 10.2938 16 12.5 16V15C10.8461 15 9.5 13.6539 9.5 12H8.5ZM12.5 14.2222C11.2754 14.2222 10.2778 13.2246 10.2778 12H9.27778C9.27778 13.7769 10.7231 15.2222 12.5 15.2222V14.2222ZM14.7222 12C14.7222 13.2246 13.7246 14.2222 12.5 14.2222V15.2222C14.2769 15.2222 15.7222 13.7769 15.7222 12H14.7222ZM12.5 9.77778C13.7246 9.77778 14.7222 10.7754 14.7222 12H15.7222C15.7222 10.2231 14.2769 8.77778 12.5 8.77778V9.77778ZM10.2778 12C10.2778 10.7754 11.2754 9.77778 12.5 9.77778V8.77778C10.7231 8.77778 9.27778 10.2231 9.27778 12H10.2778Z" fill="white"/>
</svg>
