<svg width="12" height="12" viewBox="0 0 12 12" fill="none" xmlns="http://www.w3.org/2000/svg">
<path d="M9.61405 8.48251C9.15656 8.48251 8.74706 8.662 8.43506 8.945L4.13854 6.446C4.16955 6.3075 4.19354 6.168 4.19354 6.02399C4.19354 5.87999 4.16905 5.74099 4.13854 5.60199L8.38654 3.12648C8.71054 3.42648 9.13903 3.61397 9.61405 3.61397C10.6155 3.61397 11.4226 2.80847 11.4226 1.80697C11.4226 0.807492 10.615 0 9.61405 0C8.61455 0 7.80705 0.807492 7.80705 1.80649C7.80705 1.95249 7.83155 2.0895 7.86206 2.2285L3.61403 4.706C3.28953 4.40451 2.86154 4.2175 2.38602 4.2175C1.38453 4.2175 0.577515 5.02451 0.577515 6.02399C0.577515 7.02348 1.38453 7.83099 2.38602 7.83099C2.86101 7.83099 3.28953 7.64348 3.61353 7.3435L7.90252 9.84801C7.87302 9.97551 7.85452 10.1085 7.85452 10.241C7.85452 11.211 8.64501 12 9.61353 12C10.583 12 11.374 11.2115 11.374 10.241C11.374 9.27051 10.5836 8.48251 9.61405 8.48251Z" fill="black"/>
<path d="M9.61405 8.48251C9.15656 8.48251 8.74706 8.662 8.43506 8.945L4.13854 6.446C4.16955 6.3075 4.19354 6.168 4.19354 6.02399C4.19354 5.87999 4.16905 5.74099 4.13854 5.60199L8.38654 3.12648C8.71054 3.42648 9.13903 3.61397 9.61405 3.61397C10.6155 3.61397 11.4226 2.80847 11.4226 1.80697C11.4226 0.807492 10.615 0 9.61405 0C8.61455 0 7.80705 0.807492 7.80705 1.80649C7.80705 1.95249 7.83155 2.0895 7.86206 2.2285L3.61403 4.706C3.28953 4.40451 2.86154 4.2175 2.38602 4.2175C1.38453 4.2175 0.577515 5.02451 0.577515 6.02399C0.577515 7.02348 1.38453 7.83099 2.38602 7.83099C2.86101 7.83099 3.28953 7.64348 3.61353 7.3435L7.90252 9.84801C7.87302 9.97551 7.85452 10.1085 7.85452 10.241C7.85452 11.211 8.64501 12 9.61353 12C10.583 12 11.374 11.2115 11.374 10.241C11.374 9.27051 10.5836 8.48251 9.61405 8.48251Z" fill="#738C99"/>
</svg>
