<svg width="16" height="11" viewBox="0 0 16 11" fill="none" xmlns="http://www.w3.org/2000/svg">
<path d="M15.8908 5.32058C14.9196 4.02301 12.9756 2.22505 11.4183 1.35097C10.3697 0.762451 9.19664 0.44248 8 0.418579C3.65718 0.418579 0.252076 5.12012 0.109209 5.32055C-0.0364031 5.52483 -0.0364031 5.80154 0.109209 6.00583C1.08038 7.3034 3.0244 9.10137 4.58171 9.97545L4.60938 10C4.61413 9.99532 4.614 9.99512 4.60938 10C4.60475 10.0049 4.61413 9.99532 4.60938 10L4.58171 9.97545C5.63026 10.564 6.80333 10.8839 7.99997 10.9078C12.3428 10.9078 15.7479 6.2063 15.8908 6.00583C16.0364 5.80158 16.0364 5.52487 15.8908 5.32058ZM5.4349 9.10137C4.27083 8.31072 2.18853 6.76429 1.29949 5.66322C2.14062 4.6242 4.86858 1.58404 8 1.58404C8.89092 1.60241 9.76684 1.82132 10.5651 2.22504L9.57311 3.23669C8.26063 2.34807 6.49024 2.71274 5.61888 4.05121C4.98413 5.02622 4.89062 6.82678 6.42689 8.08973L5.4349 9.10137ZM8.73429 4.0898C9.71427 4.49963 9.7133 5.40362 9.71427 5.66322C9.71427 6.62874 8.94677 7.41144 8 7.41144C7.74544 7.41045 6.93641 7.41144 6.45716 6.41202L8.73429 4.0898ZM6.45716 6.41202C6.34533 6.17881 6.28671 5.92279 6.28573 5.66319C6.28573 4.69768 7.05324 3.91497 8 3.91497C8.25457 3.91596 8.50561 3.97575 8.73429 4.0898L6.45716 6.41202ZM8 9.74237C7.10909 9.724 6.2332 9.5051 5.4349 9.10137L6.42689 8.08973C7.73938 8.97835 9.50977 8.61368 10.3811 7.2752C11.0159 6.3002 11.1832 4.32678 9.57311 3.23669L10.5651 2.22504C11.7292 3.0157 13.8115 4.56216 14.7005 5.66319C13.8594 6.70225 11.1314 9.74237 8 9.74237Z" fill="#738C99"/>
</svg>
