<svg width="16" height="16" viewBox="0 0 16 16" fill="none" xmlns="http://www.w3.org/2000/svg">
<path d="M15.8908 7.902C14.9196 6.60443 12.9756 4.80647 11.4183 3.93239C10.3697 3.34387 9.19664 3.0239 8 3C3.65718 3 0.252076 7.70154 0.109209 7.90197C-0.0364031 8.10626 -0.0364031 8.38297 0.109209 8.58725C1.08038 9.88483 3.0244 11.6828 4.58171 12.5569L4.60938 12.5814C4.61413 12.5767 4.614 12.5765 4.60938 12.5814C4.60475 12.5863 4.61413 12.5767 4.60938 12.5814L4.58171 12.5569C5.63026 13.1454 6.80333 13.4654 7.99997 13.4893C12.3428 13.4893 15.7479 8.78772 15.8908 8.58725C16.0364 8.383 16.0364 8.10629 15.8908 7.902ZM5.4349 11.6828C4.27083 10.8921 2.18853 9.34571 1.29949 8.24465C2.14062 7.20562 4.86858 4.16547 8 4.16547C8.89092 4.18384 9.76684 4.40274 10.5651 4.80647L9.57311 5.81811C8.26063 4.92949 6.49024 5.29416 5.61888 6.63263C4.98413 7.60764 4.89062 9.40821 6.42689 10.6712L5.4349 11.6828ZM8.73429 6.67122C9.71427 7.08105 9.7133 7.98504 9.71427 8.24465C9.71427 9.21016 8.94677 9.99286 8 9.99286C7.74544 9.99187 6.93641 9.99286 6.45716 8.99344L8.73429 6.67122ZM6.45716 8.99344C6.34533 8.76023 6.28671 8.50421 6.28573 8.24461C6.28573 7.2791 7.05324 6.4964 8 6.4964C8.25457 6.49739 8.50561 6.55717 8.73429 6.67122L6.45716 8.99344ZM8 12.3238C7.10909 12.3054 6.2332 12.0865 5.4349 11.6828L6.42689 10.6712C7.73938 11.5598 9.50977 11.1951 10.3811 9.85662C11.0159 8.88162 11.1832 6.9082 9.57311 5.81811L10.5651 4.80647C11.7292 5.59712 13.8115 7.14358 14.7005 8.24461C13.8594 9.28367 11.1314 12.3238 8 12.3238Z" fill="#738C99"/>
</svg>
