<svg width="16" height="16" viewBox="0 0 16 16" fill="none" xmlns="http://www.w3.org/2000/svg">
<g opacity="0.5">
<path d="M8 1C4.14031 1 1 4.14004 1 8C1 11.86 4.14031 15 8 15C11.8597 15 15 11.86 15 8C15 4.14004 11.8597 1 8 1ZM8 14.4615C4.43727 14.4615 1.53846 11.5627 1.53846 8C1.53846 4.43727 4.43727 1.53846 8 1.53846C11.5627 1.53846 14.4615 4.43727 14.4615 8C14.4615 11.5627 11.5627 14.4615 8 14.4615Z" fill="#738C99" stroke="#738C99" stroke-width="0.5"/>
<path d="M11.2981 5.12892L7.1603 9.78392L4.6675 7.78973C4.55173 7.69684 4.38184 7.71596 4.28923 7.83173C4.19634 7.94803 4.21519 8.11738 4.33123 8.21026L7.02354 10.3641C7.07307 10.4037 7.13257 10.4231 7.1918 10.4231C7.26611 10.4231 7.34015 10.3924 7.39319 10.3326L11.7009 5.48646C11.7997 5.37553 11.7897 5.20511 11.6785 5.10657C11.5671 5.0075 11.3972 5.01746 11.2981 5.12892Z" fill="#738C99" stroke="#738C99" stroke-width="0.5"/>
</g>
</svg>
