<svg width="20" height="22" viewBox="0 0 20 22" fill="none" xmlns="http://www.w3.org/2000/svg">
    <path d="M1 11.9922C1 16.962 5.03448 21 10 21C14.9655 21 19 16.962 19 11.9922C19 9.52459 18 7.26402 16.3793 5.64193L17.0862 4.93443L17.4138 5.2623C17.5517 5.40035 17.7241 5.46937 17.9138 5.46937C18.1034 5.46937 18.2759 5.40035 18.4138 5.2623C18.6897 4.9862 18.6897 4.53753 18.4138 4.26143L16.7759 2.62209C16.5 2.34599 16.0517 2.34599 15.7759 2.62209C15.5 2.89819 15.5 3.34685 15.7759 3.62295L16.1034 3.95082L15.3276 4.72735C14.0172 3.761 12.4483 3.15703 10.7241 3.01898V2.41501H12.2931C12.6897 2.41501 13 2.1044 13 1.70751C13 1.31061 12.6897 1 12.2931 1H7.63793C7.24138 1 6.93104 1.31061 6.93104 1.70751C6.93104 2.1044 7.24138 2.41501 7.63793 2.41501H9.31034V3.01898C4.65517 3.38136 1 7.26402 1 11.9922ZM10 4.39948C14.1897 4.39948 17.6034 7.81622 17.6034 12.0095C17.6034 16.2028 14.1897 19.6195 10 19.6195C5.81035 19.6195 2.39655 16.2028 2.39655 12.0095C2.39655 7.79897 5.81035 4.39948 10 4.39948Z" fill="#EC374A" stroke="#EC374A" stroke-width="0.25"/>
    <path d="M9.99913 12.58H13.0164C13.4129 12.58 13.7233 12.2694 13.7233 11.8725C13.7233 11.4756 13.4129 11.165 13.0164 11.165H10.706V7.52391C10.706 7.12702 10.3957 6.81641 9.99913 6.81641C9.60258 6.81641 9.29224 7.12702 9.29224 7.52391V11.8897C9.29224 12.2694 9.60258 12.58 9.99913 12.58Z" fill="#EC374A" stroke="#EC374A" stroke-width="0.25"/>
</svg>
