<svg width="18" height="18" viewBox="0 0 18 18" fill="none" xmlns="http://www.w3.org/2000/svg">
<path d="M1.0589 9.87585C1.0589 14.261 4.61874 17.8239 9.00008 17.8239C13.3814 17.8239 16.9413 14.261 16.9413 9.87585C16.9413 7.69852 16.0589 5.7039 14.6289 4.27264L15.2526 3.64837L15.5417 3.93767C15.6634 4.05948 15.8155 4.12038 15.9828 4.12038C16.1502 4.12038 16.3023 4.05948 16.424 3.93767C16.6674 3.69405 16.6674 3.29817 16.424 3.05455L14.9788 1.60807C14.7354 1.36446 14.3398 1.36446 14.0964 1.60807C13.853 1.85169 13.853 2.24757 14.0964 2.49119L14.3855 2.78048L13.7009 3.46566C12.5447 2.613 11.1603 2.08008 9.63902 1.95827V1.42536H11.0234C11.3733 1.42536 11.6471 1.15129 11.6471 0.801089C11.6471 0.450889 11.3733 0.176819 11.0234 0.176819H6.9159C6.566 0.176819 6.29217 0.450889 6.29217 0.801089C6.29217 1.15129 6.566 1.42536 6.9159 1.42536H8.39156V1.95827C4.28405 2.27802 1.0589 5.7039 1.0589 9.87585ZM9.00008 3.17636C12.6968 3.17636 15.709 6.19113 15.709 9.89108C15.709 13.591 12.6968 16.6058 9.00008 16.6058C5.30332 16.6058 2.29115 13.591 2.29115 9.89108C2.29115 6.17591 5.30332 3.17636 9.00008 3.17636Z" fill="white" stroke="white" stroke-width="0.25"/>
<path d="M8.99934 10.3935H11.6616C12.0115 10.3935 12.2853 10.1195 12.2853 9.76926C12.2853 9.41906 12.0115 9.14499 11.6616 9.14499H9.62307V5.93228C9.62307 5.58208 9.34924 5.30801 8.99934 5.30801C8.64944 5.30801 8.37561 5.58208 8.37561 5.93228V9.78449C8.37561 10.1195 8.64944 10.3935 8.99934 10.3935Z" fill="white" stroke="white" stroke-width="0.25"/>
</svg>
