<svg width="18" height="22" viewBox="0 0 18 22" fill="none" xmlns="http://www.w3.org/2000/svg">
<path d="M9 4.125C4.06396 4.125 0.0625 8.12646 0.0625 13.0625C0.0625 17.9985 4.06396 22 9 22C13.936 22 17.9375 17.9985 17.9375 13.0625C17.9375 8.12646 13.936 4.125 9 4.125ZM9.6875 20.5901V19.9375C9.6875 19.5575 9.38002 19.25 9 19.25C8.61998 19.25 8.3125 19.5575 8.3125 19.9375V20.5901C4.69105 20.2611 1.80007 17.3714 1.47243 13.75H2.125C2.50502 13.75 2.8125 13.4425 2.8125 13.0625C2.8125 12.6825 2.50502 12.375 2.125 12.375H1.47243C1.80007 8.75355 4.69105 5.86257 8.3125 5.53493V6.1875C8.3125 6.56752 8.61998 6.875 9 6.875C9.38002 6.875 9.6875 6.56752 9.6875 6.1875V5.53489C13.3089 5.86253 16.1986 8.75351 16.5276 12.375H15.875C15.495 12.375 15.1875 12.6825 15.1875 13.0625C15.1875 13.4425 15.495 13.75 15.875 13.75H16.5276C16.1986 17.3714 13.3089 20.2611 9.6875 20.5901ZM6.9375 2.0625V0.6875C6.9375 0.307484 7.24498 0 7.625 0H10.375C10.755 0 11.0625 0.307484 11.0625 0.6875V2.0625C11.0625 2.44252 10.755 2.75 10.375 2.75V3.54763C9.92383 3.48318 9.46729 3.4375 9 3.4375C8.53271 3.4375 8.07617 3.48318 7.625 3.54763V2.75C7.24498 2.75 6.9375 2.44252 6.9375 2.0625ZM14.931 5.49734C14.222 4.94141 13.4365 4.48082 12.5879 4.13845C12.6013 4.10622 12.604 4.07129 12.6214 4.03906L13.3089 2.84934C13.4996 2.519 13.9199 2.40621 14.2489 2.5969L15.4386 3.2844C15.7676 3.4751 15.8804 3.89404 15.6911 4.22434L15.0036 5.41406C14.9847 5.44762 14.9538 5.46777 14.931 5.49734ZM14.9538 9.625C15.1445 9.95397 15.0317 10.3743 14.7027 10.5649L9.34375 13.6574C9.23766 13.7191 9.11816 13.75 9 13.75C8.88184 13.75 8.76234 13.7191 8.65625 13.6574L3.29856 10.5649C2.96822 10.3742 2.85543 9.95397 3.04612 9.625C3.23682 9.29603 3.65709 9.18324 3.98606 9.37256L9 12.2689L14.0153 9.37256C14.3456 9.18457 14.7659 9.29736 14.9538 9.625Z" fill="#00A3FF"/>
</svg>
