<svg width="156" height="156" viewBox="0 0 156 156" fill="none" xmlns="http://www.w3.org/2000/svg">
<path id="upload" fill-rule="evenodd" clip-rule="evenodd" d="M51.1914 33.0473C59.6076 13.2018 79.0998 0 101.4 0C131.508 0 156 24.3989 156 54.3924C156 76.0328 143.216 94.7049 124.8 103.462V85.2795C134.215 78.1774 140.4 67.0348 140.4 54.3924C140.4 32.9696 122.905 15.5407 101.4 15.5407C83.1714 15.5407 67.5636 27.8955 63.4452 45.5886C62.8758 48.0518 61.1286 50.0799 58.7808 51.0278C56.433 51.9758 53.7576 51.7349 51.6204 50.3596C47.814 47.9197 43.446 46.6221 39 46.6221C26.0988 46.6221 15.6 57.0809 15.6 69.9331C15.6 80.0501 22.1364 88.5897 31.2 91.8066V108C13.4238 104.395 0 88.6985 0 69.9331C0 48.5103 17.4954 31.0814 39 31.0814C43.1574 31.0814 47.268 31.7496 51.1914 33.0473ZM78 60L114 96.4002L103.185 107.335L85.6482 89.6027V156H70.3518V89.6027L52.8145 107.335L42 96.4002L78 60Z" fill="#00A3FF"/>
</svg>
