<svg width="22" height="22" viewBox="0 0 22 22" fill="none" xmlns="http://www.w3.org/2000/svg">
<g clip-path="url(#clip0)">
<path d="M8.24974 10.5421C5.72256 10.5421 3.6665 8.48617 3.6665 5.95898C3.6665 3.43179 5.72256 1.37573 8.24974 1.37573C10.7769 1.37573 12.833 3.43179 12.833 5.95898C12.833 8.48617 10.7769 10.5421 8.24974 10.5421ZM8.24974 2.75069C6.4807 2.75069 5.04146 4.18976 5.04146 5.95898C5.04146 7.72803 6.4807 9.1671 8.24974 9.1671C10.0188 9.1671 11.458 7.72803 11.458 5.95898C11.458 4.18976 10.0188 2.75069 8.24974 2.75069Z" fill="#00A3FF"/>
<path d="M15.812 20.625H0.687479C0.307989 20.625 0 20.317 0 19.9375V16.7292C0 14.3286 1.95334 12.3752 4.35397 12.3752H12.1455C14.5461 12.3752 16.4995 14.3286 16.4995 16.7292V19.9375C16.4995 20.317 16.1915 20.625 15.812 20.625ZM1.37496 19.25H15.1245V16.7292C15.1245 15.0867 13.788 13.7502 12.1455 13.7502H4.35397C2.71148 13.7502 1.37496 15.0867 1.37496 16.7292V19.25Z" fill="#00A3FF"/>
<path d="M21.3118 10.7712H13.5205C13.141 10.7712 12.833 10.4632 12.833 10.0837C12.833 9.70423 13.141 9.39624 13.5205 9.39624H21.3118C21.6913 9.39624 21.9993 9.70423 21.9993 10.0837C21.9993 10.4632 21.6913 10.7712 21.3118 10.7712Z" fill="#00A3FF"/>
<path d="M17.6453 14.4377C17.4693 14.4377 17.2934 14.3707 17.1594 14.2361C16.8909 13.9674 16.8909 13.532 17.1594 13.2634L20.3402 10.0827L17.1594 6.90191C16.8909 6.63337 16.8909 6.19798 17.1594 5.92944C17.428 5.66089 17.8633 5.66089 18.1321 5.92944L21.7986 9.59594C22.0671 9.86449 22.0671 10.3 21.7986 10.5686L18.1321 14.2351C17.9973 14.3707 17.8212 14.4377 17.6453 14.4377Z" fill="#00A3FF"/>
</g>
</svg>
