<svg width="6" height="20" viewBox="0 0 6 20" fill="none" xmlns="http://www.w3.org/2000/svg">
<path d="M5.16658 9.99967C5.16658 8.80306 4.19654 7.83301 2.99992 7.83301C1.8033 7.83301 0.833252 8.80306 0.833252 9.99967C0.833252 11.1963 1.8033 12.1663 2.99992 12.1663C4.19654 12.1663 5.16658 11.1963 5.16658 9.99967Z" fill="#738C99"/>
<path d="M5.16658 2.41667C5.16658 1.22005 4.19654 0.25 2.99992 0.25C1.8033 0.25 0.833252 1.22005 0.833252 2.41667C0.833252 3.61328 1.8033 4.58333 2.99992 4.58333C4.19654 4.58333 5.16658 3.61328 5.16658 2.41667Z" fill="#738C99"/>
<path d="M5.16658 17.5837C5.16658 16.387 4.19654 15.417 2.99992 15.417C1.8033 15.417 0.833252 16.387 0.833252 17.5837C0.833252 18.7803 1.8033 19.7503 2.99992 19.7503C4.19654 19.7503 5.16658 18.7803 5.16658 17.5837Z" fill="#738C99"/>
</svg>
