<svg version="1.1" id="Layer_1" xmlns="http://www.w3.org/2000/svg" xmlns:xlink="http://www.w3.org/1999/xlink" x="0px" y="0px"
	 viewBox="0 0 14 14.507" style="enable-background:new 0 0 14 14.507;" xml:space="preserve">
<polygon style="fill:#231F20;" points="7.933,0 5.934,0.015 5.978,6.015 3.978,6.029 7.007,10.007 9.978,5.985 7.978,6 "/>
<path style="fill:#231F20;" d="M11.608,2.246l-1.329,1.516C11.317,4.67,11.989,5.986,12,7.47c0.02,2.758-2.205,5.016-4.963,5.037
	C4.281,12.527,2.021,10.302,2,7.544C1.989,6.06,2.641,4.735,3.666,3.811L2.317,2.315C0.885,3.609-0.015,5.479,0,7.559
	c0.029,3.865,3.186,6.977,7.052,6.948c3.867-0.029,6.977-3.186,6.948-7.052C13.984,5.375,13.059,3.519,11.608,2.246z"/>
</svg>
